<svg version="1.2" xmlns="http://www.w3.org/2000/svg" viewBox="0 0 800 800" width="800" height="800">
	<title>esb-connector-amazondynamodb-small-ai</title>
	<style>
		tspan { white-space:pre } 
		.s0 { fill: #144a70 } 
		.t1 { font-size: 4px;fill: #134671;font-weight: bold;font-family: "Calibre" } 
		.s2 { fill: #fefefe } 
		.s3 { fill: #124a70;stroke: #124a70;stroke-miterlimit:10;stroke-width: 16 } 
	</style>
	<g id="Layer 1">
		<path id="&lt;Compound Path&gt;" fill-rule="evenodd" class="s0" d="m316.9 182.7c-0.1 4.1 0.4 8.1 1.5 12.1 1.2 3.3 2.7 6.6 4.3 9.7 0.5 0.9 0.9 2 0.9 3.1-0.1 1.6-1 3.2-2.5 4l-8.5 5.7c-1.1 0.7-2.3 1.2-3.5 1.2-1.5-0.1-3-0.8-4.1-1.9-1.7-1.9-3.5-4-4.9-6.3-1.3-2.3-2.7-4.9-4.1-8q-15.8 18.6-39.7 18.6c-11.4 0-20.4-3.2-27-9.7-6.6-6.5-10-15.1-10-25.9 0-11.5 4-20.8 12.3-27.8 8.2-7 19.1-10.5 33-10.5 4.8 0 9.6 0.4 14.4 1 5 0.7 10.1 1.8 15.5 3v-9.8c0-10.3-2.2-17.5-6.4-21.6-4.1-4.2-11.6-6.3-22-6.3-4.8 0-9.8 0.6-14.5 1.8-5 1.2-9.9 2.7-14.6 4.6-1.5 0.7-3.1 1.2-4.8 1.7-0.6 0.3-1.4 0.5-2.1 0.5-1.9 0-2.8-1.4-2.8-4.2v-6.6c-0.2-1.7 0.2-3.3 0.9-4.8 1.1-1.2 2.3-2.1 3.8-2.8q8.1-4.1 17-6.1c6.9-1.7 14-2.5 21-2.5 16.1 0 27.9 3.6 35.4 10.9 7.6 7.3 11.2 18.3 11.2 33.2v43.7zm-54.8 20.6c4.7 0 9.5-0.9 13.9-2.5 5-1.7 9.3-4.7 12.8-8.6 2.2-2.4 3.8-5.4 4.6-8.7 1-3.7 1.4-7.8 1.4-11.7v-5.7c-4.1-0.9-8.3-1.7-12.4-2.3-4.2-0.5-8.5-0.8-12.7-0.8-9.1 0-15.7 1.8-20.1 5.4-4.5 3.7-6.7 8.8-6.7 15.6 0 6.3 1.7 11 5 14.3 3.4 3.2 8 5 14.2 5zm108.4 14.5c-1.7 0.2-3.6-0.2-5.1-1.3-1.4-1.5-2.4-3.3-2.9-5.3l-31.7-104.3c-0.7-1.8-1.1-3.5-1.2-5.4-0.1-1.7 1-3.1 2.6-3.4h14c2.6 0 4.3 0.4 5.3 1.3 0.9 1 1.9 2.7 2.7 5.3l22.5 89.4 21.1-89.4c0.7-2.7 1.5-4.4 2.5-5.3 1.7-0.9 3.6-1.4 5.4-1.3h10.8c2.6 0 4.4 0.4 5.4 1.3 1.4 1.5 2.3 3.3 2.6 5.3l21.3 90.5 23.4-90.5c0.4-2 1.3-3.8 2.7-5.3 1.6-0.9 3.4-1.4 5.3-1.3h12.5c1.6-0.3 3.1 0.9 3.4 2.6v0.8c0 0.6-0.1 1.5-0.3 2.1-0.3 1.2-0.5 2.3-0.9 3.4l-32.6 104.4q-1.2 4-2.8 5.2c-1.5 1-3.4 1.5-5.1 1.4h-11.6c-2.6 0-4.4-0.4-5.4-1.4-1.4-1.5-2.3-3.4-2.6-5.4l-20.9-87.1-20.8 87c-0.3 2-1.2 3.9-2.6 5.4-1.6 1.1-3.5 1.5-5.4 1.3zm173.5 3.7c-7 0-14-0.8-20.8-2.4-6.7-1.7-12-3.4-15.5-5.4-1.8-0.9-3.3-2.2-4.2-3.8-0.5-1.2-0.8-2.5-0.8-3.8v-6.9c0-2.8 1.1-4.2 3.1-4.2q1.2 0 2.4 0.4c0.8 0.3 2 0.8 3.4 1.4 4.7 2.1 9.7 3.6 14.8 4.7 5.3 1.1 10.7 1.6 16.1 1.6 8.5 0 15.1-1.5 19.7-4.4 4.5-2.7 7.2-7.6 7-12.9 0.2-3.5-1.2-6.8-3.6-9.4-2.4-2.6-7-4.9-13.6-7l-19.6-6.1c-9.9-3.1-17.2-7.7-21.6-13.8-4.3-5.6-6.8-12.4-6.8-19.5-0.1-5.3 1.1-10.4 3.7-15 2.4-4.4 5.6-8.1 9.7-11.1 4.2-3.2 8.9-5.5 14-7 5.6-1.6 11.2-2.5 17-2.3 3 0 6.1 0.1 9.1 0.5 3.1 0.4 5.9 1 8.8 1.5 2.8 0.5 5.2 1.4 7.7 2.2q3 1 5.6 2.4c1.7 0.8 3 1.9 4.1 3.4q1.4 2 1.2 4.4v6.4c0 2.8-1.1 4.3-3.1 4.3-1.8-0.3-3.5-0.8-5.1-1.6-8.1-3.7-17-5.4-26-5.3-7.7 0-13.7 1.2-17.9 3.8-4.2 2.6-6.4 6.5-6.4 12-0.1 3.6 1.4 7.2 4.1 9.6 2.7 2.6 7.7 5.1 14.8 7.4l19.2 6.1c9.7 3.1 16.8 7.4 20.9 12.9 4.2 5.4 6.4 12.2 6.2 18.9 0.2 5.4-1 10.8-3.5 15.7-2.4 4.6-5.8 8.6-9.8 11.9-4.5 3.5-9.6 6.1-15 7.5-6.2 1.9-12.7 2.9-19.3 2.9zm25.5 65.6c-44.4 32.8-108.9 50.2-164.4 50.2-77.8 0-147.8-28.7-200.8-76.5-4.1-3.8-0.4-8.9 4.6-6 57.3 33.2 127.9 53.3 200.9 53.3 52.7-0.2 104.8-10.9 153.2-31.3 7.5-3.3 13.8 4.9 6.5 10.3zm18.5-21.1c-5.7-7.3-37.5-3.5-52-1.7-4.3 0.5-5-3.3-1.1-6.1 25.4-17.8 67.1-12.7 72-6.8 4.9 6-1.4 47.8-25.1 67.8-3.7 3.1-7.2 1.5-5.5-2.5 5.4-13.4 17.4-43.5 11.7-50.7z"/>
		<text id="Dynamodb
" style="transform: matrix(32,0,0,32,405.492,495.459)" >
			<tspan x="-13" y="0" class="t1">Dynamodb
</tspan>
		</text>
		<g id="&lt;Group&gt;">
			<path id="&lt;Path&gt;" class="s2" d="m612.2 475.1c-84.7 0-153.4 68.7-153.4 153.4 0 84.7 68.7 153.4 153.4 153.4 84.7 0 153.3-68.7 153.3-153.4 0-84.7-68.6-153.4-153.3-153.4z"/>
			<path id="&lt;Path&gt;" class="s3" d="m728.6 628.5c0 66-53.7 119.6-119.7 119.6-25.1 0-49.1-7.6-69.5-22.2-3.2-2.3-3.9-6.8-1.6-10 2.3-3.3 6.8-4 10-1.7 17.9 12.8 39.1 19.5 61.1 19.5 58.1 0 105.3-47.2 105.3-105.2 0-58.1-47.2-105.3-105.3-105.3-55.6 0-101.3 43.4-105 98.1h50.6c3.5-27 26.6-47.8 54.4-47.8 4 0 7.2 3.2 7.2 7.2v14.7h45.6c3.9 0 7.2 3.3 7.2 7.2 0 4-3.3 7.2-7.2 7.2h-45.6v37.3h45.6c3.9 0 7.2 3.2 7.2 7.2 0 4-3.3 7.2-7.2 7.2h-45.6v14.8c0 3.9-3.2 7.2-7.2 7.2-27.8 0-50.9-20.9-54.4-47.8h-58c-4 0-7.2-3.3-7.2-7.2 0-66 53.7-119.7 119.6-119.7 66 0 119.7 53.7 119.7 119.7z"/>
		</g>
	</g>
</svg>