<svg version="1.2" xmlns="http://www.w3.org/2000/svg" viewBox="0 0 800 800" width="800" height="800">
	<title>esb-connector-edi-small-ai</title>
	<style>
		.s0 { fill: #20b899 } 
		.s1 { fill: #fefefe } 
		.s2 { fill: #20b899;stroke: #20b899;stroke-miterlimit:10;stroke-width: 16 } 
	</style>
	<g id="Layer 1">
		<g id="&lt;Group&gt;">
			<path id="&lt;Compound Path&gt;" fill-rule="evenodd" class="s0" d="m140.1 88.7h209.7c18.1 0 32.6 14.7 32.6 32.7v150.6c0 18.1-14.7 32.6-32.6 32.6h-94v32.7h31.4c6 0 10.9 4.9 10.9 10.8 0 6-4.9 10.9-10.9 10.9h-84.4c-5.9 0-10.8-4.9-10.8-10.9 0-5.9 4.9-10.8 10.8-10.8h31.5v-32.7h-94.1c-18 0-32.6-14.6-32.6-32.6v-150.6c0-18 14.6-32.7 32.5-32.7zm209.7 21.8h-209.7c-6 0-10.9 4.9-10.9 10.9v150.6c0 6 4.9 10.9 10.9 10.9h209.8c6 0 10.9-4.9 10.9-10.9v-150.6c0-6-4.9-10.9-11-10.9z"/>
			<path id="&lt;Compound Path&gt;" fill-rule="evenodd" class="s0" d="m692.4 431.3v150.7c0 18-14.7 32.6-32.6 32.6h-94.1v32.6h31.5c5.9 0 10.8 4.9 10.8 10.9 0 6-4.9 10.9-10.8 10.9h-84.5c-6 0-10.9-4.9-10.9-10.9 0-6 4.9-10.9 10.9-10.9h31.4v-32.6h-94c-18.1 0-32.7-14.7-32.7-32.6v-150.6c0-18 14.7-32.6 32.7-32.6h209.8c17.9 0 32.5 14.6 32.5 32.5zm-21.8 150.7v-150.7c0-6-4.9-10.9-10.8-10.9h-209.7c-6 0-10.9 4.9-10.9 10.9v150.7c0 6 4.9 10.9 10.9 10.9h209.8c6 0 10.9-4.9 10.9-10.9z"/>
			<path id="&lt;Path&gt;" class="s0" d="m440.1 207.5h104v113.9c0 1.3 0.2 2.6 0.7 3.8l-19.9-20c-4.2-4.1-11.1-4.1-15.3 0-4.2 4.2-4.2 11.2 0 15.3l37.7 37.8c2.2 2.1 4.9 3.2 7.7 3.2 2.7 0 5.5-1.1 7.6-3.2l37.8-37.8c4.2-4.1 4.2-11.1 0-15.3-4.2-4.1-11.1-4.1-15.3 0l-20 20c0.5-1.2 0.8-2.5 0.8-3.8v-124.7c0-5.9-4.9-10.8-10.9-10.8h-114.9c-5.9 0-10.8 4.9-10.8 10.8 0.1 6 4.9 10.8 10.8 10.8z"/>
			<path id="&lt;Path&gt;" class="s0" d="m234.1 567.3c0 6 4.9 10.9 10.9 10.9h114.9c5.9 0 10.8-4.9 10.8-10.9 0-6-4.9-10.9-10.8-10.9h-104v-113.9c0-1.3-0.2-2.6-0.7-3.8l19.9 20c2.2 2.1 4.9 3.2 7.7 3.2 2.7 0 5.5-1.1 7.6-3.2 4.2-4.2 4.2-11.1 0-15.3l-37.7-37.8c-4.2-4.2-11.1-4.2-15.3 0l-37.8 37.8c-4.2 4.2-4.2 11.1 0 15.3 4.2 4.2 11.1 4.2 15.3 0l20-20c-0.5 1.2-0.8 2.5-0.8 3.8z"/>
		</g>
		<g id="&lt;Group&gt;">
			<path id="&lt;Path&gt;" class="s1" d="m612.2 475.1c-84.7 0-153.4 68.7-153.4 153.4 0 84.7 68.7 153.4 153.4 153.4 84.7 0 153.3-68.7 153.3-153.4 0-84.7-68.6-153.4-153.3-153.4z"/>
			<path id="&lt;Path&gt;" class="s2" d="m728.6 628.5c0 66-53.7 119.6-119.7 119.6-25.1 0-49.1-7.6-69.5-22.2-3.2-2.3-3.9-6.8-1.6-10 2.3-3.3 6.8-4 10-1.7 17.9 12.8 39.1 19.5 61.1 19.5 58.1 0 105.3-47.2 105.3-105.2 0-58.1-47.2-105.3-105.3-105.3-55.6 0-101.3 43.4-105 98.1h50.6c3.5-27 26.6-47.8 54.4-47.8 4 0 7.2 3.2 7.2 7.2v14.7h45.6c3.9 0 7.2 3.3 7.2 7.2 0 4-3.3 7.2-7.2 7.2h-45.6v37.3h45.6c3.9 0 7.2 3.2 7.2 7.2 0 4-3.3 7.2-7.2 7.2h-45.6v14.8c0 3.9-3.2 7.2-7.2 7.2-27.8 0-50.9-20.9-54.4-47.8h-58c-4 0-7.2-3.3-7.2-7.2 0-66 53.7-119.7 119.6-119.7 66 0 119.7 53.7 119.7 119.7z"/>
		</g>
	</g>
</svg>