<svg version="1.2" xmlns="http://www.w3.org/2000/svg" viewBox="0 0 800 800" width="800" height="800">
	<title>esb-connector-outlookmail-small-ai</title>
	<style>
		.s0 { fill: #1b71b9 } 
		.s1 { fill: #fefefe } 
		.s2 { fill: #1e73b9;stroke: #1e73b9;stroke-miterlimit:10;stroke-width: 16 } 
	</style>
	<g id="Layer 1">
		<path id="path3" class="s0" d="m479.3 228.5v116.4l40.6 25.6c1.1 0.3 3.4 0.3 4.5 0l175.1-118.1c0-13.9-13.1-23.9-20.4-23.9z"/>
		<path id="path5" class="s0" d="m479.3 388.3l37.1 25.5c5.2 3.8 11.5 0 11.5 0-6.3 3.8 171.6-114.3 171.6-114.3v213.9c0 23.3-14.9 33.1-31.7 33.1h-188.6v-158.2z"/>
		<g id="g23 1 ">
			<path id="path25 1 " class="s0" d="m287 334.6c-12.6 0-22.7 6-30.1 17.8q-11.2 17.8-11.2 47.2 0 29.7 11.2 47c7.4 11.6 17.2 17.3 29.2 17.3q18.7 0 29.7-16.8 10.9-16.8 10.9-46.7 0-31.1-10.6-48.5-10.6-17.3-29.1-17.3z"/>
			<path id="path27" fill-rule="evenodd" class="s0" d="m457.3 102.3v595.1l-346.4-72.7v-455.4zm-92.7 295.6q0-45.9-21.1-74c-14.2-18.8-32.7-28.1-55.5-28.1q-36.3 0-58.4 29.4-22 29.3-22 76.8c0 30 7.3 54.3 21.7 73q21.7 28 56.1 28 35.3 0 57.3-28.9 22-28.9 21.9-76.2z"/>
		</g>
		<g id="g23">
			<g id="&lt;Group&gt;">
				<path id="&lt;Path&gt;" class="s1" d="m612.2 475.1c-84.7 0-153.4 68.7-153.4 153.4 0 84.7 68.7 153.4 153.4 153.4 84.7 0 153.3-68.7 153.3-153.4 0-84.7-68.6-153.4-153.3-153.4z"/>
				<path id="&lt;Path&gt;" class="s2" d="m728.6 628.5c0 66-53.7 119.6-119.7 119.6-25.1 0-49.1-7.6-69.5-22.2-3.2-2.3-3.9-6.8-1.6-10 2.3-3.3 6.8-4 10-1.7 17.9 12.8 39.1 19.5 61.1 19.5 58.1 0 105.3-47.2 105.3-105.2 0-58.1-47.2-105.3-105.3-105.3-55.6 0-101.3 43.4-105 98.1h50.6c3.5-27 26.6-47.8 54.4-47.8 4 0 7.2 3.2 7.2 7.2v14.7h45.6c3.9 0 7.2 3.3 7.2 7.2 0 4-3.3 7.2-7.2 7.2h-45.6v37.3h45.6c3.9 0 7.2 3.2 7.2 7.2 0 4-3.3 7.2-7.2 7.2h-45.6v14.8c0 3.9-3.2 7.2-7.2 7.2-27.8 0-50.9-20.9-54.4-47.8h-58c-4 0-7.2-3.3-7.2-7.2 0-66 53.7-119.7 119.6-119.7 66 0 119.7 53.7 119.7 119.7z"/>
			</g>
		</g>
	</g>
</svg>