<svg version="1.2" xmlns="http://www.w3.org/2000/svg" viewBox="0 0 800 800" width="800" height="800">
	<title>esb-connector-iso8583-small-ai</title>
	<style>
		.s0 { fill: #22bab0 } 
		.s1 { fill: #fefefe } 
		.s2 { fill: #23bab0;stroke: #23bab0;stroke-miterlimit:10;stroke-width: 16 } 
	</style>
	<g id="Layer 1">
		<g id="&lt;Group&gt;">
			<path id="&lt;Compound Path&gt;" fill-rule="evenodd" class="s0" d="m695.8 477.5c-10.7 13.8-25.1 24-40.1 30.2l-1.4 0.6c-5 2.7-12.3 4.5-14.6 5-48.4 13.4-102.8 6.2-140.2-26.6-32-31.2-34.4-80.7-25.3-122.3 4.9-25.3 21-49.9 45.3-62.4 44.7-24.9 110.9-22.9 154.2 4.6 15.1 10.2 27.4 24.3 33.4 40.1 15.1 40.6 13.4 94.7-11.3 130.8zm-65.4-97.4c-1-8.8-0.7-18.7-5.7-26.2-8.1-10.5-20.7-12.5-33.7-12.5-12.4 1-26.1 4.3-31.1 17.1-6.3 20.6-4.7 44.6-3.7 67.2 1.4 11.5 2.7 23.6 13.1 30.8 12.3 6.9 30.3 8.5 43.7 2.7 8.3-3 13.6-11.2 15.4-19.1 3.3-19 1.6-41.3 2-60zm-397.6 80.4v54.1h-147.2q-1-27 0-54.1l33.1-0.7 0.3-4.6v-111.5c-11-1-21.7-0.6-33-1-0.4-17.7-0.4-38 0-55.4l20.7-0.4 125.8 0.4c1 17 0.7 37.1 0.3 55.8l-33 0.3-0.7 0.9-0.3 115.2c10.7 1.3 23 0.3 34 1zm381.2 78.7c-56.8 86-154.6 129.6-257 116.1-29.7-3.9-57.8-13.1-84.2-25.9 0.7-0.4 0-1-0.2-1-0.4 0-0.4 0.3-0.4 0.3-39.1-19.3-76.4-52.1-100.5-89.5 4.1-0.4 6.7-0.6 10.7 0 14.5 21.2 32.3 39.9 52.7 55.4 9.4-4.3 18.4-10.1 27.4-15.4-10.7-13.1-21.4-25.9-29.4-40.4 3.7 0.7 10.4-2.6 12.1 3 7.3 11.2 16.3 22.3 25.7 32.4l1.3 0.7c14.4-5.9 29.1-11.1 44.1-15.4l1-1-8.4-19.3c2.3-1 6.1-0.4 9.4-0.4l9 17.5c19.3-4 39.4-6.3 60.1-7.3 2-3.3 0.3-6.2 1-10.2h8.6c1.4 2.7 0 6.9 1.1 9.9 20 1.3 41.7 3.6 61.4 7.8l9-17.7h9c-1.4 6.6-5.7 12.8-8 19.4l1.7 1.3c15 4 28.3 9.2 43 15.1 11-10.8 19.7-23.6 28-35.8h10.4c-8 14.2-18.4 27-29.1 39.8 8.1 5.2 17.1 9.5 25.4 14.7 0.7 0.9 2.7 1.3 3.4 0.3 19.3-15 37-34.4 51-54.4q5.3-0.5 10.7 0zm-181.9 79.4l-1 2.2 14.3 6.3c8-3.9 15.7-8.9 23.4-13.5 12.7-8.8 26.4-19.4 37.1-31.5-12.7-6.2-26.4-10.8-40.8-14.1l-1 0.7c-9.3 17.4-20 33.8-32 49.9zm-33.7-4l5.7 0.7c5.6 0.3 10.9 2.6 16.7 1.9 12.6-16 24.3-33.1 33.7-50.8l-0.4-1c-17.7-4.2-36.7-6.2-55.7-6.5-1 19.3-0.7 36.4 0 55.7zm-64.4-49.8l-1.7 1.3c9.7 18 21 35.4 34.7 51.5 6.7-1.7 14.3-1.7 21.4-3.3l-0.4-55.4c-18.7 0-36.7 2.6-54 5.9zm-53.8 17.7v0.9c17.7 18 38.2 32.9 60.8 44 4.6-2.7 10.3-4.2 15-6.9-12-17-24.1-34.1-33.7-52.1l-1.4-0.4c-14 3.6-27.6 8.2-40.7 14.5zm49.7 50.8c-21.3-13.4-41-27.5-60-46.3-8.7 3.7-16.7 8.9-24.7 13.8v1c24 17.1 50 29.5 78.1 36.8 2.3-1.3 5-3.3 6.6-5.3zm119.5 7.5c-30.4-21.6-78.7-21.6-109.8-1.6-1 1-3.3 1.3-2.6 3 35.3 8.5 74.7 8.2 110.1 0.6 0.7-0.6 3.3 0 2.3-2zm92.2-40c-8-5.5-16.7-10.5-25.7-14.1-18.4 18-37.8 33.2-59.1 45.6l-0.7 1c2.4 2 4.7 3.9 7.4 5.3l15.6-4.9c22.1-8.3 43.8-18.1 62.5-32.9zm-370.5-338.5c46-69.8 119.8-110.8 199.9-117 4.3-0.4 8.7-0.7 12.3-0.4 9.7-1 20.8-0.6 29.8 0.4l0.6 0.6 0.4-0.6c79.7 6.2 153.5 49.2 198.2 116-3.3 1.7-6.6 0.3-10.7 0.3-14.6-20.9-32.3-39.3-52.7-54.7l-3.3 1.3-23.4 13.4v1.7c5.4 5.5 10.3 11.4 14.7 17.7 5.4 6.4 10.2 13.3 14.4 20.6-2.7 1.1-6.4 0.7-10 0.7-8.7-12.4-18.4-25.2-28.8-36-14.7 5.9-29 11.8-44.4 15.7l-0.6 0.7 8.3 18.9c-2.3 1.4-6.3 0.7-9.3 0.7l-9-17-1.7-0.4c-18.7 4.6-39.1 6.6-58.5 7.6-1.3 2.9 0 6.6-0.9 9.8h-9c-1-2.9 1-7.8-1.7-10.1-20.7-0.7-41.1-3-60.4-7.2-3.4 5.6-5.7 11.8-8.7 17.3-3.6 0.4-6 0.7-9.7 0l8.3-19-1.2-1.3c-14.8-3.9-28.8-9.5-43.1-14.8-10.7 10.9-19.7 23-28 35.1-3.4 0.7-7.8 1-10.1 0 7.7-13.7 18.4-26.6 28.7-39.3-8.3-5.2-18-9.9-26.7-15.4-9.3 5.9-17.4 13.8-26 22-9.8 10.1-18.8 21-27 32.4-3.4 1.3-7.4 0-10.7 0.3zm181.9-78.7l1-2.5c-5-2.4-10-4-15.1-6-21.3 11.2-40.7 25.6-59 43l-0.7 2c12.7 5.5 26.1 9.8 39.8 13.4l1.3-0.3c10-16.8 20-33.8 32.7-49.6zm33.4 3.7l-21.4-3c-13.7 16.1-25 33.5-34.7 51.4 9 3 20.4 4 29.3 5.3 9.4 0.7 17.8 2.3 27.1 1 0-18 0.7-37.7-0.3-54.7zm65.7 48.4c-8.6-17.9-21.4-34.7-34.4-51.1-6.7 1-14 2-20.7 3-0.3 18-0.6 37.3 0 54.8 18.6-0.1 37.1-2.3 55.1-6.7zm52.1-17.3c-17.7-17.7-38.7-33.1-60.4-43.9-5 2.6-10.7 4.6-15.4 7.1 12.7 16.8 24.1 34.2 34.4 51.6 14.3-3 27.7-8.3 40.7-13.8zm-49.7-49.5c21.1 12.2 41.7 27.6 59.4 45.2h1.7l23-12.7 0.7-1.3c-24.1-17.1-50.4-29.5-78.5-36.8-2.3 1.7-5.6 3.3-6.3 5.6zm-119.2-8.9c0.4 2.3 3.7 3 5.4 4.3 30.7 19.3 77.7 17.4 106.8-3.6v-0.7c-35.1-8.8-76.8-8.1-112.2 0zm-91.4 40.7v0.7c8 5.5 16.3 10.5 25.3 13.7 18.7-18.3 39.1-33.4 59.8-46.2-1.7-1.6-4-2.9-6-4.6-2.4-2-4.4 1-7 0.4v-0.7c-1.3 0-2 0.9-3 2-24.7 7.9-48.1 19.3-69.1 34.7zm148.5 256.5c0.7-3.6-3.3-6.5-6.3-7.9-30.1-10.1-61.1-17.7-90.8-28.2-21.7-8.2-44.4-25.6-48.8-49.2-5.6-24.9 1-53.1 22.7-68.8 33.4-24 84.8-22.4 121.5-7l15.4 8.3c1.6-4 0.3-9.6 1-13.5 15-0.6 33.4-0.6 48.4-0.3 0.4 27.2 1.3 50.8 0.6 77.7-16 0.6-33 0.4-47.7 0.4-13.6-21.4-37.7-29.2-61-32.5-11-0.3-25.7-3.6-32.1 7.2-0.6 3.6 1 6.6 3.7 8.8l6 3 80.8 23.3c27 6.9 53.7 32.2 57.4 60 3.6 28.6-9.7 55.2-34.8 68.9-34.4 17.7-79 14.4-113.7 0-5.7-3-11.4-6.2-17.1-8.8l-0.7 15.7-50 0.3c-1-26.2-0.7-56.7 0-83.3l45-0.3c2.7 3.3 4.4 7.2 7.1 10.5 22.7 23.6 56.7 30.1 88.1 21.6 2.3-1.3 5.3-3 5.3-5.9z"/>
		</g>
		<g id="&lt;Group&gt;">
			<path id="&lt;Path&gt;" class="s1" d="m612.2 475.1c-84.7 0-153.4 68.7-153.4 153.4 0 84.7 68.7 153.4 153.4 153.4 84.7 0 153.3-68.7 153.3-153.4 0-84.7-68.6-153.4-153.3-153.4z"/>
			<path id="&lt;Path&gt;" class="s2" d="m728.6 628.5c0 66-53.7 119.6-119.7 119.6-25.1 0-49.1-7.6-69.5-22.2-3.2-2.3-3.9-6.8-1.6-10 2.3-3.3 6.8-4 10-1.7 17.9 12.8 39.1 19.5 61.1 19.5 58.1 0 105.3-47.2 105.3-105.2 0-58.1-47.2-105.3-105.3-105.3-55.6 0-101.3 43.4-105 98.1h50.6c3.5-27 26.6-47.8 54.4-47.8 4 0 7.2 3.2 7.2 7.2v14.7h45.6c3.9 0 7.2 3.3 7.2 7.2 0 4-3.3 7.2-7.2 7.2h-45.6v37.3h45.6c3.9 0 7.2 3.2 7.2 7.2 0 4-3.3 7.2-7.2 7.2h-45.6v14.8c0 3.9-3.2 7.2-7.2 7.2-27.8 0-50.9-20.9-54.4-47.8h-58c-4 0-7.2-3.3-7.2-7.2 0-66 53.7-119.7 119.6-119.7 66 0 119.7 53.7 119.7 119.7z"/>
		</g>
	</g>
</svg>