<svg version="1.2" xmlns="http://www.w3.org/2000/svg" viewBox="0 0 800 800" width="800" height="800">
	<title>esb-connector-snmp-small-ai</title>
	<style>
		.s0 { fill: #955aa4;stroke: #955aa4;stroke-miterlimit:10;stroke-width: 16 } 
		.s1 { fill: #fefefe } 
	</style>
	<g id="Layer 1">
		<g id="&lt;Group&gt;">
			<g id="38 89 ">
				<g id="&lt;Group&gt;">
					<path id="&lt;Path&gt;" class="s0" d="m193.9 377.4h40.7v67.5h7.4q0.1 0 0.1 0h7.5v-67.5h41.6v-12.6h202.8v13.1h37.7v67h7.3q0 0 0 0h7.4v-67h44.2v-10.1c0-0.2 0.1-0.3 0.1-0.4q0-1.3 0-2.5h67.8v-15.6h-67.8q0-1 0-2c0-0.1-0.1-0.2-0.1-0.4v-9.8h-96.6v12.2h-93.7v-31.4h-8.1q-0.1 0-0.1 0h-8v31.4h-92.9v-13.1h-97.3v13.1h-75.1v15.6h75.1z"/>
					<path id="&lt;Compound Path&gt;" fill-rule="evenodd" class="s0" d="m360.1 260h-81.7v-150.3h227.8v150.3h-84.5v30.9h-61.6zm123-23.1v-104.1h-181.6v104.1z"/>
					<path id="&lt;Path&gt;" class="s0" d="m326.9 291.5h128v6.3h-128z"/>
					<path id="&lt;Compound Path&gt;" fill-rule="evenodd" class="s0" d="m105.6 461.9h227.8v150.3h-84.5v30.9h-61.6v-30.9h-81.7zm23.1 127.1h181.6v-104h-181.6z"/>
					<path id="&lt;Path&gt;" class="s0" d="m154.1 643.7h128v6.3h-128z"/>
					<path id="&lt;Compound Path&gt;" fill-rule="evenodd" class="s0" d="m682.8 458.4v150.3h-84.5v30.9h-61.7v-30.9h-81.7v-150.3zm-23.1 23.2h-181.6v104h181.6z"/>
					<path id="&lt;Path&gt;" class="s0" d="m503.4 640.2h128.1v6.4h-128.1z"/>
				</g>
			</g>
		</g>
		<g id="&lt;Group&gt;">
			<path id="&lt;Path&gt;" class="s1" d="m612.2 475.1c-84.7 0-153.4 68.7-153.4 153.4 0 84.7 68.7 153.4 153.4 153.4 84.7 0 153.3-68.7 153.3-153.4 0-84.7-68.6-153.4-153.3-153.4z"/>
			<path id="&lt;Path&gt;" class="s0" d="m728.6 628.5c0 66-53.7 119.6-119.7 119.6-25.1 0-49.1-7.6-69.5-22.2-3.2-2.3-3.9-6.8-1.6-10 2.3-3.3 6.8-4 10-1.7 17.9 12.8 39.1 19.5 61.1 19.5 58.1 0 105.3-47.2 105.3-105.2 0-58.1-47.2-105.3-105.3-105.3-55.6 0-101.3 43.4-105 98.1h50.6c3.5-27 26.6-47.8 54.4-47.8 4 0 7.2 3.2 7.2 7.2v14.7h45.6c3.9 0 7.2 3.3 7.2 7.2 0 4-3.3 7.2-7.2 7.2h-45.6v37.3h45.6c3.9 0 7.2 3.2 7.2 7.2 0 4-3.3 7.2-7.2 7.2h-45.6v14.8c0 3.9-3.2 7.2-7.2 7.2-27.8 0-50.9-20.9-54.4-47.8h-58c-4 0-7.2-3.3-7.2-7.2 0-66 53.7-119.7 119.6-119.7 66 0 119.7 53.7 119.7 119.7z"/>
		</g>
	</g>
</svg>