<svg version="1.2" xmlns="http://www.w3.org/2000/svg" viewBox="0 0 800 800" width="800" height="800">
	<title>esb-connector-sapbydesign-small-ai</title>
	<style>
		.s0 { fill: #fefefe } 
		.s1 { fill: #10bdef;stroke: #10bdef;stroke-miterlimit:10;stroke-width: 16 } 
		.s2 { fill: #10bdef } 
	</style>
	<g id="Layer 1">
		<g id="&lt;Group&gt;">
			<path id="&lt;Path&gt;" class="s0" d="m612.2 475.1c-84.7 0-153.4 68.7-153.4 153.4 0 84.7 68.7 153.4 153.4 153.4 84.7 0 153.3-68.7 153.3-153.4 0-84.7-68.6-153.4-153.3-153.4z"/>
			<path id="&lt;Path&gt;" class="s1" d="m728.6 628.5c0 66-53.7 119.6-119.7 119.6-25.1 0-49.1-7.6-69.5-22.2-3.2-2.3-3.9-6.8-1.6-10 2.3-3.3 6.8-4 10-1.7 17.9 12.8 39.1 19.5 61.1 19.5 58.1 0 105.3-47.2 105.3-105.2 0-58.1-47.2-105.3-105.3-105.3-55.6 0-101.3 43.4-105 98.1h50.6c3.5-27 26.6-47.8 54.4-47.8 4 0 7.2 3.2 7.2 7.2v14.7h45.6c3.9 0 7.2 3.3 7.2 7.2 0 4-3.3 7.2-7.2 7.2h-45.6v37.3h45.6c3.9 0 7.2 3.2 7.2 7.2 0 4-3.3 7.2-7.2 7.2h-45.6v14.8c0 3.9-3.2 7.2-7.2 7.2-27.8 0-50.9-20.9-54.4-47.8h-58c-4 0-7.2-3.3-7.2-7.2 0-66 53.7-119.7 119.6-119.7 66 0 119.7 53.7 119.7 119.7z"/>
		</g>
		<g id="&lt;Group&gt;">
			<path id="path3060" class="s2" d="m87.1 237.9v309.6h316.2l309.6-309.6h-625.8z"/>
			<path id="path3100" fill-rule="evenodd" class="s0" d="m458.5 296.2c58.9 0 86.5 20.9 86.5 66.7 0 41.1-28.5 65.5-76.6 65.5h-19.9v59.2h-91.2l-9.1-28.3c-9.6 3.2-20.5 4.9-32.1 4.9-11.8 0-23-1.8-32.9-5.2l-9.4 28.6h-55.9l6.2-16.6-2.3 2c-13.9 11.2-31.4 17.4-53 17.8h-3.2c-24.8 0-49.2-6.8-69.7-18.5l19-37.8c20.6 12.1 33.5 14.9 51 14.5 9.1-0.2 15.6-1.8 19.9-6.2 2.5-2.7 3.9-6 4-9.6 0.2-9.8-13.8-14.5-30.9-19.7-13.9-4.4-29.6-10.2-41.9-19.2-14.5-10.7-21.5-24.1-21.1-43 0.2-13.8 5.3-26.1 14.7-35.9 13.6-14 35.4-22.6 61.6-22.6h0.2c22.4 0.1 49.9 6.4 69.7 16.6l-21.4 37.2c-21.7-10.5-32.6-11.5-45.1-12.1-18.4-1-27.7 5.6-27.8 12.7-0.2 8.7 17.4 16.5 34 21.8 25.1 8 57.1 18.7 62 49.6l45.9-122.5h53.4l53.8 146.5v-146.5h61.6m-142.4 125.4c7 0 13.6-1.3 19.3-3.4l-19.1-61.7h-0.4l-19.5 61.6c5.8 2.2 12.5 3.5 19.7 3.5zm178.5-60.6c0-18.5-14.4-24.5-32.5-24.5h-13.6v49.6h13.6c18.1 0 32.5-6 32.5-25.1z"/>
		</g>
	</g>
</svg>