<svg version="1.2" xmlns="http://www.w3.org/2000/svg" viewBox="0 0 800 800" width="800" height="800">
	<title>esb-connector-servicenow-small-ai</title>
	<style>
		.s0 { fill: #82b6a1 } 
		.s1 { fill: #fefefe } 
		.s2 { fill: #81b5a1;stroke: #81b5a1;stroke-miterlimit:10;stroke-width: 16 } 
	</style>
	<g id="Layer 1">
		<g id="&lt;Group&gt;">
			<g id="&lt;Group&gt;">
				<path id="&lt;Path&gt;" class="s0" d="m255.5 499.7c32.9 32.9 32.9 86 0 118.9-33 33-86 33-119 0-32.9-32.9-32.9-86 0-118.9 33-32.9 86-32.9 119 0z"/>
				<path id="&lt;Path&gt;" class="s0" d="m663.5 501.5c32.9 33 32.9 86 0 119-33 32.9-86 32.9-119 0-32.9-33-32.9-86 0-119 33-32.9 86-32.9 119 0z"/>
				<path id="&lt;Path&gt;" class="s0" d="m458.6 501.5c32.9 33 32.9 86 0 119-33 32.9-86 32.9-119 0-32.9-33-32.9-86 0-119 33-32.9 87.8-32.9 119 0z"/>
				<path id="&lt;Path&gt;" class="s0" d="m352.4 69.7h95.2c0 65.9 27.4 126.3 69.5 170.2 43.9 43.9 104.3 69.5 170.2 69.5v95.2c-93.3 0-177.5-38.5-237.9-98.9-60.4-60.3-97-144.5-97-236z"/>
				<path id="&lt;Path&gt;" class="s0" d="m112.7 404.6v-95.2c65.9 0 126.3-27.4 170.2-69.5 43.9-43.9 69.5-104.3 69.5-170.2h95.2c0 93.3-38.5 177.5-98.8 237.9-60.4 60.4-144.6 97-236.1 97z"/>
			</g>
			<path id="&lt;Path&gt;" class="s1" d="m612.2 475.1c-84.7 0-153.4 68.7-153.4 153.4 0 84.7 68.7 153.4 153.4 153.4 84.7 0 153.3-68.7 153.3-153.4 0-84.7-68.6-153.4-153.3-153.4z"/>
			<path id="&lt;Path&gt;" class="s2" d="m728.6 628.5c0 66-53.7 119.6-119.7 119.6-25.1 0-49.1-7.6-69.5-22.2-3.2-2.3-3.9-6.8-1.6-10 2.3-3.3 6.8-4 10-1.7 17.9 12.8 39.1 19.5 61.1 19.5 58.1 0 105.3-47.2 105.3-105.2 0-58.1-47.2-105.3-105.3-105.3-55.6 0-101.3 43.4-105 98.1h50.6c3.5-27 26.6-47.8 54.4-47.8 4 0 7.2 3.2 7.2 7.2v14.7h45.6c3.9 0 7.2 3.3 7.2 7.2 0 4-3.3 7.2-7.2 7.2h-45.6v37.3h45.6c3.9 0 7.2 3.2 7.2 7.2 0 4-3.3 7.2-7.2 7.2h-45.6v14.8c0 3.9-3.2 7.2-7.2 7.2-27.8 0-50.9-20.9-54.4-47.8h-58c-4 0-7.2-3.3-7.2-7.2 0-66 53.7-119.7 119.6-119.7 66 0 119.7 53.7 119.7 119.7z"/>
		</g>
	</g>
</svg>