<svg version="1.2" xmlns="http://www.w3.org/2000/svg" viewBox="0 0 800 800" width="800" height="800">
	<title>esb-connector-googlefirebase-small-ai</title>
	<style>
		.s0 { fill: #f58966 } 
		.s1 { fill: #fefefe } 
		.s2 { fill: #f58966;stroke: #f58966;stroke-miterlimit:10;stroke-width: 16 } 
	</style>
	<g id="Layer 3">
		<path id="icon 1 " fill-rule="evenodd" class="s0" d="m170.1 502.1l67-429.3c2.3-14.7 22-18.1 28.9-5.1l72 134.8zm251.5 229.5c-13.9 7.7-31.2 7.7-45.1 0l-223-125.1 402.8-404c8.9-8.8 24.3-3.8 26.2 8.5l64 395.5zm-261.9-164.1l226.8-404.3c5.8-11.2 21.6-11.2 27.4 0l51.6 98.2z"/>
	</g>
	<g id="Layer 1">
		<g id="&lt;Group&gt;">
			<path id="&lt;Path&gt;" class="s1" d="m612.2 475.1c-84.7 0-153.4 68.7-153.4 153.4 0 84.7 68.7 153.4 153.4 153.4 84.7 0 153.3-68.7 153.3-153.4 0-84.7-68.6-153.4-153.3-153.4z"/>
			<path id="&lt;Path&gt;" class="s2" d="m728.6 628.5c0 66-53.7 119.6-119.7 119.6-25.1 0-49.1-7.6-69.5-22.2-3.2-2.3-3.9-6.8-1.6-10 2.3-3.3 6.8-4 10-1.7 17.9 12.8 39.1 19.5 61.1 19.5 58.1 0 105.3-47.2 105.3-105.2 0-58.1-47.2-105.3-105.3-105.3-55.6 0-101.3 43.4-105 98.1h50.6c3.5-27 26.6-47.8 54.4-47.8 4 0 7.2 3.2 7.2 7.2v14.7h45.6c3.9 0 7.2 3.3 7.2 7.2 0 4-3.3 7.2-7.2 7.2h-45.6v37.3h45.6c3.9 0 7.2 3.2 7.2 7.2 0 4-3.3 7.2-7.2 7.2h-45.6v14.8c0 3.9-3.2 7.2-7.2 7.2-27.8 0-50.9-20.9-54.4-47.8h-58c-4 0-7.2-3.3-7.2-7.2 0-66 53.7-119.7 119.6-119.7 66 0 119.7 53.7 119.7 119.7z"/>
		</g>
	</g>
</svg>