<svg version="1.2" xmlns="http://www.w3.org/2000/svg" viewBox="0 0 800 800" width="800" height="800">
	<title>esb-connector-kafka-small-ai</title>
	<style>
		.s0 { fill: #7f8d8d } 
		.s1 { fill: #fefefe } 
		.s2 { fill: #7f8d8d;stroke: #7f8d8d;stroke-miterlimit:10;stroke-width: 16 } 
	</style>
	<g id="Layer 2">
		<path id="&lt;Compound Path&gt;" fill-rule="evenodd" class="s0" d="m517 435.5c47.4 0.1 85.8 38.5 85.9 85.9-0.1 47.4-38.5 85.8-85.9 85.9-47.4-0.1-85.8-38.5-85.9-85.9 0-8.2 1.2-16.3 3.5-24.2l-40.6-28.7c-16.7 20.4-40.5 34.7-67.5 39.2v52c38.5 8.5 67.4 42.8 67.4 83.8-0.1 47.4-38.5 85.9-85.9 85.9-47.4-0.1-85.8-38.5-85.9-85.9 0-41 29-75.6 67.5-83.8v-52c-52.4-8.8-92.5-54.4-92.5-109.2 0-54.6 39.7-100.1 91.7-109v-49.4c-38.1-8.8-66.7-42.9-66.7-83.6 0.1-47.4 38.5-85.9 85.9-85.9 47.4 0 85.8 38.4 85.9 85.8 0 40.6-28.5 75.6-68.2 84v48.6c27.6 4.5 51.9 19.1 68.7 40l40.3-28.3c-2.3-8-3.6-15.9-3.6-24.4 0.1-47.4 38.5-85.8 85.9-85.9 47.4 0.1 85.8 38.5 85.9 85.9-0.1 47.4-38.5 85.8-85.9 85.9-24.6 0-48-10.6-64.3-29.1l-40.2 28.2c4.3 11.9 6.5 24.5 6.5 37.1 0 13.3-2.5 26-6.8 37.8l40.4 28.5c16.3-18.5 39.7-29.2 64.4-29.2zm-41.6-159.2c0 23 18.6 41.6 41.6 41.6 23 0 41.6-18.6 41.6-41.6 0-22.9-18.6-41.6-41.6-41.6-23 0-41.6 18.7-41.6 41.6zm-167.4-78.2c23 0 41.7-18.7 41.7-41.6 0-23-18.7-41.7-41.7-41.7-22.9 0-41.6 18.7-41.6 41.7 0 22.9 18.7 41.6 41.6 41.6zm0 403.8c-23 0-41.6 18.7-41.6 41.7 0 22.9 18.7 41.6 41.6 41.6 23 0 41.6-18.7 41.6-41.6 0-23-18.6-41.7-41.6-41.7zm58.1-203.4c0-32-26.1-58-58.1-58-32 0-58.1 26-58.1 58 0 32 26.1 58.1 58.1 58.1 32 0 58.1-26.1 58.1-58.1zm192.5 122.9c0-22.9-18.7-41.6-41.6-41.6-23 0-41.7 18.7-41.7 41.6 0 23 18.7 41.7 41.7 41.7 22.9 0 41.6-18.7 41.6-41.7z"/>
	</g>
	<g id="Layer 1">
		<g id="&lt;Group&gt;">
			<path id="&lt;Path&gt;" class="s1" d="m612.2 475.1c-84.7 0-153.4 68.7-153.4 153.4 0 84.7 68.7 153.4 153.4 153.4 84.7 0 153.3-68.7 153.3-153.4 0-84.7-68.6-153.4-153.3-153.4z"/>
			<path id="&lt;Path&gt;" class="s2" d="m728.6 628.5c0 66-53.7 119.6-119.7 119.6-25.1 0-49.1-7.6-69.5-22.2-3.2-2.3-3.9-6.8-1.6-10 2.3-3.3 6.8-4 10-1.7 17.9 12.8 39.1 19.5 61.1 19.5 58.1 0 105.3-47.2 105.3-105.2 0-58.1-47.2-105.3-105.3-105.3-55.6 0-101.3 43.4-105 98.1h50.6c3.5-27 26.6-47.8 54.4-47.8 4 0 7.2 3.2 7.2 7.2v14.7h45.6c3.9 0 7.2 3.3 7.2 7.2 0 4-3.3 7.2-7.2 7.2h-45.6v37.3h45.6c3.9 0 7.2 3.2 7.2 7.2 0 4-3.3 7.2-7.2 7.2h-45.6v14.8c0 3.9-3.2 7.2-7.2 7.2-27.8 0-50.9-20.9-54.4-47.8h-58c-4 0-7.2-3.3-7.2-7.2 0-66 53.7-119.7 119.6-119.7 66 0 119.7 53.7 119.7 119.7z"/>
		</g>
	</g>
</svg>