<svg version="1.2" xmlns="http://www.w3.org/2000/svg" viewBox="0 0 800 800" width="800" height="800">
	<title>esb-connector-elasticsearch-small-ai</title>
	<style>
		.s0 { fill: #23bab0 } 
		.s1 { fill: #fefefe } 
		.s2 { fill: #23bab0;stroke: #23bab0;stroke-miterlimit:10;stroke-width: 16 } 
	</style>
	<g id="Layer 1">
		<g id="&lt;Group&gt;">
			<path id="&lt;Path&gt;" class="s0" d="m123.1 400c0 26.9 3.7 52.9 10.2 77.8h378.7c43 0 77.8-34.8 77.8-77.8 0-43-34.8-77.8-77.8-77.8h-378.7c-6.5 24.9-10.2 50.9-10.2 77.8z"/>
			<path id="&lt;Path&gt;" class="s0" d="m646.7 237.8c10.8-10 21-20.7 30.2-32.3-57-71.1-144.4-116.7-242.7-116.7-122.9 0-228.7 71.5-279.2 175.1h425.3c24.6 0 48.3-9.4 66.4-26.1z"/>
			<path id="&lt;Path&gt;" class="s0" d="m580.3 536.1h-425.3c50.5 103.6 156.3 175.1 279.2 175.1 98.3 0 185.7-45.6 242.7-116.7-9.2-11.6-19.4-22.3-30.2-32.3-18.1-16.7-41.8-26.1-66.4-26.1z"/>
		</g>
		<g id="&lt;Group&gt;">
			<path id="&lt;Path&gt;" class="s1" d="m612.2 475.1c-84.7 0-153.4 68.7-153.4 153.4 0 84.7 68.7 153.4 153.4 153.4 84.7 0 153.3-68.7 153.3-153.4 0-84.7-68.6-153.4-153.3-153.4z"/>
			<path id="&lt;Path&gt;" class="s2" d="m728.6 628.5c0 66-53.7 119.6-119.7 119.6-25.1 0-49.1-7.6-69.5-22.2-3.2-2.3-3.9-6.8-1.6-10 2.3-3.3 6.8-4 10-1.7 17.9 12.8 39.1 19.5 61.1 19.5 58.1 0 105.3-47.2 105.3-105.2 0-58.1-47.2-105.3-105.3-105.3-55.6 0-101.3 43.4-105 98.1h50.6c3.5-27 26.6-47.8 54.4-47.8 4 0 7.2 3.2 7.2 7.2v14.7h45.6c3.9 0 7.2 3.3 7.2 7.2 0 4-3.3 7.2-7.2 7.2h-45.6v37.3h45.6c3.9 0 7.2 3.2 7.2 7.2 0 4-3.3 7.2-7.2 7.2h-45.6v14.8c0 3.9-3.2 7.2-7.2 7.2-27.8 0-50.9-20.9-54.4-47.8h-58c-4 0-7.2-3.3-7.2-7.2 0-66 53.7-119.7 119.6-119.7 66 0 119.7 53.7 119.7 119.7z"/>
		</g>
	</g>
</svg>