<svg version="1.2" xmlns="http://www.w3.org/2000/svg" viewBox="0 0 800 800" width="800" height="800">
	<title>esb-connector-smpp-small-ai</title>
	<style>
		.s0 { fill: #20b898 } 
		.s1 { fill: #fefefe } 
		.s2 { fill: #20b899;stroke: #20b899;stroke-miterlimit:10;stroke-width: 16 } 
	</style>
	<g id="Layer 1">
		<path id="&lt;Compound Path&gt;" fill-rule="evenodd" class="s0" d="m114 475.5v-305c0-33.2 26.5-60.2 59.1-60.2h453.8c32.6 0 59.1 27 59.1 60.2v305c0 33.1-26.5 60.1-59.1 60.1h-64.7v146.9l-178.9-146.9h-210.2c-32.6 0-59.1-27-59.1-60.1zm441.3-125.7c0 5.7-4.4 9.3-14.9 9.3-10.2 0-23.4-4.5-29.8-8.4l-6.1 24.8c8.4 4.6 21.4 7.7 35.9 7.7 31.9 0 48.3-15.2 48.3-35.9-0.2-16.4-9.1-27.1-30.3-34.4-13.6-4.8-18-7.5-18-12.8 0-5.7 4.8-9.1 13.3-9.1 9.5 0 19.1 3.7 24.1 6.4l6.1-23.9c-6.8-3.4-18.4-6.4-31.4-6.4-27.5 0-45.3 15.7-45.3 36.4-0.2 13.3 8.7 25.8 31.7 33.5 12.9 4.3 16.4 7.1 16.4 12.8zm-212-80.2h-29.2c0.5 9.8 0.9 21.7 0.9 35.5v75.9h33.7v-64.9c0-2.8 0.3-6 1.4-8.7 2-5.7 7.3-12.5 16.2-12.5 10.9 0 15.9 9.5 15.9 23.7v62.4h33.7v-65.2c0-2.7 0.5-6.3 1.4-8.8 2.3-6.7 8-12.1 15.9-12.1 11.2 0 16.4 9.3 16.4 25.5v60.6h33.7v-65.6c0-33.3-16.1-48.3-37.5-48.3-8.3 0-15.1 1.8-21.2 5.5-5.3 3.1-10.3 7.7-14.4 13.4h-0.4c-4.8-11.6-16.2-18.9-30.6-18.9-19.1 0-28.9 10.5-33.7 17.5h-0.6l-1.6-15zm-82.7 80.2c0 5.7-4.3 9.3-14.8 9.3-10.2 0-23.4-4.5-29.8-8.4l-6.2 24.8c8.5 4.6 21.4 7.7 36 7.7 31.9 0 48.3-15.2 48.3-35.9-0.2-16.4-9.1-27.1-30.3-34.4-13.7-4.8-18-7.6-18-12.8 0-5.7 4.8-9.1 13.2-9.1 9.6 0 19.2 3.6 24.2 6.4l6.1-23.9c-6.8-3.4-18.4-6.4-31.4-6.4-27.6 0-45.3 15.7-45.3 36.4-0.3 13.2 8.6 25.8 31.6 33.5 13 4.3 16.4 7.1 16.4 12.8z"/>
		<g id="&lt;Group&gt;">
			<path id="&lt;Path&gt;" class="s1" d="m612.2 475.1c-84.7 0-153.4 68.7-153.4 153.4 0 84.7 68.7 153.4 153.4 153.4 84.7 0 153.3-68.7 153.3-153.4 0-84.7-68.6-153.4-153.3-153.4z"/>
			<path id="&lt;Path&gt;" class="s2" d="m728.6 628.5c0 66-53.7 119.6-119.7 119.6-25.1 0-49.1-7.6-69.5-22.2-3.2-2.3-3.9-6.8-1.6-10 2.3-3.3 6.8-4 10-1.7 17.9 12.8 39.1 19.5 61.1 19.5 58.1 0 105.3-47.2 105.3-105.2 0-58.1-47.2-105.3-105.3-105.3-55.6 0-101.3 43.4-105 98.1h50.6c3.5-27 26.6-47.8 54.4-47.8 4 0 7.2 3.2 7.2 7.2v14.7h45.6c3.9 0 7.2 3.3 7.2 7.2 0 4-3.3 7.2-7.2 7.2h-45.6v37.3h45.6c3.9 0 7.2 3.2 7.2 7.2 0 4-3.3 7.2-7.2 7.2h-45.6v14.8c0 3.9-3.2 7.2-7.2 7.2-27.8 0-50.9-20.9-54.4-47.8h-58c-4 0-7.2-3.3-7.2-7.2 0-66 53.7-119.7 119.6-119.7 66 0 119.7 53.7 119.7 119.7z"/>
		</g>
	</g>
</svg>