<svg version="1.2" xmlns="http://www.w3.org/2000/svg" viewBox="0 0 800 800" width="800" height="800">
	<title>esb-connector-file-ai</title>
	<style>
		.s0 { fill: #20b899;stroke: #20b899;stroke-miterlimit:10;stroke-width: 16 } 
		.s1 { fill: #fefefe } 
	</style>
	<g id="Layer 1">
		<g id="&lt;Group&gt;">
			<path id="&lt;Compound Path&gt;" fill-rule="evenodd" class="s0" d="m666.1 229v506.9h-524.6v-669.7h361.8zm-22.3 484.6v-468.8h-156.3v-156.3h-323.6v625.1zm-134-491.1h118.2l-118.2-118.2z"/>
			<path id="&lt;Path&gt;" class="s0" d="m253.1 255.9h100.5c6.2 0 11.2-4.9 11.2-11.1 0-6.2-5-11.2-11.2-11.2h-100.5c-6.1 0-11.1 5-11.1 11.2 0 6.2 5 11.1 11.1 11.1z"/>
			<path id="&lt;Path&gt;" class="s0" d="m442.9 479.2h-189.8c-6.1 0-11.1 5-11.1 11.1 0 6.2 5 11.2 11.1 11.2h189.8c6.1 0 11.1-5 11.1-11.2 0-6.1-5-11.1-11.1-11.1z"/>
			<path id="&lt;Path&gt;" class="s0" d="m554.5 401h-78.1c-6.2 0-11.2 5-11.2 11.2 0 6.2 5 11.2 11.2 11.2h78.1c6.2 0 11.2-5 11.2-11.2 0-6.2-5-11.2-11.2-11.2z"/>
			<path id="&lt;Path&gt;" class="s0" d="m253.1 345.2h55.9c6.1 0 11.1-5 11.1-11.1 0-6.2-5-11.2-11.1-11.2h-55.9c-6.1 0-11.1 5-11.1 11.2 0 6.1 5 11.1 11.1 11.1z"/>
			<path id="&lt;Path&gt;" class="s0" d="m420.6 345.2h78.1c6.1 0 11.1-5 11.1-11.1 0-6.2-5-11.2-11.1-11.2h-78.1c-6.2 0-11.2 5-11.2 11.2 0 6.1 5 11.1 11.2 11.1z"/>
			<path id="&lt;Path&gt;" class="s0" d="m353.6 334.1c0 2.9 1.2 5.8 3.2 7.9 2.2 2 5.1 3.2 8 3.2 2.9 0 5.8-1.2 7.9-3.2 2-2.1 3.2-5 3.2-7.9 0-2.9-1.2-5.8-3.2-8-4.1-4.1-11.6-4.1-15.9 0-2 2.2-3.2 5.1-3.2 8z"/>
			<path id="&lt;Path&gt;" class="s0" d="m309 401c-6.2 0-11.2 5-11.2 11.2 0 6.2 5 11.2 11.2 11.2h111.6c6.1 0 11.1-5 11.1-11.2 0-6.2-5-11.2-11.1-11.2z"/>
			<path id="&lt;Path&gt;" class="s0" d="m253.1 423.4c2.9 0 5.8-1.3 8-3.3 2-2.1 3.2-5 3.2-7.9 0-2.9-1.2-5.8-3.2-7.9-4.2-4.2-11.7-4.2-15.9 0-2 2.1-3.2 4.9-3.2 7.9 0 2.9 1.2 5.8 3.2 7.9 2.1 2 5 3.3 7.9 3.3z"/>
			<path id="&lt;Path&gt;" class="s0" d="m554.5 557.3h-78.1c-6.2 0-11.2 5-11.2 11.2 0 6.1 5 11.1 11.2 11.1h78.1c6.2 0 11.2-5 11.2-11.1 0-6.2-5-11.2-11.2-11.2z"/>
			<path id="&lt;Path&gt;" class="s0" d="m420.6 557.3h-111.6c-6.2 0-11.2 5-11.2 11.2 0 6.1 5 11.1 11.2 11.1h111.6c6.1 0 11.1-5 11.1-11.1 0-6.2-5-11.2-11.1-11.2z"/>
			<path id="&lt;Path&gt;" class="s0" d="m245.2 560.5c-2 2-3.2 4.9-3.2 8 0 3 1.1 5.8 3.2 7.9 2.1 2 5 3.2 7.9 3.2 3.1 0 5.8-1.2 8-3.2 2-2.1 3.2-5 3.2-7.9 0-3.1-1.2-5.9-3.2-7.9-4.2-4.2-11.6-4.2-15.9-0.1z"/>
			<path id="&lt;Path&gt;" class="s0" d="m546.6 326.1c-2 2.2-3.3 5.1-3.3 8 0 2.9 1.3 5.8 3.3 7.9 2.1 2 5 3.2 7.9 3.2 2.9 0 5.8-1.2 7.9-3.2 2.1-2.1 3.3-5 3.3-7.9 0-2.9-1.2-5.8-3.3-8-4.2-4.1-11.6-4.1-15.8 0z"/>
			<path id="&lt;Path&gt;" class="s0" d="m506.6 498.2c2-2.1 3.2-5 3.2-7.9 0-2.9-1.2-5.8-3.2-7.9-4.2-4.1-11.7-4.1-15.8 0-2 2.1-3.3 5-3.3 7.9 0 2.9 1.3 5.8 3.3 7.9 2.1 2.2 4.9 3.3 7.9 3.3 3 0 5.8-1.2 7.9-3.3z"/>
			<path id="&lt;Path&gt;" class="s0" d="m546.6 482.4c-2 2.1-3.3 5-3.3 7.9 0 2.9 1.3 5.8 3.3 7.9 2.1 2.1 4.9 3.3 7.9 3.3 3 0 5.8-1.2 7.9-3.3 2-2.1 3.3-5 3.3-7.9 0-2.9-1.3-5.8-3.3-7.9-4.1-4.1-11.7-4.1-15.8 0z"/>
		</g>
		<g id="&lt;Group&gt;">
			<path id="&lt;Path&gt;" class="s1" d="m612.2 475.1c-84.7 0-153.4 68.7-153.4 153.4 0 84.7 68.7 153.4 153.4 153.4 84.7 0 153.3-68.7 153.3-153.4 0-84.7-68.6-153.4-153.3-153.4z"/>
			<path id="&lt;Path&gt;" class="s0" d="m728.6 628.5c0 66-53.7 119.6-119.7 119.6-25.1 0-49.1-7.6-69.5-22.2-3.2-2.3-3.9-6.8-1.6-10 2.3-3.3 6.8-4 10-1.7 17.9 12.8 39.1 19.5 61.1 19.5 58.1 0 105.3-47.2 105.3-105.2 0-58.1-47.2-105.3-105.3-105.3-55.6 0-101.3 43.4-105 98.1h50.6c3.5-27 26.6-47.8 54.4-47.8 4 0 7.2 3.2 7.2 7.2v14.7h45.6c3.9 0 7.2 3.3 7.2 7.2 0 4-3.3 7.2-7.2 7.2h-45.6v37.3h45.6c3.9 0 7.2 3.2 7.2 7.2 0 4-3.3 7.2-7.2 7.2h-45.6v14.8c0 3.9-3.2 7.2-7.2 7.2-27.8 0-50.9-20.9-54.4-47.8h-58c-4 0-7.2-3.3-7.2-7.2 0-66 53.7-119.7 119.6-119.7 66 0 119.7 53.7 119.7 119.7z"/>
		</g>
	</g>
</svg>