<svg version="1.2" xmlns="http://www.w3.org/2000/svg" viewBox="0 0 800 800" width="800" height="800">
	<title>esb-connector-gmail-small-ai</title>
	<style>
		.s0 { fill: #e64c3b } 
		.s1 { fill: #fefefe } 
		.s2 { fill: #e74c3b;stroke: #e74c3b;stroke-miterlimit:10;stroke-width: 16 } 
	</style>
	<g id="Layer 3">
		<g id="&lt;Group&gt;">
			<g id="&lt;Group&gt;">
				<path id="&lt;Compound Path&gt;" fill-rule="evenodd" class="s0" d="m647.8 260.6v278.8c0 25.7-20.8 46.5-46.4 46.5h-402.8c-25.6 0-46.4-20.8-46.4-46.5v-278.8c0-25.7 20.8-46.5 46.4-46.5h402.8c25.6 0 46.4 20.8 46.4 46.5zm-394.5-15.5l146.7 115.8 146.7-115.8zm332.5 51l-185.9 143-185.9-143v258.8h371.8z"/>
			</g>
		</g>
	</g>
	<g id="Layer 1">
		<g id="&lt;Group&gt;">
			<path id="&lt;Path&gt;" class="s1" d="m612.2 475.1c-84.7 0-153.4 68.7-153.4 153.4 0 84.7 68.7 153.4 153.4 153.4 84.7 0 153.3-68.7 153.3-153.4 0-84.7-68.6-153.4-153.3-153.4z"/>
			<path id="&lt;Path&gt;" class="s2" d="m728.6 628.5c0 66-53.7 119.6-119.7 119.6-25.1 0-49.1-7.6-69.5-22.2-3.2-2.3-3.9-6.8-1.6-10 2.3-3.3 6.8-4 10-1.7 17.9 12.8 39.1 19.5 61.1 19.5 58.1 0 105.3-47.2 105.3-105.2 0-58.1-47.2-105.3-105.3-105.3-55.6 0-101.3 43.4-105 98.1h50.6c3.5-27 26.6-47.8 54.4-47.8 4 0 7.2 3.2 7.2 7.2v14.7h45.6c3.9 0 7.2 3.3 7.2 7.2 0 4-3.3 7.2-7.2 7.2h-45.6v37.3h45.6c3.9 0 7.2 3.2 7.2 7.2 0 4-3.3 7.2-7.2 7.2h-45.6v14.8c0 3.9-3.2 7.2-7.2 7.2-27.8 0-50.9-20.9-54.4-47.8h-58c-4 0-7.2-3.3-7.2-7.2 0-66 53.7-119.7 119.6-119.7 66 0 119.7 53.7 119.7 119.7z"/>
		</g>
	</g>
</svg>