<svg version="1.2" xmlns="http://www.w3.org/2000/svg" viewBox="0 0 800 800" width="800" height="800">
	<title>esb-connector-googlespreadsheet-small-ai</title>
	<style>
		.s0 { fill: #22a565 } 
		.s1 { fill: #23a566;stroke: #fefefe;stroke-miterlimit:10;stroke-width: 16 } 
		.s2 { fill: #fefefe } 
		.s3 { fill: #22a565;stroke: #22a565;stroke-miterlimit:10;stroke-width: 16 } 
	</style>
	<g id="Layer 1">
		<g id="&lt;Group&gt;">
			<path id="&lt;Path&gt;" class="s0" d="m635.9 685.3c0 20.9-17 37.9-38 37.9h-395.8c-21 0-38-17-38-37.9v-580.5c0-21 17-38 38-38h254.5l179.3 183.7z"/>
			<path id="&lt;Path&gt;" class="s1" d="m635.9 250.2h-141.7c-20.9 0-37.9-17-37.9-37.9v-145.6z"/>
			<path id="&lt;Compound Path&gt;" fill-rule="evenodd" class="s2" d="m522.7 601.8h-245.4v-212.5h245.4zm-107.5-182.1v38h77.1v-38zm0 60.7v35.4h77.2v-35.4zm0 58.2v32.9h77.1v-32.9zm-30.3 32.9v-32.9h-77.2v32.9zm0-55.7v-35.4h-77.1v35.4zm0-58.1v-38h-77.2v38z"/>
		</g>
		<g id="&lt;Group&gt;">
			<path id="&lt;Path&gt;" class="s2" d="m612.2 475.1c-84.7 0-153.4 68.7-153.4 153.4 0 84.7 68.7 153.4 153.4 153.4 84.7 0 153.3-68.7 153.3-153.4 0-84.7-68.6-153.4-153.3-153.4z"/>
			<path id="&lt;Path&gt;" class="s3" d="m728.6 628.5c0 66-53.7 119.6-119.7 119.6-25.1 0-49.1-7.6-69.5-22.2-3.2-2.3-3.9-6.8-1.6-10 2.3-3.3 6.8-4 10-1.7 17.9 12.8 39.1 19.5 61.1 19.5 58.1 0 105.3-47.2 105.3-105.2 0-58.1-47.2-105.3-105.3-105.3-55.6 0-101.3 43.4-105 98.1h50.6c3.5-27 26.6-47.8 54.4-47.8 4 0 7.2 3.2 7.2 7.2v14.7h45.6c3.9 0 7.2 3.3 7.2 7.2 0 4-3.3 7.2-7.2 7.2h-45.6v37.3h45.6c3.9 0 7.2 3.2 7.2 7.2 0 4-3.3 7.2-7.2 7.2h-45.6v14.8c0 3.9-3.2 7.2-7.2 7.2-27.8 0-50.9-20.9-54.4-47.8h-58c-4 0-7.2-3.3-7.2-7.2 0-66 53.7-119.7 119.6-119.7 66 0 119.7 53.7 119.7 119.7z"/>
		</g>
	</g>
</svg>