<svg version="1.2" xmlns="http://www.w3.org/2000/svg" viewBox="0 0 800 800" width="800" height="800">
	<title>esb-connector-amazons-sqs-ai</title>
	<style>
		tspan { white-space:pre } 
		.s0 { fill: #f79820 } 
		.t1 { font-size: 6px;fill: #ff962d;font-weight: bold;font-family: "Calibre" } 
		.s2 { fill: #fefefe } 
		.s3 { fill: #f79820;stroke: #f79820;stroke-miterlimit:10;stroke-width: 16 } 
	</style>
	<g id="Layer 1">
		<path id="&lt;Compound Path&gt;" fill-rule="evenodd" class="s0" d="m251.5 169.7c-0.1 5.7 0.6 11.4 2.1 16.9 1.7 4.8 3.8 9.3 6.1 13.7 0.8 1.3 1.3 2.8 1.3 4.3-0.2 2.3-1.5 4.6-3.6 5.7l-11.9 8c-1.5 0.9-3.2 1.7-5 1.7-2-0.2-4.1-1.2-5.6-2.7-2.5-2.6-5-5.7-6.9-8.9-1.9-3.2-3.8-6.8-5.8-11.2q-22.2 26.2-55.8 26.2c-15.9 0-28.6-4.6-37.9-13.7-9.3-9.1-14-21.2-14-36.4 0-16.1 5.7-29.1 17.2-39 11.6-9.9 26.9-14.8 46.5-14.8 6.6 0 13.4 0.6 20.1 1.5 7 1 14.2 2.5 21.8 4.2v-13.8c0-14.5-3.1-24.5-8.9-30.4-5.9-5.9-16.3-8.7-30.9-8.7-6.9 0-13.9 0.8-20.5 2.5-7 1.7-13.9 3.8-20.5 6.4-2.1 1-4.3 1.7-6.6 2.5-1 0.4-2.1 0.5-3.1 0.5-2.6 0-3.9-1.9-3.9-5.8v-9.3c-0.2-2.3 0.3-4.6 1.3-6.7 1.5-1.7 3.2-3 5.3-3.9q11.4-5.7 23.9-8.6c9.7-2.4 19.7-3.6 29.6-3.6 22.5 0 39 5.1 49.6 15.4 10.6 10.2 15.8 25.8 15.8 46.6v61.4zm-77 28.9c6.6 0 13.3-1.2 19.5-3.4 7-2.5 13.1-6.7 18-12.2 3.1-3.4 5.3-7.6 6.5-12.1 1.3-5.3 1.9-11 1.9-16.5v-8c-5.7-1.3-11.6-2.4-17.5-3.2-5.8-0.8-11.9-1.1-17.8-1.1-12.7 0-22 2.4-28.2 7.6-6.3 5.1-9.3 12.3-9.3 21.8 0 8.9 2.2 15.5 7 20 4.7 4.6 11.2 7.1 19.9 7.1zm152.2 20.4c-2.4 0.2-5.1-0.3-7.2-1.9-1.9-2-3.4-4.5-4-7.4l-44.5-146.5c-1-2.5-1.5-4.9-1.7-7.6-0.2-2.3 1.3-4.3 3.6-4.7h19.7c3.6 0 6.1 0.5 7.4 1.9 1.3 1.3 2.7 3.8 3.8 7.4l31.7 125.5 29.5-125.5c1-3.8 2.1-6.3 3.6-7.4 2.3-1.4 5-2.1 7.6-1.9h15.2c3.6 0 6 0.5 7.6 1.9 1.9 2.1 3.2 4.5 3.6 7.4l29.9 127 32.8-127c0.6-2.9 1.9-5.3 3.8-7.4 2.3-1.4 4.7-2.1 7.4-1.9h17.6c2.3-0.4 4.4 1.3 4.8 3.6v1.1c0 1-0.2 2.1-0.4 3.1-0.4 1.7-0.8 3.2-1.3 4.7l-45.7 146.5q-1.7 5.7-4 7.4c-2.1 1.4-4.7 2.1-7.2 1.9h-16.3c-3.6 0-6.1-0.5-7.6-1.9-1.9-2.1-3.2-4.7-3.6-7.6l-29.4-122.2-29.2 122.1c-0.4 2.8-1.7 5.5-3.6 7.5-2.3 1.6-4.9 2.1-7.6 1.9zm243.6 5.2c-9.8 0-19.7-1.2-29.1-3.5-9.5-2.2-16.9-4.7-21.9-7.5-2.4-1.2-4.5-3.1-5.8-5.3-0.8-1.8-1.2-3.5-1.2-5.4v-9.6c0-4 1.6-5.9 4.4-5.9q1.7 0 3.4 0.6c1.1 0.3 2.9 1.1 4.7 1.9 6.7 3 13.7 5.1 20.9 6.6 7.4 1.5 15 2.3 22.6 2.3 11.9 0 21.2-2.1 27.6-6.3 6.3-3.8 10.1-10.6 9.9-18 0.2-4.9-1.7-9.7-5.1-13.3-3.4-3.6-9.9-6.8-19.2-9.8l-27.5-8.6c-13.8-4.3-24-10.8-30.3-19.3-6.1-8-9.5-17.4-9.5-27.5-0.2-7.4 1.5-14.6 5.1-21 3.5-6.1 8-11.4 13.7-15.6 5.9-4.5 12.5-7.7 19.7-9.8 7.8-2.3 15.8-3.4 23.9-3.3 4.2 0 8.5 0.2 12.7 0.8 4.4 0.6 8.3 1.3 12.3 2.1 4 0.8 7.4 1.9 10.8 3q4.3 1.4 8 3.4c2.3 1.2 4.2 2.7 5.7 4.8q2 2.8 1.7 6.2v8.9c0 4-1.5 6.1-4.4 6.1-2.4-0.4-4.9-1.1-7.2-2.3-11.3-5.1-23.9-7.5-36.4-7.4-10.8 0-19.3 1.7-25.2 5.4-5.9 3.6-8.9 9.1-8.9 16.8-0.2 5.1 1.9 10.1 5.7 13.5 3.8 3.6 10.8 7.2 20.8 10.4l27 8.5c13.6 4.4 23.5 10.5 29.3 18.2 5.9 7.6 9 17.1 8.8 26.6 0.2 7.6-1.5 15.2-5 22-3.4 6.4-8.1 12.1-13.8 16.7-6.3 4.9-13.5 8.5-21 10.6-8.8 2.6-17.9 4-27.2 4zm35.9 92.1c-62.4 46.1-153 70.5-230.9 70.5-109.2 0-207.6-40.4-281.9-107.5-5.9-5.3-0.6-12.5 6.4-8.3 80.4 46.6 179.5 74.9 282.1 74.9 73.9-0.4 147.1-15.4 215.2-44 10.4-4.8 19.3 6.8 9.1 14.4zm26-29.6c-8-10.2-52.8-4.9-73-2.4-6.1 0.7-7.1-4.6-1.6-8.6 35.7-25 94.3-17.8 101.1-9.5 6.8 8.4-1.9 67.2-35.3 95.2-5.1 4.4-10 2.1-7.7-3.6 7.5-18.8 24.4-61 16.5-71.1z"/>
		<text id="SQS
" style="transform: matrix(32,0,0,32,205.137,561.333)" >
			<tspan x="0" y="0" class="t1">SQS
</tspan>
		</text>
		<g id="&lt;Group&gt;">
			<path id="&lt;Path&gt;" class="s2" d="m612.2 475.1c-84.7 0-153.4 68.7-153.4 153.4 0 84.7 68.7 153.4 153.4 153.4 84.7 0 153.3-68.7 153.3-153.4 0-84.7-68.6-153.4-153.3-153.4z"/>
			<path id="&lt;Path&gt;" class="s3" d="m728.6 628.5c0 66-53.7 119.6-119.7 119.6-25.1 0-49.1-7.6-69.5-22.2-3.2-2.3-3.9-6.8-1.6-10 2.3-3.3 6.8-4 10-1.7 17.9 12.8 39.1 19.5 61.1 19.5 58.1 0 105.3-47.2 105.3-105.2 0-58.1-47.2-105.3-105.3-105.3-55.6 0-101.3 43.4-105 98.1h50.6c3.5-27 26.6-47.8 54.4-47.8 4 0 7.2 3.2 7.2 7.2v14.7h45.6c3.9 0 7.2 3.3 7.2 7.2 0 4-3.3 7.2-7.2 7.2h-45.6v37.3h45.6c3.9 0 7.2 3.2 7.2 7.2 0 4-3.3 7.2-7.2 7.2h-45.6v14.8c0 3.9-3.2 7.2-7.2 7.2-27.8 0-50.9-20.9-54.4-47.8h-58c-4 0-7.2-3.3-7.2-7.2 0-66 53.7-119.7 119.6-119.7 66 0 119.7 53.7 119.7 119.7z"/>
		</g>
	</g>
</svg>