<?xml version="1.0" standalone="no"?>
<!--
 ~   Copyright (c) 2021, WSO2 LLC. (https://www.wso2.com). All Rights Reserved.
 ~   
 ~   This software is the property of WSO2 LLC. and its suppliers, if any.
 ~   Dissemination of any information or reproduction of any material contained
 ~   herein in any form is strictly forbidden, unless permitted by WSO2 expressly.
 ~   You may not alter or remove any copyright or other notice from copies of this content.
-->
<svg id="Logo_Plus_Mapping" data-name="Logo/Plus/Mapping" xmlns="http://www.w3.org/2000/svg" width="16" height="16" viewBox="0 0 16 16">
  <path id="Combined_Shape" data-name="Combined Shape" d="M4.8,11.2H0V9.6H4.8v-8H.8V0h9.6V1.6h-4V4.8h4V6.4h-4v4.8Z" transform="translate(2.4 2.4)" fill="#ccd1f2"/>
  <path id="Combined_Shape-2" data-name="Combined Shape" d="M12,11.2a1.6,1.6,0,1,1,1.6,1.6A1.6,1.6,0,0,1,12,11.2Zm-12,0a1.6,1.6,0,1,1,1.6,1.6A1.6,1.6,0,0,1,0,11.2ZM12,6.4A1.6,1.6,0,1,1,13.6,8,1.6,1.6,0,0,1,12,6.4ZM0,6.4A1.6,1.6,0,1,1,1.6,8,1.6,1.6,0,0,1,0,6.4ZM12,1.6a1.6,1.6,0,1,1,1.6,1.6A1.6,1.6,0,0,1,12,1.6ZM0,1.6A1.6,1.6,0,1,1,1.6,3.2,1.6,1.6,0,0,1,0,1.6Z" transform="translate(0.4 1.6)" fill="#5567d5"/>
</svg>
