<svg version="1.2" xmlns="http://www.w3.org/2000/svg" viewBox="0 0 800 800" width="800" height="800">
	<title>EJBMediator-ai</title>
	<style>
		tspan { white-space:pre } 
		.s0 { fill: #e57d26 } 
		.t1 { font-size: 20px;fill: #ffffff;font-weight: 400;font-family: "Roboto-Regular", "Roboto" } 
	</style>
	<g id="Layer 1">
		<g id="&lt;Group&gt;">
			<path id="&lt;Path&gt;" class="s0" d="m370.4 357.7c-8 0.1-13.4 1-16.2 1.8v49.7c3.3 0.8 7.4 1.1 13.1 1.1 21.1 0.1 34.3-10.3 34.3-27.9 0-15.9-11.4-25.1-31.2-24.7z"/>
			<path id="&lt;Compound Path&gt;" fill-rule="evenodd" class="s0" d="m739.1 157.4v494.9c0 25-20.3 45.3-45.3 45.3h-213.4c-1 0-1.9-0.1-2.9-0.2v60.9l-416.6-57v-592.5l416.6-55.6v59.1c1-0.1 1.9-0.2 2.9-0.2h213.4c25 0 45.3 20.3 45.3 45.3zm-25.9 494.9v-494.9c0-10.7-8.7-19.4-19.4-19.4h-213.4c-1 0-1.9 0.1-2.8 0.3v258.9c14-5.7 42.7-5.7 42.7-5.7 0 0-29.6 5.8-28.9 12.9 0.6 7 94.6 7.7 130-2-6.3 5.6-13.5 17.1-74.6 19.3-35 1.2-58.1-2-69.3-7.5v70.6c6.7-0.7 12.1-0.9 13.2-1 0 0-6.5 1.1-13.2 3v14.4c19.9 4.1 56.9 7.1 91.8 5.3 50.2-2.5 81.6-11.1 85-14.5 3.4-3.5 0.8-6.5 0.8-6.5 0 0 7.3 4.7 1.8 10.8-5.6 5.9-39.5 20.1-116.8 20.1-27.8 0-48-1.2-62.6-3.2v158.2c1 0.2 1.9 0.3 2.9 0.3h213.4c10.7 0 19.4-8.7 19.4-19.4z"/>
			<path id="&lt;Path&gt;" class="s0" d="m591.8 269.8c15.5-25.1-1.9-49.6-1.9-49.6 0 0 3.9 18-6.4 36.7-10.3 18.7-48.4 29.6-63.2 61.8-14.8 32.2 32.9 68.9 32.9 68.9 0 0-17.4-33.5-16.8-57.9 0.5-17.5 39.9-34.8 55.4-59.9z"/>
			<path id="&lt;Path&gt;" class="s0" d="m618.2 285.9c0 0-59.2 22.5-59.2 48.3 0 25.7 16.1 34.1 18.7 42.5 2.5 8.3-4.5 22.5-4.5 22.5 0 0 23.2-16.1 19.3-34.8-3.9-18.7-21.9-24.4-11.6-43.1 6.9-12.5 37.3-35.4 37.3-35.4z"/>
			<path id="&lt;Path&gt;" class="s0" d="m630.5 392.8c0 0 26.4 0 28.9 16.1 2.6 16.1-33.4 39.9-33.4 39.9 0 0 56.7-11.4 51.4-40.6-6.4-35.4-46.9-15.4-46.9-15.4z"/>
			<path id="&lt;Path&gt;" class="s0" d="m504.2 435.3c-2.5-4.6 4.6-7.1 4.6-7.1-32.3 7.7-14.7 21.2 23.1 23.8 32.3 2.2 68.5-9.7 68.5-9.7l11.2-9c0 0-25.6 3.6-45.6 5.8-26.8 3.1-59.2 0.7-61.8-3.8z"/>
			<path id="&lt;Path&gt;" class="s0" d="m515.2 466.2c-1.3-3 1.3-4.7 1.3-4.7 0 0-14.6 0.4-15.5 8.1-0.8 7.7 4.6 11.6 40.7 10.8 43-1.1 50.2-6.2 54.6-9.9l10.5-7.9c-28.1 3.6-30.3 4.6-46.2 5.1-16.1 0.4-44.1 1.5-45.4-1.5z"/>
			<path id="&lt;Path&gt;" class="s0" d="m626.8 521.6c-33.9 6.8-136.9 2.5-136.9 2.5 0 0 66.9 15.9 143.3 2.6 36.6-6.4 38.7-24.1 38.7-24.1 0 0-11.2 12.1-45.1 19z"/>
		</g>
		<text id="E
" style="transform: matrix(32,0,0,32,86.691,637.787)" >
			<tspan x="0" y="0" class="t1" dx="0 -2" >E
</tspan>
		</text>
	</g>
</svg>