<?xml version="1.0" encoding="UTF-8" standalone="no"?>
<!-- 
 Copyright (c) 2024, WSO2 LLC. (https://www.wso2.com). All Rights Reserved.

 This software is the property of WSO2 LLC. and its suppliers, if any.
 Dissemination of any information or reproduction of any material contained
 herein in any form is strictly forbidden, unless permitted by WSO2 expressly.
 You may not alter or remove any copyright or other notice from copies of this content.
-->

<svg
   xmlns:dc="http://purl.org/dc/elements/1.1/"
   xmlns:cc="http://creativecommons.org/ns#"
   xmlns:rdf="http://www.w3.org/1999/02/22-rdf-syntax-ns#"
   xmlns:svg="http://www.w3.org/2000/svg"
   xmlns="http://www.w3.org/2000/svg"
   viewBox="0 0 29.278532 23.132"
   height="23.132"
   width="29.278532"
   xml:space="preserve"
   id="svg2"
   version="1.1"><metadata
     id="metadata8"><rdf:RDF><cc:Work
         rdf:about=""><dc:format>image/svg+xml</dc:format><dc:type
           rdf:resource="http://purl.org/dc/dcmitype/StillImage" /></cc:Work></rdf:RDF></metadata><defs
     id="defs6"><clipPath
       id="clipPath18"
       clipPathUnits="userSpaceOnUse"><path
         id="path16"
         d="M 0,25 H 25 V 0 H 0 Z" /></clipPath></defs><g
     transform="matrix(1.3333333,0,0,-1.3333333,-2.0278666,27.549866)"
     id="g10"><g
       id="g12"><g
         clip-path="url(#clipPath18)"
         id="g14"><g
           transform="translate(2.5459,20.2104)"
           id="g20"><path
             id="path22"
             style="fill:#ffffff;fill-opacity:1;fill-rule:nonzero;stroke:none"
             d="m 0,0 c -0.167,0 -0.303,-0.136 -0.303,-0.303 v -3.444 c 0,-0.167 0.136,-0.303 0.303,-0.303 h 5.255 c 0.167,0 0.303,0.136 0.303,0.303 v 3.444 C 5.558,-0.136 5.422,0 5.255,0 Z M 5.255,-4.251 H 0 c -0.278,0 -0.505,0.226 -0.505,0.504 v 3.444 c 0,0.279 0.227,0.505 0.505,0.505 h 5.255 c 0.278,0 0.505,-0.226 0.505,-0.505 v -3.444 c 0,-0.278 -0.227,-0.504 -0.505,-0.504" /></g><g
           transform="translate(2.5459,20.2104)"
           id="g24"><path
             id="path26"
             style="fill:none;stroke:#4eba6f;stroke-width:0.5;stroke-linecap:butt;stroke-linejoin:miter;stroke-miterlimit:10;stroke-dasharray:none;stroke-opacity:1"
             d="m 0,0 c -0.167,0 -0.303,-0.136 -0.303,-0.303 v -3.444 c 0,-0.167 0.136,-0.303 0.303,-0.303 h 5.255 c 0.167,0 0.303,0.136 0.303,0.303 v 3.444 C 5.558,-0.136 5.422,0 5.255,0 Z M 5.255,-4.251 H 0 c -0.278,0 -0.505,0.226 -0.505,0.504 v 3.444 c 0,0.279 0.227,0.505 0.505,0.505 h 5.255 c 0.278,0 0.505,-0.226 0.505,-0.505 v -3.444 c 0,-0.278 -0.227,-0.504 -0.505,-0.504 z" /></g><g
           transform="translate(5.1733,17.6782)"
           id="g28"><path
             id="path30"
             style="fill:#ffffff;fill-opacity:1;fill-rule:nonzero;stroke:none"
             d="m 0,0 c -0.134,0 -0.269,0.044 -0.371,0.134 l -2.581,2.249 c -0.042,0.037 -0.047,0.101 -0.01,0.143 0.037,0.042 0.101,0.046 0.143,0.01 l 2.581,-2.25 c 0.129,-0.113 0.347,-0.112 0.476,0 l 2.581,2.25 C 2.861,2.573 2.925,2.568 2.962,2.526 2.999,2.484 2.994,2.42 2.952,2.383 L 0.371,0.134 C 0.269,0.044 0.135,0 0,0" /></g><g
           transform="translate(5.1733,17.6782)"
           id="g32"><path
             id="path34"
             style="fill:none;stroke:#4eba6f;stroke-width:0.5;stroke-linecap:butt;stroke-linejoin:miter;stroke-miterlimit:10;stroke-dasharray:none;stroke-opacity:1"
             d="m 0,0 c -0.134,0 -0.269,0.044 -0.371,0.134 l -2.581,2.249 c -0.042,0.037 -0.047,0.101 -0.01,0.143 0.037,0.042 0.101,0.046 0.143,0.01 l 2.581,-2.25 c 0.129,-0.113 0.347,-0.112 0.476,0 l 2.581,2.25 C 2.861,2.573 2.925,2.568 2.962,2.526 2.999,2.484 2.994,2.42 2.952,2.383 L 0.371,0.134 C 0.269,0.044 0.135,0 0,0 Z" /></g><g
           transform="translate(2.2759,7.8154)"
           id="g36"><path
             id="path38"
             style="fill:#ffffff;fill-opacity:1;fill-rule:nonzero;stroke:none"
             d="m 0,0 c -0.167,0 -0.303,-0.136 -0.303,-0.303 v -3.444 c 0,-0.167 0.136,-0.303 0.303,-0.303 h 5.255 c 0.167,0 0.303,0.136 0.303,0.303 v 3.444 C 5.558,-0.136 5.422,0 5.255,0 Z M 5.255,-4.252 H 0 c -0.278,0 -0.505,0.227 -0.505,0.505 v 3.444 c 0,0.279 0.227,0.505 0.505,0.505 h 5.255 c 0.278,0 0.505,-0.226 0.505,-0.505 v -3.444 c 0,-0.278 -0.227,-0.505 -0.505,-0.505" /></g><g
           transform="translate(2.2759,7.8154)"
           id="g40"><path
             id="path42"
             style="fill:none;stroke:#4eba6f;stroke-width:0.5;stroke-linecap:butt;stroke-linejoin:miter;stroke-miterlimit:10;stroke-dasharray:none;stroke-opacity:1"
             d="m 0,0 c -0.167,0 -0.303,-0.136 -0.303,-0.303 v -3.444 c 0,-0.167 0.136,-0.303 0.303,-0.303 h 5.255 c 0.167,0 0.303,0.136 0.303,0.303 v 3.444 C 5.558,-0.136 5.422,0 5.255,0 Z M 5.255,-4.252 H 0 c -0.278,0 -0.505,0.227 -0.505,0.505 v 3.444 c 0,0.279 0.227,0.505 0.505,0.505 h 5.255 c 0.278,0 0.505,-0.226 0.505,-0.505 v -3.444 c 0,-0.278 -0.227,-0.505 -0.505,-0.505 z" /></g><g
           transform="translate(4.9033,5.2832)"
           id="g44"><path
             id="path46"
             style="fill:#ffffff;fill-opacity:1;fill-rule:nonzero;stroke:none"
             d="m 0,0 c -0.134,0 -0.269,0.045 -0.371,0.134 l -2.582,2.25 c -0.042,0.036 -0.046,0.1 -0.009,0.142 0.037,0.042 0.101,0.046 0.143,0.01 l 2.581,-2.25 c 0.129,-0.112 0.347,-0.112 0.476,0 L 2.819,2.535 C 2.861,2.572 2.924,2.568 2.961,2.525 2.999,2.483 2.994,2.42 2.952,2.384 L 0.371,0.134 C 0.269,0.045 0.134,0 0,0" /></g><g
           transform="translate(4.9033,5.2832)"
           id="g48"><path
             id="path50"
             style="fill:none;stroke:#4eba6f;stroke-width:0.5;stroke-linecap:butt;stroke-linejoin:miter;stroke-miterlimit:10;stroke-dasharray:none;stroke-opacity:1"
             d="m 0,0 c -0.134,0 -0.269,0.045 -0.371,0.134 l -2.582,2.25 c -0.042,0.036 -0.046,0.1 -0.009,0.142 0.037,0.042 0.101,0.046 0.143,0.01 l 2.581,-2.25 c 0.129,-0.112 0.347,-0.112 0.476,0 L 2.819,2.535 C 2.861,2.572 2.924,2.568 2.961,2.525 2.999,2.483 2.994,2.42 2.952,2.384 L 0.371,0.134 C 0.269,0.045 0.134,0 0,0 Z" /></g><g
           transform="translate(9.9077,7.8154)"
           id="g52"><path
             id="path54"
             style="fill:#ffffff;fill-opacity:1;fill-rule:nonzero;stroke:none"
             d="m 0,0 c -0.167,0 -0.303,-0.136 -0.303,-0.303 v -3.444 c 0,-0.167 0.136,-0.303 0.303,-0.303 h 5.254 c 0.167,0 0.304,0.136 0.304,0.303 v 3.444 C 5.558,-0.136 5.421,0 5.254,0 Z M 5.254,-4.252 H 0 c -0.278,0 -0.505,0.227 -0.505,0.505 v 3.444 c 0,0.279 0.227,0.505 0.505,0.505 h 5.254 c 0.279,0 0.506,-0.226 0.506,-0.505 v -3.444 c 0,-0.278 -0.227,-0.505 -0.506,-0.505" /></g><g
           transform="translate(9.9077,7.8154)"
           id="g56"><path
             id="path58"
             style="fill:none;stroke:#4eba6f;stroke-width:0.5;stroke-linecap:butt;stroke-linejoin:miter;stroke-miterlimit:10;stroke-dasharray:none;stroke-opacity:1"
             d="m 0,0 c -0.167,0 -0.303,-0.136 -0.303,-0.303 v -3.444 c 0,-0.167 0.136,-0.303 0.303,-0.303 h 5.254 c 0.167,0 0.304,0.136 0.304,0.303 v 3.444 C 5.558,-0.136 5.421,0 5.254,0 Z M 5.254,-4.252 H 0 c -0.278,0 -0.505,0.227 -0.505,0.505 v 3.444 c 0,0.279 0.227,0.505 0.505,0.505 h 5.254 c 0.279,0 0.506,-0.226 0.506,-0.505 v -3.444 c 0,-0.278 -0.227,-0.505 -0.506,-0.505 z" /></g><g
           transform="translate(12.5352,5.2832)"
           id="g60"><path
             id="path62"
             style="fill:#ffffff;fill-opacity:1;fill-rule:nonzero;stroke:none"
             d="m 0,0 c -0.134,0 -0.269,0.045 -0.371,0.134 l -2.582,2.25 c -0.042,0.036 -0.046,0.1 -0.009,0.142 0.037,0.042 0.1,0.046 0.142,0.01 l 2.582,-2.25 c 0.129,-0.112 0.347,-0.112 0.476,0 L 2.819,2.535 C 2.86,2.572 2.924,2.568 2.962,2.525 2.998,2.483 2.994,2.42 2.952,2.384 L 0.371,0.134 C 0.269,0.045 0.134,0 0,0" /></g><g
           transform="translate(12.5352,5.2832)"
           id="g64"><path
             id="path66"
             style="fill:none;stroke:#4eba6f;stroke-width:0.5;stroke-linecap:butt;stroke-linejoin:miter;stroke-miterlimit:10;stroke-dasharray:none;stroke-opacity:1"
             d="m 0,0 c -0.134,0 -0.269,0.045 -0.371,0.134 l -2.582,2.25 c -0.042,0.036 -0.046,0.1 -0.009,0.142 0.037,0.042 0.1,0.046 0.142,0.01 l 2.582,-2.25 c 0.129,-0.112 0.347,-0.112 0.476,0 L 2.819,2.535 C 2.86,2.572 2.924,2.568 2.962,2.525 2.998,2.483 2.994,2.42 2.952,2.384 L 0.371,0.134 C 0.269,0.045 0.134,0 0,0 Z" /></g><g
           transform="translate(17.4688,7.8154)"
           id="g68"><path
             id="path70"
             style="fill:#ffffff;fill-opacity:1;fill-rule:nonzero;stroke:none"
             d="m 0,0 c -0.167,0 -0.303,-0.136 -0.303,-0.303 v -3.444 c 0,-0.167 0.136,-0.303 0.303,-0.303 h 5.255 c 0.168,0 0.304,0.136 0.304,0.303 v 3.444 C 5.559,-0.136 5.423,0 5.255,0 Z M 5.255,-4.252 H 0 c -0.278,0 -0.505,0.227 -0.505,0.505 v 3.444 c 0,0.279 0.227,0.505 0.505,0.505 h 5.255 c 0.278,0 0.506,-0.226 0.506,-0.505 v -3.444 c 0,-0.278 -0.228,-0.505 -0.506,-0.505" /></g><g
           transform="translate(17.4688,7.8154)"
           id="g72"><path
             id="path74"
             style="fill:none;stroke:#4eba6f;stroke-width:0.5;stroke-linecap:butt;stroke-linejoin:miter;stroke-miterlimit:10;stroke-dasharray:none;stroke-opacity:1"
             d="m 0,0 c -0.167,0 -0.303,-0.136 -0.303,-0.303 v -3.444 c 0,-0.167 0.136,-0.303 0.303,-0.303 h 5.255 c 0.168,0 0.304,0.136 0.304,0.303 v 3.444 C 5.559,-0.136 5.423,0 5.255,0 Z M 5.255,-4.252 H 0 c -0.278,0 -0.505,0.227 -0.505,0.505 v 3.444 c 0,0.279 0.227,0.505 0.505,0.505 h 5.255 c 0.278,0 0.506,-0.226 0.506,-0.505 v -3.444 c 0,-0.278 -0.228,-0.505 -0.506,-0.505 z" /></g><g
           transform="translate(20.0967,5.2832)"
           id="g76"><path
             id="path78"
             style="fill:#ffffff;fill-opacity:1;fill-rule:nonzero;stroke:none"
             d="m 0,0 c -0.135,0 -0.269,0.045 -0.371,0.134 l -2.581,2.25 c -0.042,0.036 -0.047,0.1 -0.01,0.142 0.036,0.042 0.101,0.046 0.143,0.01 l 2.581,-2.25 c 0.129,-0.112 0.347,-0.112 0.476,0 L 2.819,2.535 C 2.86,2.572 2.925,2.568 2.962,2.525 2.998,2.483 2.994,2.42 2.952,2.384 L 0.371,0.134 C 0.269,0.045 0.135,0 0,0" /></g><g
           transform="translate(20.0967,5.2832)"
           id="g80"><path
             id="path82"
             style="fill:none;stroke:#4eba6f;stroke-width:0.5;stroke-linecap:butt;stroke-linejoin:miter;stroke-miterlimit:10;stroke-dasharray:none;stroke-opacity:1"
             d="m 0,0 c -0.135,0 -0.269,0.045 -0.371,0.134 l -2.581,2.25 c -0.042,0.036 -0.047,0.1 -0.01,0.142 0.036,0.042 0.101,0.046 0.143,0.01 l 2.581,-2.25 c 0.129,-0.112 0.347,-0.112 0.476,0 L 2.819,2.535 C 2.86,2.572 2.925,2.568 2.962,2.525 2.998,2.483 2.994,2.42 2.952,2.384 L 0.371,0.134 C 0.269,0.045 0.135,0 0,0 Z" /></g><g
           transform="translate(3.019,11.6182)"
           id="g84"><path
             id="path86"
             style="fill:none;stroke:#4eba6f;stroke-width:1;stroke-linecap:butt;stroke-linejoin:miter;stroke-miterlimit:10;stroke-dasharray:none;stroke-opacity:1"
             d="m 0,0 2.171,-2.171 2.137,2.138" /></g><g
           transform="translate(5.1699,9.5713)"
           id="g88"><path
             id="path90"
             style="fill:none;stroke:#4eba6f;stroke-width:1;stroke-linecap:butt;stroke-linejoin:miter;stroke-miterlimit:10;stroke-dasharray:none;stroke-opacity:1"
             d="M 0,0 0.017,4.958" /></g></g></g></g></svg>