<svg version="1.2" xmlns="http://www.w3.org/2000/svg" viewBox="0 0 800 800" width="800" height="800">
	<title>esb-connector-bigquery-small-ai</title>
	<style>
		.s0 { fill: #557dbf } 
		.s1 { fill: #fefefe } 
		.s2 { fill: #547dbe;stroke: #547dbe;stroke-miterlimit:10;stroke-width: 16 } 
	</style>
	<g id="Layer 1">
		<g id="&lt;Group&gt;">
			<path id="path24" fill-rule="evenodd" class="s0" d="m613.6 525.5c4.4 4.5 4.4 11.7 0 16.1l-19.1 19.1q0 0 0 0c-4.5 4.5-11.7 4.5-16.1 0l-72.9-72.9q-1.2-1.1-1.9-2.5c-71.4 56-171.7 56.4-243.5 0.9-86.6-66.9-102.6-191.4-35.7-278 67-86.5 191.4-102.5 278-35.6 86.6 66.9 102.5 191.4 35.6 278q1.5 0.8 2.7 2l72.9 72.9q0 0 0 0zm-83.1-196.2c0-82.4-66.8-149.1-149.1-149.1-82.4 0-149.1 66.7-149.1 149.1 0 82.3 66.7 149.1 149.1 149.1 82.3 0 149.1-66.8 149.1-149.1z"/>
			<path id="path28" class="s0" d="m286.1 321.3v61.6c9.5 16.8 23.2 30.8 39.8 40.5v-102.4z"/>
			<path id="path32" class="s0" d="m360.6 270.2v166.5c13.2 2.5 26.7 2.5 39.8 0v-166.5z"/>
			<path id="path36" class="s0" d="m475.9 382.8v-36.5h-39.8v76.9c16.5-9.8 30.3-23.7 39.8-40.4z"/>
		</g>
		<g id="&lt;Group&gt;">
			<path id="&lt;Path&gt;" class="s1" d="m612.2 475.1c-84.7 0-153.4 68.7-153.4 153.4 0 84.7 68.7 153.4 153.4 153.4 84.7 0 153.3-68.7 153.3-153.4 0-84.7-68.6-153.4-153.3-153.4z"/>
			<path id="&lt;Path&gt;" class="s2" d="m728.6 628.5c0 66-53.7 119.6-119.7 119.6-25.1 0-49.1-7.6-69.5-22.2-3.2-2.3-3.9-6.8-1.6-10 2.3-3.3 6.8-4 10-1.7 17.9 12.8 39.1 19.5 61.1 19.5 58.1 0 105.3-47.2 105.3-105.2 0-58.1-47.2-105.3-105.3-105.3-55.6 0-101.3 43.4-105 98.1h50.6c3.5-27 26.6-47.8 54.4-47.8 4 0 7.2 3.2 7.2 7.2v14.7h45.6c3.9 0 7.2 3.3 7.2 7.2 0 4-3.3 7.2-7.2 7.2h-45.6v37.3h45.6c3.9 0 7.2 3.2 7.2 7.2 0 4-3.3 7.2-7.2 7.2h-45.6v14.8c0 3.9-3.2 7.2-7.2 7.2-27.8 0-50.9-20.9-54.4-47.8h-58c-4 0-7.2-3.3-7.2-7.2 0-66 53.7-119.7 119.6-119.7 66 0 119.7 53.7 119.7 119.7z"/>
		</g>
	</g>
</svg>