<svg version="1.2" xmlns="http://www.w3.org/2000/svg" viewBox="0 0 800 800" width="800" height="800">
	<title>esb-connector-dscall-small-ai</title>
	<style>
		.s0 { fill: none;stroke: #20b899;stroke-miterlimit:10;stroke-width: 32 } 
		.s1 { fill: #20b899;stroke: #20b899;stroke-miterlimit:10;stroke-width: 8 } 
		.s2 { fill: #fefefe } 
		.s3 { fill: #20b899;stroke: #20b899;stroke-miterlimit:10;stroke-width: 16 } 
	</style>
	<g id="Layer 1">
		<g id="&lt;Group&gt;">
			<path id="&lt;Path&gt;" class="s0" d="m149.8 461.8l88.8-88.9-87.4-87.5"/>
			<path id="&lt;Path&gt;" class="s0" d="m238.6 372.9l-183.5 0.4"/>
		</g>
		<path id="&lt;Compound Path&gt;" fill-rule="evenodd" class="s1" d="m698.7 229.4v305.6c0 1.5-0.4 2.9-1.1 4-10 40.3-97.2 70.4-205.4 70.4-108.6 0-195.8-30.2-205.6-70.6-0.6-1.2-1-2.4-1-3.8v-305.6c0-1.5 0.6-2.8 1.2-4.1 9.6-35.4 80.8-70.3 205.4-70.3 124.5 0 195.7 34.9 205.3 70.3 0.7 1.3 1.2 2.6 1.2 4.1zm-16.6 202.4q0-1.4-0.2-2.8c-0.2-1.3-0.1-2.5 0.2-3.7v-61.3c-2.1 1.9-4.3 3.8-6.8 5.6-31.3 23.4-93.3 41.5-183.1 41.5-90.2 0-152.5-18.3-183.6-41.8-2-1.5-3.9-3.1-5.7-4.7-0.2-0.2-0.5-0.4-0.7-0.6v61.3c0.3 1.2 0.4 2.4 0.2 3.7-0.1 0.9-0.2 1.8-0.2 2.8 0 1.3 0.3 2.6 0.6 4q0.4 1.5 1 3 0.5 1.2 1.1 2.4 0.9 1.5 2 3.1 0.8 1.1 1.8 2.2c0.9 1.1 1.9 2.2 3 3.3 0.6 0.6 1.4 1.3 2.1 1.9 1.4 1.2 2.8 2.4 4.4 3.6 0.6 0.5 1.4 0.9 2.1 1.4 1.8 1.3 3.8 2.6 5.9 3.9 0.6 0.3 1.2 0.6 1.8 1 2.4 1.4 5 2.7 7.8 4.1q0.5 0.2 1.1 0.5 4.6 2.2 9.8 4.3 0.1 0 0.3 0.1c18.7 7.5 42.7 13.8 70.7 17.9q0.2 0 0.4 0.1 8.2 1.1 16.7 2.1c1 0.1 2 0.2 2.9 0.3 5 0.5 10.1 1 15.3 1.3 2.3 0.2 4.8 0.3 7.3 0.4 3.9 0.3 7.7 0.5 11.8 0.7q9.8 0.3 20.1 0.3 10.2 0 20-0.3c4-0.1 7.9-0.4 11.8-0.6 2.5-0.2 5-0.3 7.3-0.4 5.2-0.4 10.3-0.9 15.3-1.4 0.9-0.1 1.9-0.2 2.8-0.3q8.6-0.9 16.8-2.1 0.2-0.1 0.4-0.1c28-4.1 52-10.4 70.7-17.9q0.2-0.1 0.3-0.1c3.5-1.4 6.7-2.8 9.8-4.3q0.6-0.3 1.1-0.5c2.8-1.4 5.4-2.7 7.8-4.1q0.9-0.5 1.8-1c2.1-1.3 4.1-2.5 5.9-3.8q1.1-0.8 2.1-1.5c1.6-1.2 3-2.4 4.4-3.5q1.1-1 2.1-2c1.1-1.1 2.1-2.1 3-3.2q1-1.2 1.8-2.3 1.1-1.5 2-3.1 0.6-1.2 1.1-2.4 0.6-1.5 1-3c0.3-1.4 0.6-2.7 0.6-4zm-3.2-164.3c-0.6 0.5-1.1 1-1.7 1.5q-3.7 3-8.1 5.8c-0.6 0.4-1.3 0.7-1.9 1.1q-3.6 2.3-7.7 4.5-1.5 0.8-3 1.6-4.5 2.3-9.5 4.4c-0.6 0.3-1.1 0.5-1.6 0.8-3.9 1.6-8 3.2-12.3 4.7-1.2 0.4-2.4 0.8-3.6 1.2q-5.1 1.7-10.6 3.3c-1.3 0.4-2.6 0.8-3.9 1.2-4.9 1.3-9.9 2.6-15.1 3.8-0.7 0.1-1.5 0.3-2.2 0.4q-7 1.5-14.4 2.8-2.5 0.5-5 0.9-7.1 1.1-14.5 2.1c-1.2 0.2-2.5 0.4-3.7 0.5q-9.3 1.1-19.1 1.9c-1.6 0.2-3.3 0.3-4.9 0.4q-7.9 0.6-16.1 0.9-2.9 0.2-6 0.3c-7.1 0.2-14.3 0.4-21.8 0.4-7.6 0-14.8-0.2-21.9-0.4q-3.1-0.1-6-0.3-8.2-0.3-16.1-0.9c-1.6-0.1-3.3-0.2-4.9-0.4q-9.8-0.8-19-1.9c-1.3-0.1-2.6-0.3-3.8-0.5q-7.4-1-14.5-2.1-2.5-0.4-5-0.9-7.4-1.3-14.4-2.8c-0.7-0.1-1.5-0.3-2.2-0.4-5.2-1.2-10.2-2.5-15.1-3.8-1.3-0.4-2.6-0.8-3.9-1.2q-5.5-1.6-10.6-3.3c-1.2-0.4-2.4-0.8-3.6-1.2-4.3-1.5-8.4-3.1-12.3-4.7-0.5-0.3-1-0.5-1.6-0.8q-5-2.1-9.5-4.4-1.5-0.8-3-1.6-4.1-2.2-7.7-4.5c-0.6-0.4-1.3-0.7-1.9-1.1q-4.4-2.8-8.1-5.8c-0.6-0.5-1.1-1-1.7-1.5-1.1-0.9-2.2-1.7-3.2-2.6v61.3c0.3 1.2 0.4 2.4 0.2 3.7-0.1 0.9-0.2 1.8-0.2 2.8 0 1.3 0.3 2.6 0.6 3.9q0.4 1.5 1 3 0.5 1.3 1.1 2.5 0.9 1.5 2 3 0.8 1.2 1.8 2.3c0.9 1.1 1.9 2.2 3 3.3 0.6 0.6 1.4 1.3 2.1 1.9 1.4 1.2 2.8 2.4 4.4 3.5 0.6 0.5 1.4 1 2.1 1.5 1.8 1.3 3.8 2.6 5.9 3.8 0.6 0.4 1.2 0.7 1.8 1 2.4 1.4 5 2.8 7.8 4.1q0.5 0.3 1.1 0.5 4.6 2.2 9.8 4.3 0.1 0.1 0.3 0.1c18.7 7.5 42.7 13.8 70.7 18q0.2 0 0.4 0 8.2 1.2 16.7 2.2c1 0.1 2 0.1 2.9 0.2 5 0.6 10.1 1 15.3 1.4 2.3 0.2 4.8 0.3 7.3 0.4 3.9 0.2 7.7 0.5 11.8 0.6q9.8 0.4 20.1 0.4 10.2 0 20-0.3c4-0.2 7.9-0.4 11.8-0.7 2.5-0.1 5-0.2 7.3-0.4 5.2-0.3 10.3-0.8 15.3-1.3 0.9-0.1 1.9-0.2 2.8-0.3q8.6-0.9 16.8-2.1 0.2-0.1 0.4-0.1c28-4.1 52-10.4 70.7-17.9q0.2-0.1 0.3-0.1c3.5-1.4 6.7-2.9 9.8-4.3q0.6-0.3 1.1-0.5c2.8-1.4 5.4-2.8 7.8-4.1q0.9-0.5 1.8-1c2.1-1.3 4.1-2.6 5.9-3.9q1.1-0.7 2.1-1.4c1.6-1.2 3-2.4 4.4-3.6q1.1-0.9 2.1-1.9c1.1-1.1 2.1-2.2 3-3.3q1-1.1 1.8-2.2 1.1-1.6 2-3.1 0.6-1.2 1.1-2.4 0.6-1.5 1-3c0.3-1.4 0.6-2.7 0.6-4q0-1.5-0.2-2.8c-0.2-1.3-0.1-2.5 0.2-3.7v-61.3c-0.9 0.9-2.1 1.7-3.2 2.6zm-376.7-34c0 29.3 78 62 190 62 111.9 0 189.9-32.7 189.9-62 0-29.3-78-61.9-189.9-61.9-112 0-190 32.6-190 61.9zm379.9 229.6c-2.1 1.9-4.3 3.8-6.8 5.6-31.3 23.4-93.3 41.6-183.1 41.6-90.2 0-152.5-18.3-183.6-41.9-2-1.5-3.9-3.1-5.7-4.7-0.2-0.2-0.5-0.4-0.7-0.6v69.5q0.1 0.5 0.2 1.1c4.7 28.6 82.1 59.2 189.8 59.2 107.6 0 185-30.6 189.7-59.2q0.1-0.6 0.2-1.1z"/>
		<g id="&lt;Group&gt;">
			<path id="&lt;Path&gt;" class="s2" d="m612.2 475.1c-84.7 0-153.4 68.7-153.4 153.4 0 84.7 68.7 153.4 153.4 153.4 84.7 0 153.3-68.7 153.3-153.4 0-84.7-68.6-153.4-153.3-153.4z"/>
			<path id="&lt;Path&gt;" class="s3" d="m728.6 628.5c0 66-53.7 119.6-119.7 119.6-25.1 0-49.1-7.6-69.5-22.2-3.2-2.3-3.9-6.8-1.6-10 2.3-3.3 6.8-4 10-1.7 17.9 12.8 39.1 19.5 61.1 19.5 58.1 0 105.3-47.2 105.3-105.2 0-58.1-47.2-105.3-105.3-105.3-55.6 0-101.3 43.4-105 98.1h50.6c3.5-27 26.6-47.8 54.4-47.8 4 0 7.2 3.2 7.2 7.2v14.7h45.6c3.9 0 7.2 3.3 7.2 7.2 0 4-3.3 7.2-7.2 7.2h-45.6v37.3h45.6c3.9 0 7.2 3.2 7.2 7.2 0 4-3.3 7.2-7.2 7.2h-45.6v14.8c0 3.9-3.2 7.2-7.2 7.2-27.8 0-50.9-20.9-54.4-47.8h-58c-4 0-7.2-3.3-7.2-7.2 0-66 53.7-119.7 119.6-119.7 66 0 119.7 53.7 119.7 119.7z"/>
		</g>
	</g>
</svg>