<svg version="1.2" xmlns="http://www.w3.org/2000/svg" viewBox="0 0 800 800" width="800" height="800">
	<title>esb-connector-fhir-small-ai</title>
	<style>
		.s0 { fill: #e45825 } 
		.s1 { fill: #fefefe } 
		.s2 { fill: #e45625;stroke: #e45625;stroke-miterlimit:10;stroke-width: 16 } 
	</style>
	<g id="Layer 1">
		<g id="&lt;Group&gt;">
			<path id="&lt;Path&gt;" class="s0" d="m265.8 634.4c0 0-84.4-74.5-85-152.3-0.5-77.8 42.8-140.6 63.4-162.3 20.5-21.7 105.6-93.4 105.6-93.4 0 0-53.4 66.7-81.2 107.3-27.8 40.6-45.6 92.3-46.7 114.5-1.1 22.2-1.1 81.7 17.3 127.3 18.3 45.6 26.6 58.9 26.6 58.9z"/>
			<path id="&lt;Path&gt;" class="s0" d="m412 715.2c0 0 32.4 2.1 88.1-17.2 55.8-19.3 86.1-73.7 91.6-86.7 5.5-13.1 13.7-27.6 19.9-47.5 6.2-20 7.6-46.1 7.6-46.1 0 0-19.3 30.9-32.4 43.3-13 12.4-28.9 17.9-28.9 17.9v-6.9c0 0 25.5-46.1 27.6-91.5 2-45.4 0-63.3-6.2-99.8-6.2-36.5-34.7-111.2-44.8-127.3-12.3-20-12.3-20-12.3-20 0 0-1.4 32.9-12.4 81.9-11 48.8-25.5 73.7-35.1 92.2-9.7 18.6-65.4 86.1-77.8 112.2-12.4 26.2-20.7 57.2-20.7 94.3 0 37.2 9.7 53.7 16.6 69.5 6.8 15.9 19.2 31.7 19.2 31.7z"/>
			<path id="&lt;Path&gt;" class="s0" d="m372.8 697.3c0 0-23.3-41.3-23-83.3 0.3-42 3.4-58.5 11.5-81.2 8.1-22.7 37.6-79.1 45.9-88.1 8.3-8.9 52.3-75.7 53.7-79.8 1.4-4.2 30.3-58.5 33-86.8 2.8-28.2 13.1-35.1 3.8-93.6-9.3-58.5-10-35.8-10-35.8l5.5-36.4-6.8 22c0 0-7.6-15.2-17.2-39.9-9.7-24.8-28.3-57.2-28.3-57.2 0 0 2.8 60.8-2.7 88.8-8.3 42-28.9 64.7-37.9 77.1-8.9 12.4-57.1 66.8-83.9 102.6-26.9 35.8-55.8 101.8-64.1 133.5-8.2 31.7-11 79.8 0 114.9 11.1 35.1 21.4 54.4 37.2 76.4 15.8 22.1 53.8 50.3 60.3 54.4 6.5 4.1 23 12.4 23 12.4z"/>
		</g>
		<g id="&lt;Group&gt;">
			<path id="&lt;Path&gt;" class="s1" d="m612.2 475.1c-84.7 0-153.4 68.7-153.4 153.4 0 84.7 68.7 153.4 153.4 153.4 84.7 0 153.3-68.7 153.3-153.4 0-84.7-68.6-153.4-153.3-153.4z"/>
			<path id="&lt;Path&gt;" class="s2" d="m728.6 628.5c0 66-53.7 119.6-119.7 119.6-25.1 0-49.1-7.6-69.5-22.2-3.2-2.3-3.9-6.8-1.6-10 2.3-3.3 6.8-4 10-1.7 17.9 12.8 39.1 19.5 61.1 19.5 58.1 0 105.3-47.2 105.3-105.2 0-58.1-47.2-105.3-105.3-105.3-55.6 0-101.3 43.4-105 98.1h50.6c3.5-27 26.6-47.8 54.4-47.8 4 0 7.2 3.2 7.2 7.2v14.7h45.6c3.9 0 7.2 3.3 7.2 7.2 0 4-3.3 7.2-7.2 7.2h-45.6v37.3h45.6c3.9 0 7.2 3.2 7.2 7.2 0 4-3.3 7.2-7.2 7.2h-45.6v14.8c0 3.9-3.2 7.2-7.2 7.2-27.8 0-50.9-20.9-54.4-47.8h-58c-4 0-7.2-3.3-7.2-7.2 0-66 53.7-119.7 119.6-119.7 66 0 119.7 53.7 119.7 119.7z"/>
		</g>
	</g>
</svg>