<svg version="1.2" xmlns="http://www.w3.org/2000/svg" viewBox="0 0 800 800" width="800" height="800">
	<title>esb-connector-ldap-small-ai</title>
	<style>
		.s0 { fill: #cc2028 } 
		.s1 { fill: #fefefe } 
		.s2 { fill: #cd2129;stroke: #cd2129;stroke-miterlimit:10;stroke-width: 16 } 
	</style>
	<g id="Layer 1">
		<g id="&lt;Group&gt;">
			<path id="&lt;Path&gt;" class="s0" d="m54.2 502.2l165-280.3 114 200.4-48.5 79.9z"/>
			<path id="&lt;Path&gt;" class="s0" d="m269 267.8l64.2-103.5 74.7 131-59 104.8z"/>
			<path id="&lt;Path&gt;" class="s0" d="m452.4 262.5l158.5 281.6h-320.9z"/>
			<path id="&lt;Path&gt;" class="s0" d="m516.6 330.6l68.1-108.7 161.1 280.3h-134.9z"/>
		</g>
		<g id="&lt;Group&gt;">
			<path id="&lt;Path&gt;" class="s1" d="m612.2 475.1c-84.7 0-153.4 68.7-153.4 153.4 0 84.7 68.7 153.4 153.4 153.4 84.7 0 153.3-68.7 153.3-153.4 0-84.7-68.6-153.4-153.3-153.4z"/>
			<path id="&lt;Path&gt;" class="s2" d="m728.6 628.5c0 66-53.7 119.6-119.7 119.6-25.1 0-49.1-7.6-69.5-22.2-3.2-2.3-3.9-6.8-1.6-10 2.3-3.3 6.8-4 10-1.7 17.9 12.8 39.1 19.5 61.1 19.5 58.1 0 105.3-47.2 105.3-105.2 0-58.1-47.2-105.3-105.3-105.3-55.6 0-101.3 43.4-105 98.1h50.6c3.5-27 26.6-47.8 54.4-47.8 4 0 7.2 3.2 7.2 7.2v14.7h45.6c3.9 0 7.2 3.3 7.2 7.2 0 4-3.3 7.2-7.2 7.2h-45.6v37.3h45.6c3.9 0 7.2 3.2 7.2 7.2 0 4-3.3 7.2-7.2 7.2h-45.6v14.8c0 3.9-3.2 7.2-7.2 7.2-27.8 0-50.9-20.9-54.4-47.8h-58c-4 0-7.2-3.3-7.2-7.2 0-66 53.7-119.7 119.6-119.7 66 0 119.7 53.7 119.7 119.7z"/>
		</g>
	</g>
</svg>