<?xml version="1.0" encoding="utf-8"?>
<svg viewBox="95.3423 25.0895 60.638 60.47" xmlns="http://www.w3.org/2000/svg">
  <path d="M165.385,29.781c-16.745,0-30.319,13.537-30.319,30.235s13.574,30.235,30.319,30.235 c16.744,0,30.319-13.537,30.319-30.235S182.129,29.781,165.385,29.781z M165.385,84.632c-13.451,0-24.356-11.021-24.356-24.616 S151.933,35.4,165.385,35.4s24.356,11.021,24.356,24.616S178.836,84.632,165.385,84.632z" style="" transform="matrix(1, 0, 0, 1, -39.72367477416992, -4.691472053527832)"/>
  <path d="M189.66,58.098l-8.826,0.021l-4.4,7.918l-10.98-26.767l-9.878,21.988l-14.517-0.031c0.058,1.211,0.205,2.399,0.431,3.558 l16.385,0.035l7.43-16.54L175.95,74.23l6.979-12.558l6.752-0.016c0.035-0.542,0.06-1.088,0.06-1.639 C189.741,59.37,189.708,58.732,189.66,58.098z" transform="matrix(1, 0, 0, 1, -39.72367477416992, -4.691472053527832)"/>
</svg>
