<svg version="1.2" xmlns="http://www.w3.org/2000/svg" viewBox="0 0 800 800" width="800" height="800">
	<title>ScriptMediator-ai</title>
	<style>
		tspan { white-space:pre } 
		.s0 { fill: #fefefe } 
		.s1 { fill: #e57d26 } 
		.t2 { font-size: 20px;fill: #ffffff;font-weight: 400;font-family: "Roboto-Regular", "Roboto" } 
		.t3 { font-size: 7px;fill: #f77926;font-family: "Myriad Pro" } 
	</style>
	<g id="Layer 1">
		<g id="&lt;Group&gt;">
			<path id="&lt;Path&gt;" class="s0" d="m370.5 352.1c-8 0.1-13.3 1-16.1 1.8v49.6c3.3 0.7 7.4 1 13 1 21 0.2 34.2-10.2 34.2-27.8 0-15.8-11.3-25-31.1-24.6z"/>
			<path id="&lt;Compound Path&gt;" fill-rule="evenodd" class="s1" d="m738 152.5v493.2c0 24.9-20.2 45.2-45.1 45.2h-212.8c-1 0-1.9-0.1-2.8-0.2v60.7l-415.3-56.8v-590.6l415.3-55.4v58.9c0.9-0.1 1.8-0.2 2.8-0.2h212.8c24.9 0 45.1 20.3 45.1 45.2zm-25.8 493.2v-493.2c0-10.7-8.7-19.4-19.3-19.4h-212.8c-1 0-1.9 0.2-2.8 0.3v258c14-5.6 42.6-5.6 42.6-5.6 0 0-29.5 5.8-28.8 12.8 0.6 7.1 94.3 7.7 129.6-1.9-6.3 5.5-13.5 17-74.4 19.2-34.9 1.2-57.9-2-69-7.5v70.3c6.6-0.6 12-0.8 13.1-0.9 0 0-6.4 1.1-13.1 3v14.3c19.8 4.2 56.6 7.1 91.4 5.3 50.1-2.5 81.3-11.1 84.8-14.5 3.3-3.4 0.8-6.4 0.8-6.4 0 0 7.3 4.7 1.7 10.7-5.5 6-39.3 20.1-116.4 20.1-27.7 0-47.8-1.2-62.3-3.2v157.7c0.9 0.2 1.8 0.3 2.8 0.3h212.8c10.6 0 19.3-8.7 19.3-19.4z"/>
			<path id="&lt;Path&gt;" class="s0" d="m691.3 638.6h-214v-323.6h214z"/>
		</g>
		<text id="S
" style="transform: matrix(32,0,0,32,80.107,627.086)" >
			<tspan x="0" y="0" class="t2" dx="0 -2" >S
</tspan>
		</text>
		<text id="&lt;&gt;
" style="transform: matrix(32,0,0,32,468.872,439.539)" >
			<tspan x="0" y="0" class="t3">&lt;&gt;
</tspan>
		</text>
	</g>
</svg>