<svg width="29" height="22" viewBox="0 0 29 22" fill="none" xmlns="http://www.w3.org/2000/svg">
<path d="M1.33333 18.277L1.34667 0.000972748L0.0133333 0L0 18.276L1.33333 18.277Z" fill="black"/>
<path d="M4.40307 18.2797L4.41773 0.00368977L3.0844 0.00261974L3.06973 18.2786L4.40307 18.2797Z" fill="black"/>
<path d="M13.6147 18.2856L12.2813 18.2845L12.296 0.00981617L13.6293 0.0108862L13.6147 18.2856Z" fill="black"/>
<path d="M10.5449 18.2842L10.5583 0.00817299L9.22493 0.00720024L9.2116 18.2832L10.5449 18.2842Z" fill="black"/>
<path d="M16.6849 18.2881L16.6996 0.0134211L15.3663 0.012351L15.3516 18.287L16.6849 18.2881Z" fill="black"/>
<path d="M19.7553 19.723L19.7687 1.44831L18.4353 1.44733L18.422 19.722L19.7553 19.723Z" fill="black"/>
<path d="M22.8243 21.4724L22.8389 3.19636L21.5056 3.19529L21.4909 21.4713L22.8243 21.4724Z" fill="black"/>
<path d="M25.8959 19.7282L25.9105 1.45355L24.5772 1.45248L24.5625 19.7271L25.8959 19.7282Z" fill="black"/>
<path d="M28.9675 18.2972L28.9821 0.0224867L27.6488 0.0214167L27.6341 18.2961L28.9675 18.2972Z" fill="black"/>
<path d="M7.47467 18.2822L7.488 0.00617218L6.15467 0.00519943L6.14133 18.2812L7.47467 18.2822Z" fill="black"/>
</svg>
