<svg version="1.2" xmlns="http://www.w3.org/2000/svg" viewBox="0 0 800 800" width="800" height="800">
	<title>SpringMediator-ai</title>
	<style>
		tspan { white-space:pre } 
		.s0 { fill: #e57d26 } 
		.s1 { fill: #fefefe } 
		.t2 { font-size: 20px;fill: #ffffff;font-weight: 400;font-family: "Roboto-Regular", "Roboto" } 
	</style>
	<g id="Layer 1">
		<g id="&lt;Group&gt;">
			<path id="&lt;Path&gt;" class="s0" d="m367.5 354.3c-7.9 0.1-13.2 1-15.9 1.8v48.8c3.3 0.8 7.3 1 12.8 1.1 20.7 0.1 33.8-10.1 33.8-27.4 0-15.6-11.2-24.7-30.7-24.3z"/>
			<path id="&lt;Compound Path&gt;" fill-rule="evenodd" class="s0" d="m729.7 157.6v486.1c0 24.5-20 44.5-44.5 44.5h-209.7c-0.9 0-1.9-0.1-2.8-0.2v59.8l-409.3-56v-582l409.3-54.6v58c0.9 0 1.9-0.1 2.8-0.1h209.7c24.5 0 44.5 19.9 44.5 44.5zm-25.5 486.1v-486.1c0-10.5-8.5-19.1-19-19.1h-209.7c-1 0-1.9 0.2-2.8 0.3v254.3c13.9-5.6 42.1-5.6 42.1-5.6 0 0-29.1 5.7-28.5 12.6 0.7 7 93 7.6 127.8-1.9-6.3 5.5-13.4 16.8-73.4 18.9-34.3 1.2-57-1.9-68-7.3v69.3c6.6-0.6 11.8-0.8 13-0.9 0 0-6.4 1.1-13 2.9v14.2c19.6 4 55.8 7 90.1 5.2 49.4-2.5 80.2-11 83.5-14.3 3.4-3.4 0.9-6.3 0.9-6.3 0 0 7.1 4.6 1.7 10.5-5.5 5.9-38.8 19.8-114.7 19.8-27.4 0-47.2-1.1-61.5-3.1v155.4c0.9 0.1 1.8 0.3 2.8 0.3h209.7c10.5 0 19-8.6 19-19.1z"/>
			<path id="&lt;Path&gt;" class="s1" d="m683.6 636.7h-210.9v-318.9h210.9z"/>
		</g>
		<text id="S
" style="transform: matrix(32,0,0,32,79.677,623.741)" >
			<tspan x="0" y="0" class="t2" dx="0 -2" >S
</tspan>
		</text>
		<path id="&lt;Compound Path&gt;" fill-rule="evenodd" class="s0" d="m668.5 302.5q0 0 0 0c12.8 38.7 20.4 71.1 17.6 96.8-3.7 52.5-47.8 93.6-100.3 93.6-23.8 0-46.7-8.4-64.9-23.7l-3.7-3.3c-20-19-31.3-45.4-31.3-73 0-55.3 45.5-100.8 100.7-100.8 26.7 0 52.3 10.6 71.2 29.5 4.3-5.9 7.9-12.3 10.7-19.1q0 0 0 0zm-137 164c3-3.7 2.4-9.2-1.3-12.2-1.5-1.2-3.4-1.9-5.4-1.9-4.7 0-8.6 3.9-8.6 8.6 0 4.8 3.9 8.7 8.6 8.7 2.6 0 5.1-1.2 6.7-3.2zm136.6-30.2c25.2-33.7 11.2-88.2-0.6-123-10.4 21.8-36.1 38.5-58.3 43.8-20.9 4.9-39.3 0.8-58.6 8.3-44 16.9-43.2 69.4-19 81.2l1.4 0.7c0 0 35.6-7 55.3-14.3 28.7-10.6 60.2-36.8 70.6-67.3-5.6 31.7-32.6 62.1-59.9 76-14.5 7.5-25.8 9.1-49.7 17.4-2.9 1.2-5.2 2.1-5.2 2.1 6-1 12.1-1.3 12.1-1.3 34-1.6 87.1 9.5 111.9-23.6z"/>
	</g>
</svg>