<?xml version="1.0" encoding="UTF-8" standalone="no"?>
<!-- 
 Copyright (c) 2024, WSO2 LLC. (https://www.wso2.com). All Rights Reserved.

 This software is the property of WSO2 LLC. and its suppliers, if any.
 Dissemination of any information or reproduction of any material contained
 herein in any form is strictly forbidden, unless permitted by WSO2 expressly.
 You may not alter or remove any copyright or other notice from copies of this content.
-->

<svg
   xmlns:dc="http://purl.org/dc/elements/1.1/"
   xmlns:cc="http://creativecommons.org/ns#"
   xmlns:rdf="http://www.w3.org/1999/02/22-rdf-syntax-ns#"
   xmlns:svg="http://www.w3.org/2000/svg"
   xmlns="http://www.w3.org/2000/svg"
   viewBox="0 0 53.333332 53.333065"
   height="53.333065"
   width="53.333332"
   xml:space="preserve"
   id="svg2"
   version="1.1"><metadata
     id="metadata8"><rdf:RDF><cc:Work
         rdf:about=""><dc:format>image/svg+xml</dc:format><dc:type
           rdf:resource="http://purl.org/dc/dcmitype/StillImage" /></cc:Work></rdf:RDF></metadata><defs
     id="defs6"><clipPath
       id="clipPath18"
       clipPathUnits="userSpaceOnUse"><path
         id="path16"
         d="M 0,40 H 40 V 0 H 0 Z" /></clipPath></defs><g
     transform="matrix(1.3333333,0,0,-1.3333333,0,53.333332)"
     id="g10"><g
       id="g12"><g
         clip-path="url(#clipPath18)"
         id="g14"><g
           transform="translate(30.123,12.9912)"
           id="g20"><path
             id="path22"
             style="fill:#3b97d3;fill-opacity:1;fill-rule:nonzero;stroke:none"
             d="m 0,0 1.116,-1.857 -2.373,-2.374 -1.857,1.116 c -0.212,0.128 -0.473,0.147 -0.701,0.052 L -7.462,-4.574 C -7.691,-4.669 -7.861,-4.866 -7.921,-5.106 L -8.445,-7.21 h -3.356 l -0.524,2.104 c -0.06,0.24 -0.23,0.437 -0.459,0.532 l -3.647,1.511 c -0.229,0.095 -0.489,0.076 -0.701,-0.052 l -1.857,-1.116 -2.374,2.374 1.116,1.857 c 0.128,0.212 0.147,0.473 0.052,0.701 l -1.511,3.647 c -0.095,0.228 -0.293,0.399 -0.533,0.459 l -2.103,0.524 v 3.356 l 2.103,0.524 c 0.24,0.06 0.438,0.23 0.533,0.459 l 1.511,3.646 c 0.095,0.229 0.076,0.49 -0.052,0.702 l -1.116,1.857 2.374,2.374 1.857,-1.117 c 0.212,-0.127 0.472,-0.147 0.701,-0.052 l 3.647,1.511 c 0.229,0.096 0.399,0.293 0.459,0.534 l 0.524,2.103 h 3.356 l 0.524,-2.103 c 0.06,-0.241 0.23,-0.438 0.459,-0.534 l 3.647,-1.511 c 0.228,-0.095 0.489,-0.075 0.701,0.052 L -1.257,18.249 1.116,15.875 0,14.018 C -0.127,13.806 -0.146,13.545 -0.052,13.316 L 1.459,9.67 C 1.555,9.441 1.752,9.271 1.992,9.211 L 4.096,8.687 V 5.331 L 1.992,4.807 C 1.752,4.747 1.555,4.576 1.459,4.348 L -0.052,0.701 C -0.146,0.473 -0.127,0.212 0,0 M 2.771,-1.575 1.543,0.467 2.752,3.386 5.065,3.962 c 0.349,0.087 0.593,0.399 0.593,0.759 v 1.507 h 3.438 c 0.431,0 0.781,0.349 0.781,0.781 0,0.431 -0.35,0.781 -0.781,0.781 H 5.658 v 1.507 c 0,0.359 -0.244,0.672 -0.593,0.759 l -2.313,0.576 -1.209,2.919 1.228,2.042 c 0.184,0.307 0.136,0.701 -0.118,0.955 l -3.237,3.237 c -0.254,0.254 -0.647,0.302 -0.955,0.117 l -2.042,-1.227 -2.919,1.209 -0.576,2.314 c -0.087,0.348 -0.4,0.592 -0.759,0.592 h -1.507 v 3.438 c 0,0.431 -0.349,0.781 -0.781,0.781 -0.432,0 -0.781,-0.35 -0.781,-0.781 V 22.79 h -1.508 c -0.359,0 -0.671,-0.244 -0.758,-0.592 l -0.576,-2.314 -2.919,-1.21 -2.043,1.228 c -0.307,0.185 -0.701,0.137 -0.954,-0.117 l -3.237,-3.237 c -0.254,-0.254 -0.303,-0.648 -0.118,-0.955 l 1.228,-2.043 -1.21,-2.918 -2.313,-0.577 C -25.66,9.969 -25.904,9.656 -25.904,9.297 V 7.79 h -3.438 c -0.431,0 -0.781,-0.35 -0.781,-0.781 0,-0.432 0.35,-0.781 0.781,-0.781 h 3.438 V 4.721 c 0,-0.36 0.244,-0.672 0.592,-0.759 l 2.313,-0.576 1.21,-2.919 -1.228,-2.042 c -0.184,-0.308 -0.136,-0.701 0.118,-0.955 l 3.237,-3.238 c 0.253,-0.253 0.647,-0.301 0.955,-0.117 l 2.042,1.228 2.919,-1.209 0.577,-2.314 c 0.086,-0.348 0.399,-0.592 0.757,-0.592 h 1.508 v -3.438 c 0,-0.432 0.349,-0.781 0.781,-0.781 0.432,0 0.781,0.349 0.781,0.781 v 3.438 h 1.507 c 0.359,0 0.672,0.244 0.759,0.592 l 0.576,2.314 2.919,1.209 2.042,-1.228 c 0.308,-0.184 0.701,-0.136 0.955,0.117 l 3.237,3.238 c 0.254,0.254 0.302,0.647 0.118,0.955" /></g><g
           transform="translate(29.6211,16.1357)"
           id="g24"><path
             id="path26"
             style="fill:#3b97d3;fill-opacity:1;fill-rule:nonzero;stroke:none"
             d="m 0,0 c 0.154,0.403 -0.047,0.855 -0.45,1.01 -0.403,0.154 -0.855,-0.047 -1.009,-0.45 -1.262,-3.29 -4.477,-5.467 -8.002,-5.417 -4.652,0.066 -8.382,3.905 -8.316,8.557 0.067,4.652 3.905,8.383 8.557,8.316 3.335,-0.048 6.336,-2.061 7.645,-5.131 0.17,-0.397 0.629,-0.581 1.025,-0.412 0.397,0.169 0.581,0.629 0.412,1.025 -1.55,3.637 -5.107,6.024 -9.06,6.081 -5.513,0.078 -10.063,-4.343 -10.141,-9.857 -0.079,-5.513 4.342,-10.063 9.856,-10.142 C -5.306,-6.479 -1.495,-3.899 0,0" /></g><g
           transform="translate(29.2188,19.2188)"
           id="g28"><path
             id="path30"
             style="fill:#3b97d3;fill-opacity:1;fill-rule:nonzero;stroke:none"
             d="M 0,0 H 0.037 0.039 C 0.47,0 0.819,0.348 0.82,0.779 0.821,1.21 0.473,1.561 0.041,1.562 H 0 C -0.432,1.562 -0.781,1.213 -0.781,0.781 -0.781,0.35 -0.432,0 0,0" /></g><g
           transform="translate(26.2236,17.7734)"
           id="g32"><path
             id="path34"
             style="fill:#3b97d3;fill-opacity:1;fill-rule:nonzero;stroke:none"
             d="m 0,0 v 4.553 c 0,0.432 -0.35,0.781 -0.781,0.781 -0.432,0 -0.781,-0.349 -0.781,-0.781 V 0 c 0,-0.432 0.349,-0.782 0.781,-0.782 C -0.35,-0.782 0,-0.432 0,0" /></g><g
           transform="translate(20.8257,21.5454)"
           id="g36"><path
             id="path38"
             style="fill:#3b97d3;fill-opacity:1;fill-rule:nonzero;stroke:none"
             d="m 0,0 h 0.829 c 0.228,0 0.414,-0.186 0.414,-0.414 v -0.233 c 0,-0.228 -0.186,-0.414 -0.414,-0.414 H 0 v 0.285 z m -1.562,0.781 v -1.557 -1.066 -1.93 c 0,-0.432 0.349,-0.782 0.781,-0.782 0.431,0 0.781,0.35 0.781,0.782 v 1.148 h 0.829 c 1.089,0 1.976,0.887 1.976,1.977 v 0.233 c 0,1.09 -0.887,1.976 -1.976,1.976 h -1.61 c -0.432,0 -0.781,-0.349 -0.781,-0.781" /></g><g
           transform="translate(15.7031,23.1079)"
           id="g40"><path
             id="path42"
             style="fill:#3b97d3;fill-opacity:1;fill-rule:nonzero;stroke:none"
             d="m 0,0 c -0.312,0 -0.595,-0.186 -0.718,-0.473 l -2.005,-4.673 c -0.171,-0.396 0.013,-0.856 0.41,-1.026 0.396,-0.17 0.855,0.013 1.026,0.41 L 0,-2.763 1.287,-5.762 c 0.127,-0.297 0.416,-0.474 0.718,-0.474 0.103,0 0.208,0.021 0.308,0.064 0.396,0.17 0.58,0.63 0.41,1.025 L 0.718,-0.473 C 0.595,-0.186 0.312,0 0,0" /></g></g></g></g></svg>