<svg version="1.2" xmlns="http://www.w3.org/2000/svg" viewBox="0 0 800 800" width="800" height="800">
	<title>BeanMediator-ai</title>
	<style>
		tspan { white-space:pre } 
		.s0 { fill: #e67d24 } 
		.t1 { font-size: 14px;fill: #ffffff;font-weight: 400;font-family: "Roboto-Regular", "Roboto" } 
	</style>
	<g id="Layer 1">
		<g id="&lt;Group&gt;">
			<path id="&lt;Path&gt;" class="s0" d="m365 351.1c-8.3 0.1-13.8 1-16.7 1.8v51.6c3.4 0.8 7.6 1.1 13.5 1.1 21.9 0.2 35.6-10.6 35.6-28.9 0-16.5-11.8-26-32.4-25.6z"/>
			<path id="&lt;Compound Path&gt;" fill-rule="evenodd" class="s0" d="m747.2 143.5v513c0 25.8-21 46.9-46.9 46.9h-221.3c-1 0-2-0.1-2.9-0.1v63.1l-431.9-59.2v-614.1l431.9-57.7v61.3c0.9-0.1 1.9-0.2 2.9-0.2h221.3c25.9 0 46.9 21.1 46.9 47zm-26.8 513v-513c0-11.1-9-20.2-20.1-20.2h-221.3c-1 0-2 0.2-2.9 0.4v268.3c14.6-5.9 44.3-5.9 44.3-5.9 0 0-30.7 6-30 13.4 0.7 7.3 98.1 7.9 134.8-2.1-6.6 5.8-14 17.7-77.4 20-36.2 1.3-60.2-2.1-71.7-7.8v73.2c6.9-0.6 12.5-0.8 13.6-1 0 0-6.7 1.2-13.6 3.1v14.9c20.6 4.3 58.9 7.4 95 5.6 52.1-2.7 84.6-11.6 88.2-15.1 3.5-3.6 0.8-6.7 0.8-6.7 0 0 7.6 4.9 1.8 11.1-5.7 6.2-40.9 20.9-121 20.9-28.8 0-49.8-1.2-64.8-3.3v164c0.9 0.1 1.9 0.3 2.9 0.3h221.3c11.1 0 20.1-9 20.1-20.1z"/>
			<path id="&lt;Path&gt;" class="s0" d="m594.5 260c16-26.1-2-51.4-2-51.4 0 0 4 18.7-6.6 38-10.7 19.4-50.1 30.7-65.5 64.1-15.3 33.4 34.1 71.4 34.1 71.4 0 0-18.1-34.7-17.4-60.1 0.5-18.1 41.4-36 57.4-62z"/>
			<path id="&lt;Path&gt;" class="s0" d="m621.9 276.7c0 0-61.4 23.3-61.4 50 0 26.7 16.7 35.4 19.4 44 2.6 8.7-4.7 23.4-4.7 23.4 0 0 24-16.7 20-36-4-19.4-22.7-25.4-12-44.8 7.1-12.9 38.7-36.6 38.7-36.6z"/>
			<path id="&lt;Path&gt;" class="s0" d="m634.6 387.5c0 0 27.4 0 30 16.6 2.7 16.7-34.7 41.4-34.7 41.4 0 0 58.9-11.8 53.4-42-6.7-36.7-48.7-16-48.7-16z"/>
			<path id="&lt;Path&gt;" class="s0" d="m503.7 431.5c-2.6-4.7 4.7-7.3 4.7-7.3-33.4 8-15.1 22 24 24.7 33.5 2.2 71-10.1 71-10.1l11.6-9.3c0 0-26.5 3.7-47.2 6-27.8 3.1-61.4 0.7-64.1-4z"/>
			<path id="&lt;Path&gt;" class="s0" d="m515.1 463.6c-1.3-3.2 1.3-4.9 1.3-4.9 0 0-15.1 0.4-16 8.4-0.9 8 4.7 12 42.2 11.1 44.6-1 52-6.3 56.6-10.2l10.8-8.2c-29.1 3.8-31.4 4.8-47.9 5.3-16.6 0.5-45.7 1.5-47-1.5z"/>
			<path id="&lt;Path&gt;" class="s0" d="m630.8 520.9c-35.2 7.2-141.9 2.7-141.9 2.7 0 0 69.4 16.4 148.6 2.7 37.8-6.6 40-25 40-25 0 0-11.6 12.5-46.7 19.6z"/>
		</g>
		<text id="B
" style="transform: matrix(32,0,0,32,104.538,559.004)" >
			<tspan x="0" y="0" class="t1" dx="0 -1" >B
</tspan>
		</text>
	</g>
</svg>