<svg version="1.2" xmlns="http://www.w3.org/2000/svg" viewBox="0 0 800 800" width="800" height="800">
	<title>ClassMediator-ai</title>
	<style>
		tspan { white-space:pre } 
		.s0 { fill: #e57d26 } 
		.t1 { font-size: 20px;fill: #ffffff;font-weight: 400;font-family: "Roboto-Regular", "Roboto" } 
	</style>
	<g id="Layer 1">
		<g id="&lt;Group&gt;">
			<path id="&lt;Path&gt;" class="s0" d="m378.2 347.1c-7.7 0.1-13 0.9-15.7 1.7v48.4c3.2 0.8 7.2 1 12.7 1.1 20.5 0.1 33.4-10 33.4-27.2 0-15.4-11.1-24.4-30.4-24z"/>
			<path id="&lt;Compound Path&gt;" fill-rule="evenodd" class="s0" d="m737.1 152.1v481.7c0 24.3-19.8 44-44.1 44h-207.8c-0.9 0-1.8 0-2.7-0.1v59.2l-405.5-55.5v-576.6l405.5-54.1v57.5c0.9 0 1.8-0.1 2.7-0.1h207.8c24.3 0 44.1 19.8 44.1 44zm-25.2 481.7v-481.6c0-10.5-8.5-18.9-18.9-18.9h-207.8c-0.9 0-1.8 0.1-2.7 0.3v251.9c13.7-5.5 41.6-5.6 41.6-5.6 0 0-28.8 5.7-28.2 12.6 0.7 6.9 92.2 7.5 126.6-1.9-6.2 5.4-13.2 16.6-72.6 18.7-34.1 1.2-56.6-1.9-67.4-7.3v68.7c6.5-0.6 11.7-0.8 12.8-0.9 0 0-6.3 1.1-12.8 2.9v14c19.4 4.1 55.3 7 89.3 5.2 48.9-2.5 79.4-10.8 82.7-14.2 3.3-3.3 0.8-6.2 0.8-6.2 0 0 7.1 4.6 1.7 10.4-5.4 5.8-38.4 19.6-113.6 19.6-27.1 0-46.8-1.1-60.9-3.1v154c0.9 0.1 1.8 0.3 2.7 0.3h207.8c10.4 0 18.9-8.5 18.9-18.9z"/>
			<path id="&lt;Path&gt;" class="s0" d="m593.7 261.5c15-24.4-1.9-48.2-1.9-48.2 0 0 3.8 17.5-6.2 35.7-10 18.2-47.1 28.8-61.5 60.1-14.3 31.4 32 67.1 32 67.1 0 0-16.9-32.6-16.3-56.4 0.5-17 38.8-33.9 53.9-58.3z"/>
			<path id="&lt;Path&gt;" class="s0" d="m619.4 277.2c0 0-57.6 21.9-57.6 47 0 25.1 15.6 33.2 18.1 41.3 2.6 8.2-4.3 22-4.3 22 0 0 22.5-15.7 18.7-33.9-3.7-18.2-21.3-23.8-11.2-42 6.7-12.1 36.3-34.4 36.3-34.4z"/>
			<path id="&lt;Path&gt;" class="s0" d="m631.3 381.2c0 0 25.7 0 28.2 15.7 2.5 15.6-32.6 38.8-32.6 38.8 0 0 55.3-11.1 50.1-39.4-6.2-34.5-45.7-15.1-45.7-15.1z"/>
			<path id="&lt;Path&gt;" class="s0" d="m508.5 422.6c-2.5-4.4 4.4-6.9 4.4-6.9-31.4 7.5-14.3 20.6 22.5 23.2 31.5 2.1 66.7-9.4 66.7-9.4l10.8-8.8c0 0-24.8 3.4-44.3 5.6-26.1 3-57.6 0.6-60.1-3.7z"/>
			<path id="&lt;Path&gt;" class="s0" d="m519.2 452.7c-1.3-3 1.2-4.6 1.2-4.6 0 0-14.2 0.4-15 7.9-0.9 7.5 4.4 11.3 39.5 10.4 41.9-1 48.9-5.9 53.2-9.6l10.2-7.6c-27.4 3.5-29.5 4.5-45 4.9-15.6 0.5-42.9 1.5-44.1-1.4z"/>
			<path id="&lt;Path&gt;" class="s0" d="m627.8 506.5c-33.1 6.7-133.3 2.5-133.3 2.5 0 0 65.2 15.5 139.5 2.5 35.6-6.1 37.6-23.4 37.6-23.4 0 0-10.8 11.7-43.8 18.4z"/>
		</g>
		<text id="C
" style="transform: matrix(32,0,0,32,75.735,621.994)" >
			<tspan x="0" y="0" class="t1" dx="0 -2" >C
</tspan>
		</text>
	</g>
</svg>