<?xml version="1.0" encoding="UTF-8" standalone="no"?>
<!-- 
 Copyright (c) 2024, WSO2 LLC. (https://www.wso2.com). All Rights Reserved.

 This software is the property of WSO2 LLC. and its suppliers, if any.
 Dissemination of any information or reproduction of any material contained
 herein in any form is strictly forbidden, unless permitted by WSO2 expressly.
 You may not alter or remove any copyright or other notice from copies of this content.
-->

<svg
   xmlns:dc="http://purl.org/dc/elements/1.1/"
   xmlns:cc="http://creativecommons.org/ns#"
   xmlns:rdf="http://www.w3.org/1999/02/22-rdf-syntax-ns#"
   xmlns:svg="http://www.w3.org/2000/svg"
   xmlns="http://www.w3.org/2000/svg"
   viewBox="0 0 26.2652 25.592667"
   height="25.592667"
   width="26.2652"
   xml:space="preserve"
   id="svg2"
   version="1.1"><metadata
     id="metadata8"><rdf:RDF><cc:Work
         rdf:about=""><dc:format>image/svg+xml</dc:format><dc:type
           rdf:resource="http://purl.org/dc/dcmitype/StillImage" /></cc:Work></rdf:RDF></metadata><defs
     id="defs6"><clipPath
       id="clipPath22"
       clipPathUnits="userSpaceOnUse"><path
         id="path20"
         d="M 0,25 H 25 V 0 H 0 Z" /></clipPath></defs><g
     transform="matrix(1.3333333,0,0,-1.3333333,-3.6967999,28.995999)"
     id="g10"><g
       transform="translate(3.2886,6.792)"
       id="g12"><path
         id="path14"
         style="fill:#e54c3b;fill-opacity:1;fill-rule:nonzero;stroke:none"
         d="M 0,0 V 14.439 H 7.478 V 10.83 h 3.609 V 0 Z m 7.993,14.075 2.73,-2.73 h -2.73 z m -0.151,0.88 H -0.516 V -0.516 h 12.119 v 11.71 z" /></g><g
       id="g16"><g
         clip-path="url(#clipPath22)"
         id="g18"><g
           transform="translate(5.3511,17.3638)"
           id="g24"><path
             id="path26"
             style="fill:#e54c3b;fill-opacity:1;fill-rule:nonzero;stroke:none"
             d="M 0,0 H 2.321 C 2.463,0 2.579,0.115 2.579,0.258 2.579,0.4 2.463,0.516 2.321,0.516 H 0 C -0.142,0.516 -0.258,0.4 -0.258,0.258 -0.258,0.115 -0.142,0 0,0" /></g><g
           transform="translate(9.7349,12.207)"
           id="g28"><path
             id="path30"
             style="fill:#e54c3b;fill-opacity:1;fill-rule:nonzero;stroke:none"
             d="m 0,0 h -4.384 c -0.142,0 -0.258,-0.115 -0.258,-0.258 0,-0.142 0.116,-0.258 0.258,-0.258 H 0 c 0.142,0 0.258,0.116 0.258,0.258 C 0.258,-0.115 0.142,0 0,0" /></g><g
           transform="translate(5.3511,15.3008)"
           id="g32"><path
             id="path34"
             style="fill:#e54c3b;fill-opacity:1;fill-rule:nonzero;stroke:none"
             d="m 0,0 h 1.29 c 0.142,0 0.257,0.116 0.257,0.258 0,0.143 -0.115,0.258 -0.257,0.258 H 0 C -0.142,0.516 -0.258,0.401 -0.258,0.258 -0.258,0.116 -0.142,0 0,0" /></g><g
           transform="translate(7.6719,15.5591)"
           id="g36"><path
             id="path38"
             style="fill:#e54c3b;fill-opacity:1;fill-rule:nonzero;stroke:none"
             d="m 0,0 c 0,-0.067 0.028,-0.134 0.075,-0.183 0.049,-0.046 0.116,-0.075 0.183,-0.075 0.067,0 0.134,0.029 0.183,0.075 0.046,0.049 0.075,0.116 0.075,0.183 0,0.067 -0.029,0.134 -0.075,0.183 -0.095,0.095 -0.268,0.095 -0.366,0 C 0.028,0.134 0,0.067 0,0" /></g><g
           transform="translate(6.6406,14.0117)"
           id="g40"><path
             id="path42"
             style="fill:#e54c3b;fill-opacity:1;fill-rule:nonzero;stroke:none"
             d="m 0,0 c -0.143,0 -0.258,-0.115 -0.258,-0.258 0,-0.142 0.115,-0.258 0.258,-0.258 h 2.578 c 0.143,0 0.258,0.116 0.258,0.258 C 2.836,-0.115 2.721,0 2.578,0 Z" /></g><g
           transform="translate(5.3511,13.4961)"
           id="g44"><path
             id="path46"
             style="fill:#e54c3b;fill-opacity:1;fill-rule:nonzero;stroke:none"
             d="m 0,0 c 0.067,0 0.134,0.028 0.183,0.075 0.046,0.049 0.075,0.116 0.075,0.183 0,0.067 -0.029,0.134 -0.075,0.183 -0.095,0.095 -0.27,0.095 -0.366,0 -0.046,-0.049 -0.075,-0.113 -0.075,-0.183 0,-0.067 0.029,-0.134 0.075,-0.183 C -0.134,0.028 -0.067,0 0,0" /></g><g
           transform="translate(9.2187,10.4023)"
           id="g48"><path
             id="path50"
             style="fill:#e54c3b;fill-opacity:1;fill-rule:nonzero;stroke:none"
             d="m 0,0 h -2.578 c -0.143,0 -0.258,-0.115 -0.258,-0.258 0,-0.142 0.115,-0.259 0.258,-0.259 H 0 c 0.143,0 0.258,0.117 0.258,0.259 C 0.258,-0.115 0.143,0 0,0" /></g><g
           transform="translate(5.168,10.3271)"
           id="g52"><path
             id="path54"
             style="fill:#e54c3b;fill-opacity:1;fill-rule:nonzero;stroke:none"
             d="m 0,0 c -0.046,-0.047 -0.075,-0.113 -0.075,-0.183 0,-0.07 0.026,-0.134 0.075,-0.183 0.049,-0.046 0.116,-0.075 0.183,-0.075 0.07,0 0.134,0.029 0.183,0.075 0.047,0.049 0.075,0.116 0.075,0.183 0,0.07 -0.028,0.134 -0.075,0.18 C 0.271,0.096 0.098,0.096 0,0" /></g><g
           transform="translate(7.0776,19.6021)"
           id="g56"><path
             id="path58"
             style="fill:#ffffff;fill-opacity:1;fill-rule:nonzero;stroke:none"
             d="M 0,0 7.74,0.509 11.451,-3.203 11.33,-14.25 H -0.509 Z" /></g><g
           transform="translate(7.0776,5.3516)"
           id="g60"><path
             id="path62"
             style="fill:#e54c3b;fill-opacity:1;fill-rule:nonzero;stroke:none"
             d="m 0,0 v 14.25 h 7.379 v -3.562 h 3.563 V 0 Z m 7.888,13.891 2.695,-2.694 H 7.888 Z M 7.74,14.759 H -0.509 V -0.509 h 11.96 v 11.556 z" /></g><g
           transform="translate(9.1133,15.7847)"
           id="g64"><path
             id="path66"
             style="fill:#e54c3b;fill-opacity:1;fill-rule:nonzero;stroke:none"
             d="m 0,0 h 2.291 c 0.14,0 0.254,0.114 0.254,0.255 0,0.141 -0.114,0.254 -0.254,0.254 H 0 C -0.141,0.509 -0.254,0.396 -0.254,0.255 -0.254,0.114 -0.141,0 0,0" /></g><g
           transform="translate(13.4395,10.6953)"
           id="g68"><path
             id="path70"
             style="fill:#e54c3b;fill-opacity:1;fill-rule:nonzero;stroke:none"
             d="m 0,0 h -4.326 c -0.141,0 -0.255,-0.113 -0.255,-0.254 0,-0.142 0.114,-0.255 0.255,-0.255 H 0 c 0.141,0 0.254,0.113 0.254,0.255 C 0.254,-0.113 0.141,0 0,0" /></g><g
           transform="translate(15.9844,12.4766)"
           id="g72"><path
             id="path74"
             style="fill:#e54c3b;fill-opacity:1;fill-rule:nonzero;stroke:none"
             d="m 0,0 h -1.781 c -0.141,0 -0.255,-0.114 -0.255,-0.254 0,-0.141 0.114,-0.255 0.255,-0.255 H 0 c 0.141,0 0.254,0.114 0.254,0.255 C 0.254,-0.114 0.141,0 0,0" /></g><g
           transform="translate(9.1133,13.749)"
           id="g76"><path
             id="path78"
             style="fill:#e54c3b;fill-opacity:1;fill-rule:nonzero;stroke:none"
             d="m 0,0 h 1.272 c 0.141,0 0.255,0.114 0.255,0.254 0,0.141 -0.114,0.255 -0.255,0.255 H 0 C -0.141,0.509 -0.254,0.395 -0.254,0.254 -0.254,0.114 -0.141,0 0,0" /></g><g
           transform="translate(12.9302,13.749)"
           id="g80"><path
             id="path82"
             style="fill:#e54c3b;fill-opacity:1;fill-rule:nonzero;stroke:none"
             d="m 0,0 h 1.782 c 0.14,0 0.254,0.114 0.254,0.254 0,0.141 -0.114,0.255 -0.254,0.255 H 0 C -0.14,0.509 -0.254,0.395 -0.254,0.254 -0.254,0.114 -0.14,0 0,0" /></g><g
           transform="translate(11.4038,14.0034)"
           id="g84"><path
             id="path86"
             style="fill:#e54c3b;fill-opacity:1;fill-rule:nonzero;stroke:none"
             d="m 0,0 c 0,-0.066 0.028,-0.132 0.074,-0.181 0.048,-0.046 0.114,-0.073 0.18,-0.073 0.066,0 0.133,0.027 0.181,0.073 C 0.48,-0.132 0.509,-0.066 0.509,0 0.509,0.066 0.48,0.133 0.435,0.181 0.341,0.275 0.17,0.275 0.074,0.181 0.028,0.133 0,0.066 0,0" /></g><g
           transform="translate(10.3857,12.4766)"
           id="g88"><path
             id="path90"
             style="fill:#e54c3b;fill-opacity:1;fill-rule:nonzero;stroke:none"
             d="m 0,0 c -0.141,0 -0.254,-0.114 -0.254,-0.254 0,-0.141 0.113,-0.255 0.254,-0.255 h 2.544 c 0.142,0 0.255,0.114 0.255,0.255 C 2.799,-0.114 2.686,0 2.544,0 Z" /></g><g
           transform="translate(9.1133,11.9678)"
           id="g92"><path
             id="path94"
             style="fill:#e54c3b;fill-opacity:1;fill-rule:nonzero;stroke:none"
             d="m 0,0 c 0.066,0 0.132,0.028 0.181,0.074 0.046,0.048 0.073,0.114 0.073,0.18 0,0.067 -0.027,0.133 -0.073,0.181 -0.095,0.094 -0.267,0.094 -0.362,0 -0.046,-0.048 -0.073,-0.112 -0.073,-0.181 0,-0.066 0.027,-0.132 0.073,-0.18 C -0.132,0.028 -0.066,0 0,0" /></g><g
           transform="translate(15.9844,8.9141)"
           id="g96"><path
             id="path98"
             style="fill:#e54c3b;fill-opacity:1;fill-rule:nonzero;stroke:none"
             d="m 0,0 h -1.781 c -0.141,0 -0.255,-0.113 -0.255,-0.255 0,-0.141 0.114,-0.254 0.255,-0.254 H 0 c 0.141,0 0.254,0.113 0.254,0.254 C 0.254,-0.113 0.141,0 0,0" /></g><g
           transform="translate(12.9302,8.9141)"
           id="g100"><path
             id="path102"
             style="fill:#e54c3b;fill-opacity:1;fill-rule:nonzero;stroke:none"
             d="m 0,0 h -2.544 c -0.141,0 -0.255,-0.113 -0.255,-0.255 0,-0.141 0.114,-0.254 0.255,-0.254 H 0 c 0.141,0 0.254,0.113 0.254,0.254 C 0.254,-0.113 0.141,0 0,0" /></g><g
           transform="translate(8.9326,8.8398)"
           id="g104"><path
             id="path106"
             style="fill:#e54c3b;fill-opacity:1;fill-rule:nonzero;stroke:none"
             d="m 0,0 c -0.046,-0.045 -0.074,-0.111 -0.074,-0.181 0,-0.068 0.026,-0.131 0.074,-0.18 0.048,-0.045 0.115,-0.074 0.181,-0.074 0.069,0 0.132,0.029 0.18,0.074 0.046,0.049 0.074,0.115 0.074,0.18 0,0.07 -0.028,0.133 -0.074,0.179 C 0.267,0.095 0.097,0.095 0,0" /></g><g
           transform="translate(15.8037,14.1841)"
           id="g108"><path
             id="path110"
             style="fill:#e54c3b;fill-opacity:1;fill-rule:nonzero;stroke:none"
             d="m 0,0 c -0.046,-0.048 -0.074,-0.114 -0.074,-0.181 0,-0.066 0.028,-0.132 0.074,-0.18 0.048,-0.046 0.114,-0.074 0.181,-0.074 0.065,0 0.131,0.028 0.18,0.074 0.048,0.048 0.074,0.114 0.074,0.18 C 0.435,-0.114 0.409,-0.048 0.361,0 0.265,0.094 0.097,0.094 0,0" /></g><g
           transform="translate(14.8926,10.2607)"
           id="g112"><path
             id="path114"
             style="fill:#e54c3b;fill-opacity:1;fill-rule:nonzero;stroke:none"
             d="m 0,0 c 0.046,0.048 0.073,0.114 0.073,0.181 0,0.066 -0.027,0.131 -0.073,0.18 -0.097,0.094 -0.268,0.094 -0.361,0 -0.046,-0.049 -0.075,-0.114 -0.075,-0.18 0,-0.067 0.029,-0.133 0.075,-0.181 0.048,-0.049 0.111,-0.074 0.18,-0.074 0.069,0 0.132,0.028 0.181,0.074" /></g><g
           transform="translate(15.8037,10.6221)"
           id="g116"><path
             id="path118"
             style="fill:#e54c3b;fill-opacity:1;fill-rule:nonzero;stroke:none"
             d="m 0,0 c -0.046,-0.049 -0.074,-0.114 -0.074,-0.181 0,-0.066 0.028,-0.132 0.074,-0.18 0.048,-0.046 0.111,-0.075 0.181,-0.075 0.068,0 0.131,0.029 0.18,0.075 0.046,0.048 0.074,0.114 0.074,0.18 C 0.435,-0.114 0.407,-0.049 0.361,0 0.267,0.094 0.094,0.094 0,0" /></g><g
           transform="translate(11.0205,17.3115)"
           id="g120"><path
             id="path122"
             style="fill:#ffffff;fill-opacity:1;fill-rule:nonzero;stroke:none"
             d="M 0,0 7.739,0.509 11.451,-3.203 11.33,-14.25 H -0.509 Z" /></g><g
           transform="translate(11.0205,3.0615)"
           id="g124"><path
             id="path126"
             style="fill:#e54c3b;fill-opacity:1;fill-rule:nonzero;stroke:none"
             d="m 0,0 v 14.25 h 7.38 v -3.562 h 3.562 V 0 Z m 7.889,13.89 2.694,-2.694 H 7.889 Z m -0.15,0.869 H -0.509 V -0.509 h 11.96 v 11.556 z" /></g><g
           transform="translate(13.0566,13.4946)"
           id="g128"><path
             id="path130"
             style="fill:#e54c3b;fill-opacity:1;fill-rule:nonzero;stroke:none"
             d="m 0,0 h 2.29 c 0.141,0 0.255,0.114 0.255,0.254 0,0.141 -0.114,0.255 -0.255,0.255 H 0 C -0.141,0.509 -0.255,0.395 -0.255,0.254 -0.255,0.114 -0.141,0 0,0" /></g><g
           transform="translate(17.3828,8.4053)"
           id="g132"><path
             id="path134"
             style="fill:#e54c3b;fill-opacity:1;fill-rule:nonzero;stroke:none"
             d="m 0,0 h -4.326 c -0.141,0 -0.255,-0.114 -0.255,-0.255 0,-0.141 0.114,-0.254 0.255,-0.254 H 0 c 0.14,0 0.254,0.113 0.254,0.254 C 0.254,-0.114 0.14,0 0,0" /></g><g
           transform="translate(19.9268,10.1865)"
           id="g136"><path
             id="path138"
             style="fill:#e54c3b;fill-opacity:1;fill-rule:nonzero;stroke:none"
             d="m 0,0 h -1.781 c -0.141,0 -0.254,-0.114 -0.254,-0.255 0,-0.141 0.113,-0.254 0.254,-0.254 H 0 c 0.141,0 0.255,0.113 0.255,0.254 C 0.255,-0.114 0.141,0 0,0" /></g><g
           transform="translate(13.0566,11.459)"
           id="g140"><path
             id="path142"
             style="fill:#e54c3b;fill-opacity:1;fill-rule:nonzero;stroke:none"
             d="m 0,0 h 1.272 c 0.14,0 0.254,0.113 0.254,0.254 0,0.142 -0.114,0.255 -0.254,0.255 H 0 C -0.141,0.509 -0.255,0.396 -0.255,0.254 -0.255,0.113 -0.141,0 0,0" /></g><g
           transform="translate(16.873,11.459)"
           id="g144"><path
             id="path146"
             style="fill:#e54c3b;fill-opacity:1;fill-rule:nonzero;stroke:none"
             d="m 0,0 h 1.781 c 0.141,0 0.255,0.113 0.255,0.254 0,0.142 -0.114,0.255 -0.255,0.255 H 0 C -0.14,0.509 -0.254,0.396 -0.254,0.254 -0.254,0.113 -0.14,0 0,0" /></g><g
           transform="translate(15.3467,11.7129)"
           id="g148"><path
             id="path150"
             style="fill:#e54c3b;fill-opacity:1;fill-rule:nonzero;stroke:none"
             d="m 0,0 c 0,-0.065 0.028,-0.132 0.073,-0.181 0.049,-0.045 0.115,-0.073 0.182,-0.073 0.065,0 0.132,0.028 0.181,0.073 C 0.48,-0.132 0.509,-0.065 0.509,0 0.509,0.066 0.48,0.133 0.436,0.181 0.341,0.275 0.171,0.275 0.073,0.181 0.028,0.133 0,0.066 0,0" /></g><g
           transform="translate(14.3291,10.1865)"
           id="g152"><path
             id="path154"
             style="fill:#e54c3b;fill-opacity:1;fill-rule:nonzero;stroke:none"
             d="m 0,0 c -0.141,0 -0.255,-0.114 -0.255,-0.255 0,-0.141 0.114,-0.254 0.255,-0.254 h 2.544 c 0.141,0 0.255,0.113 0.255,0.254 C 2.799,-0.114 2.685,0 2.544,0 Z" /></g><g
           transform="translate(13.0566,9.6777)"
           id="g156"><path
             id="path158"
             style="fill:#e54c3b;fill-opacity:1;fill-rule:nonzero;stroke:none"
             d="m 0,0 c 0.065,0 0.132,0.027 0.181,0.073 0.046,0.049 0.073,0.115 0.073,0.181 0,0.066 -0.027,0.133 -0.073,0.181 -0.095,0.094 -0.268,0.094 -0.362,0 -0.046,-0.048 -0.074,-0.112 -0.074,-0.181 0,-0.066 0.028,-0.132 0.074,-0.181 C -0.133,0.027 -0.066,0 0,0" /></g><g
           transform="translate(19.9268,6.624)"
           id="g160"><path
             id="path162"
             style="fill:#e54c3b;fill-opacity:1;fill-rule:nonzero;stroke:none"
             d="m 0,0 h -1.781 c -0.141,0 -0.254,-0.114 -0.254,-0.255 0,-0.141 0.113,-0.254 0.254,-0.254 H 0 c 0.141,0 0.255,0.113 0.255,0.254 C 0.255,-0.114 0.141,0 0,0" /></g><g
           transform="translate(16.873,6.624)"
           id="g164"><path
             id="path166"
             style="fill:#e54c3b;fill-opacity:1;fill-rule:nonzero;stroke:none"
             d="m 0,0 h -2.544 c -0.141,0 -0.255,-0.114 -0.255,-0.255 0,-0.141 0.114,-0.254 0.255,-0.254 H 0 c 0.141,0 0.255,0.113 0.255,0.254 C 0.255,-0.114 0.141,0 0,0" /></g><g
           transform="translate(12.8755,6.5498)"
           id="g168"><path
             id="path170"
             style="fill:#e54c3b;fill-opacity:1;fill-rule:nonzero;stroke:none"
             d="m 0,0 c -0.045,-0.046 -0.074,-0.111 -0.074,-0.181 0,-0.068 0.026,-0.131 0.074,-0.18 0.048,-0.046 0.115,-0.074 0.181,-0.074 0.069,0 0.132,0.028 0.181,0.074 0.046,0.049 0.073,0.115 0.073,0.18 0,0.07 -0.027,0.133 -0.073,0.179 C 0.267,0.095 0.097,0.095 0,0" /></g><g
           transform="translate(19.7461,11.8936)"
           id="g172"><path
             id="path174"
             style="fill:#ffffff;fill-opacity:1;fill-rule:nonzero;stroke:none"
             d="m 0,0 c -0.046,-0.048 -0.073,-0.114 -0.073,-0.181 0,-0.065 0.027,-0.131 0.073,-0.18 0.049,-0.045 0.115,-0.074 0.181,-0.074 0.066,0 0.132,0.029 0.18,0.074 0.049,0.049 0.075,0.115 0.075,0.18 C 0.436,-0.114 0.41,-0.048 0.361,0 0.265,0.095 0.097,0.095 0,0" /></g><g
           transform="translate(18.835,7.9697)"
           id="g176"><path
             id="path178"
             style="fill:#e54c3b;fill-opacity:1;fill-rule:nonzero;stroke:none"
             d="m 0,0 c 0.046,0.049 0.074,0.115 0.074,0.181 0,0.066 -0.028,0.132 -0.074,0.18 -0.097,0.095 -0.267,0.095 -0.361,0 -0.045,-0.048 -0.074,-0.114 -0.074,-0.18 0,-0.066 0.029,-0.132 0.074,-0.181 0.049,-0.048 0.112,-0.073 0.18,-0.073 0.07,0 0.133,0.027 0.181,0.073" /></g><g
           transform="translate(19.7461,8.3311)"
           id="g180"><path
             id="path182"
             style="fill:#e54c3b;fill-opacity:1;fill-rule:nonzero;stroke:none"
             d="m 0,0 c -0.046,-0.048 -0.073,-0.114 -0.073,-0.181 0,-0.065 0.027,-0.131 0.073,-0.18 0.049,-0.046 0.112,-0.074 0.181,-0.074 0.069,0 0.132,0.028 0.18,0.074 0.046,0.049 0.075,0.115 0.075,0.18 C 0.436,-0.114 0.407,-0.048 0.361,0 0.268,0.095 0.095,0.095 0,0" /></g></g></g></g></svg>