<svg version="1.2" xmlns="http://www.w3.org/2000/svg" viewBox="0 0 800 800" width="800" height="800">
	<title>CommandMediator-ai</title>
	<style>
		tspan { white-space:pre } 
		.s0 { fill: #e67d24 } 
		.t1 { font-size: 20px;fill: #ffffff;font-weight: 400;font-family: "Roboto-Regular", "Roboto" } 
	</style>
	<g id="Layer 1">
		<g id="&lt;Group&gt;">
			<path id="&lt;Path&gt;" class="s0" d="m376.5 357.4c-8 0.2-13.4 1-16.2 1.8v50c3.3 0.8 7.4 1.1 13.1 1.1 21.2 0.1 34.5-10.3 34.5-28.1 0-15.9-11.4-25.2-31.4-24.8z"/>
			<path id="&lt;Compound Path&gt;" fill-rule="evenodd" class="s0" d="m747.1 156.1v497.4c0 25.1-20.4 45.6-45.5 45.6h-214.6c-0.9 0-1.8-0.1-2.8-0.2v61.2l-418.8-57.3v-595.6l418.8-55.9v59.4c1 0 1.9-0.1 2.8-0.1h214.6c25.1 0 45.5 20.4 45.5 45.5zm-26 497.4v-497.4c0-10.7-8.7-19.5-19.5-19.5h-214.6c-0.9 0-1.9 0.2-2.8 0.3v260.2c14.2-5.7 43-5.7 43-5.7 0 0-29.7 5.8-29.1 12.9 0.7 7.2 95.2 7.8 130.7-1.9-6.4 5.5-13.6 17.1-75 19.3-35.2 1.2-58.4-2-69.6-7.5v70.9c6.7-0.6 12.1-0.8 13.2-0.9 0 0-6.5 1.1-13.2 3v14.5c20 4.1 57.1 7.1 92.2 5.3 50.5-2.6 82-11.2 85.5-14.6 3.4-3.5 0.8-6.5 0.8-6.5 0 0 7.3 4.7 1.7 10.8-5.6 6-39.6 20.3-117.3 20.3-28 0-48.3-1.2-62.9-3.2v159c0.9 0.1 1.9 0.2 2.8 0.2h214.6c10.8 0 19.5-8.7 19.5-19.5z"/>
			<path id="&lt;Path&gt;" class="s0" d="m599.1 269.1c15.5-25.3-2-49.9-2-49.9 0 0 3.9 18.2-6.4 36.9-10.4 18.8-48.6 29.8-63.5 62.2-14.8 32.3 33 69.2 33 69.2 0 0-17.5-33.7-16.8-58.3 0.5-17.5 40.1-34.9 55.7-60.1z"/>
			<path id="&lt;Path&gt;" class="s0" d="m625.6 285.3c0 0-59.5 22.6-59.5 48.5 0 25.9 16.2 34.3 18.7 42.7 2.6 8.4-4.5 22.7-4.5 22.7 0 0 23.3-16.2 19.4-35-3.9-18.8-22-24.6-11.6-43.4 6.9-12.5 37.5-35.5 37.5-35.5z"/>
			<path id="&lt;Path&gt;" class="s0" d="m637.9 392.7c0 0 26.6 0 29.1 16.2 2.6 16.1-33.6 40.1-33.6 40.1 0 0 57-11.5 51.7-40.8-6.4-35.6-47.2-15.5-47.2-15.5z"/>
			<path id="&lt;Path&gt;" class="s0" d="m511 435.4c-2.5-4.5 4.6-7.1 4.6-7.1-32.4 7.8-14.7 21.3 23.2 23.9 32.6 2.3 68.9-9.7 68.9-9.7l11.2-9c0 0-25.6 3.5-45.7 5.8-27 3-59.6 0.6-62.2-3.9z"/>
			<path id="&lt;Path&gt;" class="s0" d="m522.1 466.5c-1.4-3 1.2-4.8 1.2-4.8 0 0-14.6 0.4-15.5 8.2-0.8 7.8 4.6 11.7 40.9 10.8 43.2-1 50.4-6.2 54.9-9.9l10.5-7.9c-28.3 3.6-30.4 4.6-46.4 5.1-16.1 0.4-44.4 1.5-45.6-1.5z"/>
			<path id="&lt;Path&gt;" class="s0" d="m634.2 522.1c-34.1 6.9-137.6 2.6-137.6 2.6 0 0 67.3 16 144.1 2.6 36.7-6.4 38.9-24.2 38.9-24.2 0 0-11.3 12.1-45.4 19z"/>
		</g>
		<text id="P
" style="transform: matrix(32,0,0,32,79.672,630.115)" >
			<tspan x="0" y="0" class="t1" dx="0 -2" >P
</tspan>
		</text>
	</g>
</svg>