<?xml version="1.0" encoding="UTF-8" standalone="no"?>
<!-- 
 Copyright (c) 2024, WSO2 LLC. (https://www.wso2.com). All Rights Reserved.

 This software is the property of WSO2 LLC. and its suppliers, if any.
 Dissemination of any information or reproduction of any material contained
 herein in any form is strictly forbidden, unless permitted by WSO2 expressly.
 You may not alter or remove any copyright or other notice from copies of this content.
-->

<svg
   xmlns:dc="http://purl.org/dc/elements/1.1/"
   xmlns:cc="http://creativecommons.org/ns#"
   xmlns:rdf="http://www.w3.org/1999/02/22-rdf-syntax-ns#"
   xmlns:svg="http://www.w3.org/2000/svg"
   xmlns="http://www.w3.org/2000/svg"
   viewBox="0 0 30.726665 23.873333"
   height="23.873333"
   width="30.726665"
   xml:space="preserve"
   id="svg2"
   version="1.1"><metadata
     id="metadata8"><rdf:RDF><cc:Work
         rdf:about=""><dc:format>image/svg+xml</dc:format><dc:type
           rdf:resource="http://purl.org/dc/dcmitype/StillImage" /></cc:Work></rdf:RDF></metadata><defs
     id="defs6"><clipPath
       id="clipPath18"
       clipPathUnits="userSpaceOnUse"><path
         id="path16"
         d="M 0,25 H 25 V 0 H 0 Z" /></clipPath></defs><g
     transform="matrix(1.3333333,0,0,-1.3333333,-1.3028,28.603333)"
     id="g10"><g
       id="g12"><g
         clip-path="url(#clipPath18)"
         id="g14"><g
           transform="translate(5.2231,12.4775)"
           id="g20"><path
             id="path22"
             style="fill:none;stroke:#955ba5;stroke-width:1;stroke-linecap:butt;stroke-linejoin:miter;stroke-miterlimit:10;stroke-dasharray:none;stroke-opacity:1"
             d="m 0,0 14.553,-0.045 m 0,-6.512 H 10.825 L 3.802,6.557 0,6.602 m 16.426,1.827 c -1.034,0 -1.873,-0.838 -1.873,-1.872 0,-1.035 0.839,-1.873 1.873,-1.873 1.034,0 1.873,0.838 1.873,1.873 0,1.034 -0.839,1.872 -1.873,1.872 z m 0,-13.114 c -1.034,0 -1.873,-0.837 -1.873,-1.872 0,-1.034 0.839,-1.873 1.873,-1.873 1.034,0 1.873,0.839 1.873,1.873 0,1.035 -0.839,1.872 -1.873,1.872 z m 0,6.512 c -1.034,0 -1.873,-0.838 -1.873,-1.872 0,-1.035 0.839,-1.873 1.873,-1.873 1.034,0 1.873,0.838 1.873,1.873 0,1.034 -0.839,1.872 -1.873,1.872 z M -1.873,8.475 c -1.034,0 -1.873,-0.839 -1.873,-1.873 0,-1.035 0.839,-1.873 1.873,-1.873 C -0.838,4.729 0,5.567 0,6.602 0,7.636 -0.838,8.475 -1.873,8.475 Z m 0,-13.114 c -1.034,0 -1.873,-0.839 -1.873,-1.873 0,-1.034 0.839,-1.873 1.873,-1.873 1.035,0 1.873,0.839 1.873,1.873 0,1.034 -0.838,1.873 -1.873,1.873 z M 0,0 c 0,-1.034 -0.838,-1.873 -1.873,-1.873 -1.034,0 -1.873,0.839 -1.873,1.873 0,1.034 0.839,1.873 1.873,1.873 C -0.838,1.873 0,1.034 0,0 Z" /></g></g></g></g></svg>