<?xml version="1.0" encoding="UTF-8" standalone="no"?>
<!-- 
 Copyright (c) 2024, WSO2 LLC. (https://www.wso2.com). All Rights Reserved.

 This software is the property of WSO2 LLC. and its suppliers, if any.
 Dissemination of any information or reproduction of any material contained
 herein in any form is strictly forbidden, unless permitted by WSO2 expressly.
 You may not alter or remove any copyright or other notice from copies of this content.
-->

<svg xmlns="http://www.w3.org/2000/svg" viewBox="0 0 50 50" height="30" width="30" id="default-svg" version="1.1">
<g id="Layer_1">
    <path d="M25,0C11.2,0,0,11.2,0,25s11.2,25,25,25s25-11.2,25-25S38.8,0,25,0z M25,45c-11,0-20-9-20-20
        s9-20,20-20s20,9,20,20S36,45,25,45z"/>
    <path d="M20,15h10c1.1,0,2,0.9,2,2v16c0,1.1-0.9,2-2,2H20c-1.1,0-2-0.9-2-2V17C18,15.9,18.9,15,20,15z M28,31
        c0,0.6-0.4,1-1,1s-1-0.4-1-1v-8c0-0.6,0.4-1,1-1s1,0.4,1,1V31z"/>
</g>
</svg>
