<?xml version="1.0" encoding="UTF-8" standalone="no"?>
<!-- 
 Copyright (c) 2024, WSO2 LLC. (https://www.wso2.com). All Rights Reserved.

 This software is the property of WSO2 LLC. and its suppliers, if any.
 Dissemination of any information or reproduction of any material contained
 herein in any form is strictly forbidden, unless permitted by WSO2 expressly.
 You may not alter or remove any copyright or other notice from copies of this content.
-->

<svg
   xmlns:dc="http://purl.org/dc/elements/1.1/"
   xmlns:cc="http://creativecommons.org/ns#"
   xmlns:rdf="http://www.w3.org/1999/02/22-rdf-syntax-ns#"
   xmlns:svg="http://www.w3.org/2000/svg"
   xmlns="http://www.w3.org/2000/svg"
   viewBox="0 0 32.416 31.483999"
   height="31.483999"
   width="32.416"
   xml:space="preserve"
   id="svg2"
   version="1.1"><metadata
     id="metadata8"><rdf:RDF><cc:Work
         rdf:about=""><dc:format>image/svg+xml</dc:format><dc:type
           rdf:resource="http://purl.org/dc/dcmitype/StillImage" /></cc:Work></rdf:RDF></metadata><defs
     id="defs6"><clipPath
       id="clipPath18"
       clipPathUnits="userSpaceOnUse"><path
         id="path16"
         d="M 0,25 H 25 V 0 H 0 Z" /></clipPath></defs><g
     transform="matrix(1.3333333,0,0,-1.3333333,-0.45906666,32.408399)"
     id="g10"><g
       id="g12"><g
         clip-path="url(#clipPath18)"
         id="g14"><g
           transform="translate(5.3306,13.0981)"
           id="g20"><path
             id="path22"
             style="fill:#3e97d3;fill-opacity:1;fill-rule:nonzero;stroke:none"
             d="m 0,0 c -0.092,0 -0.181,0.037 -0.247,0.103 l -0.641,0.645 c -0.136,0.137 -0.135,0.357 0.001,0.493 0.137,0.135 0.357,0.135 0.493,-0.002 l 0.37,-0.372 1.078,1.307 C 1.177,2.322 1.396,2.343 1.545,2.221 1.693,2.098 1.714,1.879 1.592,1.73 L 0.269,0.126 C 0.207,0.051 0.115,0.005 0.016,0 Z" /></g><g
           transform="translate(5.3306,13.0981)"
           id="g24"><path
             id="path26"
             style="fill:none;stroke:#3e97d3;stroke-width:0.5;stroke-linecap:butt;stroke-linejoin:miter;stroke-miterlimit:10;stroke-dasharray:none;stroke-opacity:1"
             d="m 0,0 c -0.092,0 -0.181,0.037 -0.247,0.103 l -0.641,0.645 c -0.136,0.137 -0.135,0.357 0.001,0.493 0.137,0.135 0.357,0.135 0.493,-0.002 l 0.37,-0.372 1.078,1.307 C 1.177,2.322 1.396,2.343 1.545,2.221 1.693,2.098 1.714,1.879 1.592,1.73 L 0.269,0.126 C 0.207,0.051 0.115,0.005 0.016,0 Z" /></g><g
           transform="translate(16.3184,13.8999)"
           id="g28"><path
             id="path30"
             style="fill:#3e97d3;fill-opacity:1;fill-rule:nonzero;stroke:none"
             d="m 0,0 h -7.582 c -0.192,0 -0.348,0.156 -0.348,0.349 0,0.192 0.156,0.348 0.348,0.348 H 0 C 0.192,0.697 0.349,0.541 0.349,0.349 0.349,0.156 0.192,0 0,0" /></g><g
           transform="translate(16.3184,13.8999)"
           id="g32"><path
             id="path34"
             style="fill:none;stroke:#3e97d3;stroke-width:0.5;stroke-linecap:butt;stroke-linejoin:miter;stroke-miterlimit:10;stroke-dasharray:none;stroke-opacity:1"
             d="m 0,0 h -7.582 c -0.192,0 -0.348,0.156 -0.348,0.349 0,0.192 0.156,0.348 0.348,0.348 H 0 C 0.192,0.697 0.349,0.541 0.349,0.349 0.349,0.156 0.192,0 0,0 Z" /></g><g
           transform="translate(5.3306,16.8286)"
           id="g36"><path
             id="path38"
             style="fill:#3e97d3;fill-opacity:1;fill-rule:nonzero;stroke:none"
             d="m 0,0 c -0.092,0 -0.181,0.037 -0.247,0.103 l -0.641,0.645 c -0.136,0.137 -0.135,0.357 0.001,0.493 0.137,0.135 0.357,0.135 0.493,-0.002 l 0.37,-0.372 1.078,1.307 C 1.177,2.322 1.396,2.343 1.545,2.221 1.693,2.098 1.714,1.878 1.592,1.73 L 0.269,0.126 C 0.207,0.051 0.115,0.005 0.016,0 Z" /></g><g
           transform="translate(5.3306,16.8286)"
           id="g40"><path
             id="path42"
             style="fill:none;stroke:#3e97d3;stroke-width:0.5;stroke-linecap:butt;stroke-linejoin:miter;stroke-miterlimit:10;stroke-dasharray:none;stroke-opacity:1"
             d="m 0,0 c -0.092,0 -0.181,0.037 -0.247,0.103 l -0.641,0.645 c -0.136,0.137 -0.135,0.357 0.001,0.493 0.137,0.135 0.357,0.135 0.493,-0.002 l 0.37,-0.372 1.078,1.307 C 1.177,2.322 1.396,2.343 1.545,2.221 1.693,2.098 1.714,1.878 1.592,1.73 L 0.269,0.126 C 0.207,0.051 0.115,0.005 0.016,0 Z" /></g><g
           transform="translate(16.3184,17.6304)"
           id="g44"><path
             id="path46"
             style="fill:#3e97d3;fill-opacity:1;fill-rule:nonzero;stroke:none"
             d="m 0,0 h -7.582 c -0.192,0 -0.348,0.156 -0.348,0.349 0,0.192 0.156,0.348 0.348,0.348 H 0 C 0.192,0.697 0.349,0.541 0.349,0.349 0.349,0.156 0.192,0 0,0" /></g><g
           transform="translate(16.3184,17.6304)"
           id="g48"><path
             id="path50"
             style="fill:none;stroke:#3e97d3;stroke-width:0.5;stroke-linecap:butt;stroke-linejoin:miter;stroke-miterlimit:10;stroke-dasharray:none;stroke-opacity:1"
             d="m 0,0 h -7.582 c -0.192,0 -0.348,0.156 -0.348,0.349 0,0.192 0.156,0.348 0.348,0.348 H 0 C 0.192,0.697 0.349,0.541 0.349,0.349 0.349,0.156 0.192,0 0,0 Z" /></g><g
           transform="translate(8.6904,4.9502)"
           id="g52"><path
             id="path54"
             style="fill:#3e97d3;fill-opacity:1;fill-rule:nonzero;stroke:none"
             d="m 0,0 c -0.092,0 -0.182,0.036 -0.247,0.103 l -0.641,0.645 c -0.136,0.137 -0.135,0.357 0.001,0.493 0.137,0.135 0.357,0.135 0.493,-0.002 l 0.37,-0.373 1.078,1.308 C 1.177,2.322 1.396,2.343 1.545,2.221 1.693,2.098 1.714,1.879 1.592,1.729 L 0.269,0.126 C 0.206,0.051 0.115,0.005 0.016,0 Z" /></g><g
           transform="translate(8.6904,4.9502)"
           id="g56"><path
             id="path58"
             style="fill:none;stroke:#3e97d3;stroke-width:0.5;stroke-linecap:butt;stroke-linejoin:miter;stroke-miterlimit:10;stroke-dasharray:none;stroke-opacity:1"
             d="m 0,0 c -0.092,0 -0.182,0.036 -0.247,0.103 l -0.641,0.645 c -0.136,0.137 -0.135,0.357 0.001,0.493 0.137,0.135 0.357,0.135 0.493,-0.002 l 0.37,-0.373 1.078,1.308 C 1.177,2.322 1.396,2.343 1.545,2.221 1.693,2.098 1.714,1.879 1.592,1.729 L 0.269,0.126 C 0.206,0.051 0.115,0.005 0.016,0 Z" /></g><g
           transform="translate(19.6777,5.752)"
           id="g60"><path
             id="path62"
             style="fill:#3e97d3;fill-opacity:1;fill-rule:nonzero;stroke:none"
             d="m 0,0 h -7.581 c -0.193,0 -0.349,0.155 -0.349,0.349 0,0.192 0.156,0.347 0.349,0.347 H 0 C 0.192,0.696 0.349,0.541 0.349,0.349 0.349,0.155 0.192,0 0,0" /></g><g
           transform="translate(19.6777,5.752)"
           id="g64"><path
             id="path66"
             style="fill:none;stroke:#3e97d3;stroke-width:0.5;stroke-linecap:butt;stroke-linejoin:miter;stroke-miterlimit:10;stroke-dasharray:none;stroke-opacity:1"
             d="m 0,0 h -7.581 c -0.193,0 -0.349,0.155 -0.349,0.349 0,0.192 0.156,0.347 0.349,0.347 H 0 C 0.192,0.696 0.349,0.541 0.349,0.349 0.349,0.155 0.192,0 0,0 Z" /></g><g
           transform="translate(8.6904,8.6807)"
           id="g68"><path
             id="path70"
             style="fill:#3e97d3;fill-opacity:1;fill-rule:nonzero;stroke:none"
             d="m 0,0 c -0.092,0 -0.182,0.036 -0.247,0.103 l -0.641,0.645 c -0.136,0.137 -0.135,0.357 0.001,0.493 0.137,0.135 0.357,0.135 0.493,-0.002 l 0.37,-0.373 1.078,1.308 C 1.177,2.321 1.396,2.343 1.545,2.221 1.693,2.098 1.714,1.878 1.592,1.729 L 0.269,0.126 C 0.206,0.051 0.115,0.005 0.016,0 Z" /></g><g
           transform="translate(8.6904,8.6807)"
           id="g72"><path
             id="path74"
             style="fill:none;stroke:#3e97d3;stroke-width:0.5;stroke-linecap:butt;stroke-linejoin:miter;stroke-miterlimit:10;stroke-dasharray:none;stroke-opacity:1"
             d="m 0,0 c -0.092,0 -0.182,0.036 -0.247,0.103 l -0.641,0.645 c -0.136,0.137 -0.135,0.357 0.001,0.493 0.137,0.135 0.357,0.135 0.493,-0.002 l 0.37,-0.373 1.078,1.308 C 1.177,2.321 1.396,2.343 1.545,2.221 1.693,2.098 1.714,1.878 1.592,1.729 L 0.269,0.126 C 0.206,0.051 0.115,0.005 0.016,0 Z" /></g><g
           transform="translate(19.6777,9.4824)"
           id="g76"><path
             id="path78"
             style="fill:#3e97d3;fill-opacity:1;fill-rule:nonzero;stroke:none"
             d="m 0,0 h -7.581 c -0.193,0 -0.349,0.156 -0.349,0.349 0,0.192 0.156,0.347 0.349,0.347 H 0 C 0.192,0.696 0.349,0.541 0.349,0.349 0.349,0.156 0.192,0 0,0" /></g><g
           transform="translate(19.6777,9.4824)"
           id="g80"><path
             id="path82"
             style="fill:none;stroke:#3e97d3;stroke-width:0.5;stroke-linecap:butt;stroke-linejoin:miter;stroke-miterlimit:10;stroke-dasharray:none;stroke-opacity:1"
             d="m 0,0 h -7.581 c -0.193,0 -0.349,0.156 -0.349,0.349 0,0.192 0.156,0.347 0.349,0.347 H 0 C 0.192,0.696 0.349,0.541 0.349,0.349 0.349,0.156 0.192,0 0,0 Z" /></g><g
           transform="translate(20.2813,1.1943)"
           id="g84"><path
             id="path86"
             style="fill:none;stroke:#3e97d3;stroke-width:1;stroke-linecap:butt;stroke-linejoin:miter;stroke-miterlimit:10;stroke-dasharray:none;stroke-opacity:1"
             d="m 0,0 -15.563,-0.001 c -2.131,0 -3.874,1.744 -3.874,3.875 v 14.863 c 0,2.131 1.743,3.875 3.874,3.875 H 0 c 2.131,0 3.875,-1.744 3.875,-3.875 V 3.874 C 3.875,1.743 2.131,0 0,0 Z" /></g></g></g></g></svg>