<?xml version="1.0" encoding="UTF-8" standalone="no"?>
<!-- 
 Copyright (c) 2024, WSO2 LLC. (https://www.wso2.com). All Rights Reserved.

 This software is the property of WSO2 LLC. and its suppliers, if any.
 Dissemination of any information or reproduction of any material contained
 herein in any form is strictly forbidden, unless permitted by WSO2 expressly.
 You may not alter or remove any copyright or other notice from copies of this content.
-->

<svg
   xmlns:dc="http://purl.org/dc/elements/1.1/"
   xmlns:cc="http://creativecommons.org/ns#"
   xmlns:rdf="http://www.w3.org/1999/02/22-rdf-syntax-ns#"
   xmlns:svg="http://www.w3.org/2000/svg"
   xmlns="http://www.w3.org/2000/svg"
   viewBox="0 0 28.982666 25.248266"
   height="25.248266"
   width="28.982666"
   xml:space="preserve"
   id="svg2"
   version="1.1"><metadata
     id="metadata8"><rdf:RDF><cc:Work
         rdf:about=""><dc:format>image/svg+xml</dc:format><dc:type
           rdf:resource="http://purl.org/dc/dcmitype/StillImage" /></cc:Work></rdf:RDF></metadata><defs
     id="defs6"><clipPath
       id="clipPath18"
       clipPathUnits="userSpaceOnUse"><path
         id="path16"
         d="M 0,25 H 25 V 0 H 0 Z" /></clipPath></defs><g
     transform="matrix(1.3333333,0,0,-1.3333333,-2.5110666,29.156266)"
     id="g10"><g
       id="g12"><g
         clip-path="url(#clipPath18)"
         id="g14"><g
           transform="translate(1.8833,21.3672)"
           id="g20"><path
             id="path22"
             style="fill:none;stroke:#3e97d3;stroke-width:1;stroke-linecap:butt;stroke-linejoin:miter;stroke-miterlimit:10;stroke-dasharray:none;stroke-opacity:1"
             d="M 0,0 H 21.737" /></g><g
           transform="translate(18.3018,5.127)"
           id="g24"><path
             id="path26"
             style="fill:#3e97d3;fill-opacity:1;fill-rule:nonzero;stroke:none"
             d="m 0,0 c -0.004,-0.01 -0.006,-0.021 -0.008,-0.031 -0.134,-0.818 -2.346,-1.693 -5.427,-1.693 -3.08,0 -5.293,0.875 -5.427,1.693 -0.002,0.01 -0.004,0.02 -0.008,0.03 v 1.988 c 0.007,-0.006 0.016,-0.011 0.022,-0.017 0.052,-0.046 0.104,-0.091 0.163,-0.135 0.891,-0.673 2.67,-1.196 5.25,-1.196 2.569,0 4.344,0.519 5.239,1.188 0.071,0.052 0.135,0.106 0.195,0.16 H 0 Z M -5.435,10.327 C -2.232,10.327 0,9.393 0,8.555 0,7.716 -2.232,6.782 -5.435,6.782 c -3.203,0 -5.435,0.934 -5.435,1.773 0,0.838 2.232,1.772 5.435,1.772 M 0,7.658 V 5.904 C -0.01,5.87 -0.014,5.835 -0.008,5.799 -0.003,5.772 0,5.746 0,5.719 0,5.682 -0.01,5.643 -0.019,5.604 -0.025,5.576 -0.035,5.548 -0.046,5.519 -0.056,5.495 -0.067,5.472 -0.08,5.448 -0.096,5.42 -0.113,5.391 -0.135,5.361 -0.15,5.34 -0.168,5.317 -0.187,5.296 -0.213,5.265 -0.24,5.234 -0.272,5.203 -0.291,5.185 -0.312,5.166 -0.334,5.147 -0.372,5.114 -0.413,5.08 -0.458,5.047 -0.478,5.032 -0.498,5.019 -0.519,5.005 -0.572,4.968 -0.628,4.931 -0.689,4.896 -0.705,4.886 -0.723,4.876 -0.739,4.866 -0.81,4.827 -0.883,4.787 -0.963,4.749 -0.973,4.744 -0.983,4.739 -0.993,4.734 -1.082,4.693 -1.175,4.652 -1.273,4.612 L -1.282,4.609 C -1.819,4.395 -2.506,4.214 -3.306,4.096 -3.31,4.096 -3.313,4.095 -3.317,4.095 -3.473,4.071 -3.632,4.051 -3.796,4.033 -3.822,4.03 -3.851,4.028 -3.878,4.025 -4.021,4.011 -4.165,3.997 -4.314,3.986 -4.382,3.981 -4.453,3.979 -4.522,3.975 -4.635,3.968 -4.746,3.961 -4.86,3.957 -5.048,3.951 -5.239,3.947 -5.435,3.947 c -0.195,0 -0.387,0.004 -0.575,0.01 -0.115,0.005 -0.225,0.012 -0.337,0.019 -0.07,0.003 -0.141,0.006 -0.209,0.011 -0.149,0.011 -0.293,0.025 -0.436,0.039 -0.027,0.003 -0.055,0.005 -0.082,0.008 -0.164,0.018 -0.323,0.038 -0.479,0.061 -0.004,0.001 -0.008,0.001 -0.012,0.002 -0.8,0.118 -1.486,0.299 -2.022,0.512 -0.003,0.001 -0.006,0.002 -0.009,0.004 -0.099,0.039 -0.192,0.08 -0.28,0.122 -0.011,0.005 -0.021,0.01 -0.032,0.015 -0.079,0.038 -0.153,0.077 -0.223,0.117 -0.016,0.01 -0.034,0.019 -0.05,0.029 -0.061,0.036 -0.117,0.073 -0.17,0.109 -0.021,0.015 -0.042,0.028 -0.061,0.043 -0.045,0.033 -0.086,0.066 -0.124,0.1 -0.021,0.019 -0.043,0.038 -0.062,0.056 -0.031,0.03 -0.059,0.062 -0.086,0.093 -0.018,0.021 -0.036,0.043 -0.051,0.065 -0.021,0.03 -0.039,0.058 -0.055,0.087 -0.013,0.024 -0.024,0.047 -0.034,0.071 -0.011,0.028 -0.02,0.057 -0.027,0.085 -0.009,0.038 -0.019,0.077 -0.019,0.114 0,0.027 0.004,0.053 0.008,0.08 0.006,0.036 0.003,0.071 -0.008,0.105 v 1.754 c 0.029,-0.025 0.061,-0.051 0.092,-0.076 0.017,-0.014 0.033,-0.028 0.051,-0.042 0.071,-0.057 0.147,-0.111 0.23,-0.165 0.018,-0.011 0.037,-0.022 0.055,-0.033 0.069,-0.044 0.143,-0.086 0.22,-0.127 0.029,-0.016 0.057,-0.031 0.087,-0.046 0.086,-0.044 0.177,-0.086 0.272,-0.128 0.015,-0.007 0.03,-0.014 0.045,-0.02 0.111,-0.047 0.229,-0.092 0.351,-0.136 0.034,-0.012 0.07,-0.024 0.104,-0.035 0.097,-0.033 0.198,-0.065 0.302,-0.095 0.038,-0.011 0.075,-0.023 0.113,-0.032 0.138,-0.038 0.281,-0.076 0.431,-0.109 0.02,-0.005 0.043,-0.009 0.063,-0.012 0.133,-0.03 0.27,-0.056 0.411,-0.081 0.047,-0.009 0.096,-0.017 0.145,-0.025 0.133,-0.021 0.272,-0.042 0.413,-0.06 0.036,-0.005 0.071,-0.01 0.108,-0.015 0.176,-0.022 0.357,-0.039 0.544,-0.055 0.046,-0.004 0.095,-0.007 0.141,-0.01 0.15,-0.011 0.303,-0.02 0.459,-0.027 0.057,-0.003 0.114,-0.005 0.172,-0.008 0.204,-0.007 0.411,-0.011 0.626,-0.011 0.215,0 0.422,0.004 0.626,0.011 0.058,0.003 0.115,0.005 0.172,0.008 0.157,0.007 0.31,0.016 0.459,0.027 0.047,0.003 0.094,0.006 0.141,0.01 0.186,0.015 0.369,0.033 0.545,0.055 0.036,0.005 0.071,0.01 0.107,0.015 0.142,0.018 0.28,0.039 0.414,0.06 0.048,0.008 0.097,0.016 0.145,0.025 0.14,0.025 0.277,0.051 0.41,0.081 0.02,0.003 0.043,0.007 0.063,0.012 0.15,0.033 0.292,0.071 0.431,0.109 0.038,0.01 0.075,0.021 0.113,0.032 0.104,0.03 0.205,0.062 0.302,0.095 0.035,0.011 0.07,0.023 0.104,0.035 0.123,0.044 0.241,0.089 0.351,0.136 0.016,0.006 0.031,0.013 0.045,0.02 0.096,0.042 0.187,0.084 0.273,0.128 0.029,0.015 0.058,0.03 0.087,0.046 0.077,0.041 0.15,0.083 0.219,0.127 0.019,0.011 0.038,0.022 0.055,0.033 0.083,0.054 0.159,0.108 0.23,0.165 0.018,0.014 0.034,0.028 0.051,0.042 C -0.061,7.607 -0.028,7.633 0,7.658 M -0.019,2.77 C -0.025,2.74 -0.035,2.712 -0.046,2.684 -0.056,2.66 -0.067,2.637 -0.08,2.613 -0.096,2.584 -0.113,2.555 -0.135,2.526 -0.15,2.504 -0.168,2.482 -0.187,2.461 -0.213,2.43 -0.24,2.398 -0.272,2.368 -0.291,2.35 -0.312,2.331 -0.334,2.313 -0.372,2.278 -0.413,2.245 -0.458,2.212 -0.478,2.197 -0.498,2.184 -0.519,2.169 -0.572,2.132 -0.628,2.096 -0.689,2.06 -0.705,2.05 -0.723,2.041 -0.739,2.031 -0.81,1.991 -0.883,1.952 -0.963,1.914 -0.973,1.909 -0.983,1.904 -0.993,1.899 -1.082,1.857 -1.175,1.816 -1.273,1.776 L -1.282,1.773 C -1.819,1.56 -2.506,1.379 -3.306,1.261 -3.31,1.26 -3.313,1.26 -3.317,1.259 -3.473,1.236 -3.632,1.216 -3.796,1.198 -3.822,1.195 -3.851,1.193 -3.878,1.19 -4.021,1.176 -4.165,1.162 -4.314,1.15 -4.382,1.146 -4.453,1.144 -4.522,1.14 -4.635,1.133 -4.746,1.125 -4.86,1.121 -5.048,1.115 -5.239,1.111 -5.435,1.111 c -0.195,0 -0.387,0.004 -0.575,0.011 -0.115,0.004 -0.225,0.012 -0.337,0.018 -0.07,0.004 -0.141,0.006 -0.209,0.011 -0.149,0.011 -0.293,0.025 -0.436,0.04 -0.027,0.002 -0.055,0.004 -0.082,0.007 -0.164,0.019 -0.323,0.039 -0.479,0.062 -0.004,0 -0.008,10e-4 -0.012,0.002 -0.8,0.118 -1.486,0.298 -2.022,0.512 l -0.009,0.003 c -0.099,0.04 -0.192,0.081 -0.28,0.123 -0.011,0.005 -0.021,0.01 -0.032,0.014 -0.079,0.039 -0.153,0.078 -0.223,0.118 -0.016,0.009 -0.034,0.019 -0.05,0.029 -0.061,0.036 -0.117,0.072 -0.17,0.109 -0.021,0.014 -0.042,0.028 -0.061,0.042 -0.045,0.033 -0.086,0.067 -0.124,0.101 -0.021,0.018 -0.043,0.037 -0.062,0.056 -0.031,0.03 -0.059,0.061 -0.086,0.092 -0.018,0.022 -0.036,0.044 -0.051,0.065 -0.021,0.03 -0.039,0.059 -0.055,0.088 -0.013,0.024 -0.024,0.047 -0.034,0.071 -0.011,0.028 -0.02,0.056 -0.027,0.085 -0.009,0.038 -0.019,0.076 -0.019,0.114 0,0.026 0.004,0.054 0.008,0.08 0.006,0.035 0.003,0.071 -0.008,0.104 v 1.755 c 0.007,-0.007 0.016,-0.012 0.022,-0.018 0.052,-0.045 0.104,-0.091 0.163,-0.134 0.891,-0.673 2.67,-1.196 5.25,-1.196 2.569,0 4.344,0.518 5.239,1.187 0.071,0.053 0.135,0.107 0.195,0.16 L 0,4.823 V 3.068 C -0.01,3.035 -0.014,2.999 -0.008,2.964 -0.003,2.938 0,2.91 0,2.884 0,2.846 -0.01,2.808 -0.019,2.77 m 0.456,6.019 c -0.273,1.013 -2.309,2.01 -5.872,2.01 -3.563,0 -5.599,-0.997 -5.873,-2.01 -0.02,-0.035 -0.034,-0.073 -0.034,-0.116 V 8.555 5.837 5.719 5.601 3.002 2.884 2.766 -0.07 c 0,-0.038 0.01,-0.075 0.028,-0.107 0.279,-1.156 2.775,-2.019 5.879,-2.019 3.097,0 5.589,0.859 5.877,2.011 0.02,0.035 0.031,0.074 0.031,0.115 v 2.836 0.118 0.118 2.599 0.118 0.118 2.718 0.118 c 0,0.043 -0.015,0.081 -0.036,0.116" /></g><g
           transform="translate(9.4072,18.1177)"
           id="g28"><path
             id="path30"
             style="fill:none;stroke:#3e97d3;stroke-width:1;stroke-linecap:butt;stroke-linejoin:miter;stroke-miterlimit:10;stroke-dasharray:none;stroke-opacity:1"
             d="M 0,0 3.372,-3.372 6.69,-0.053" /></g><g
           transform="translate(12.7788,14.7461)"
           id="g32"><path
             id="path34"
             style="fill:none;stroke:#3e97d3;stroke-width:1;stroke-linecap:butt;stroke-linejoin:miter;stroke-miterlimit:10;stroke-dasharray:none;stroke-opacity:1"
             d="M 0,0 0.014,6.721" /></g></g></g></g></svg>