<svg version="1.2" xmlns="http://www.w3.org/2000/svg" viewBox="0 0 1152 768" width="1152" height="768">
	<title>address-endpoint-ai</title>
	<style>
		tspan { white-space:pre } 
		.s0 { fill: #955aa4 } 
		.t1 { font-size: 12px;fill: #9b9c9f;font-weight: 400;font-family: "Roboto-Regular", "Roboto" } 
		.s2 { fill: none;stroke: #fefefe;stroke-miterlimit:10;stroke-width: 24 } 
		.s3 { fill: none;stroke: #fefefe;stroke-miterlimit:10;stroke-width: 32 } 
		.s4 { fill: #fefefe } 
	</style>
	<g id="Layer 1">
		<path id="&lt;Path&gt;" class="s0" d="m1152 768h-1152v-539.1h1152z"/>
		<text id="Address
" style="transform: matrix(16,0,0,16,221.528,181.308)" >
			<tspan x="0" y="0" class="t1">Address
</tspan>
		</text>
		<g id="&lt;Group&gt;">
			<path id="&lt;Path&gt;" class="s2" d="m727.4 611.7h-379.7v-257.6h379.7z"/>
			<g id="&lt;Group&gt;">
				<path id="&lt;Path&gt;" class="s3" d="m434.1 547.1l58.2-58.3-57.3-57.4"/>
				<path id="&lt;Path&gt;" class="s3" d="m492.3 488.8l-208.8 0.4"/>
			</g>
			<g id="&lt;Group&gt;">
				<g id="&lt;Group&gt;">
					<path id="&lt;Path&gt;" class="s4" d="m818.1 332.2c-27.6 0-50.1 22.5-50.1 50.1l0.2 62.1c0 4.3 3.4 7.7 7.6 7.7 4.3 0 7.7-3.4 7.7-7.6l-0.1-62.2c-0.1-19.2 15.5-34.7 34.7-34.7 19.2 0 34.9 15.7 34.9 34.9l0.1 82c0.1 9.3-3.5 18-10.1 24.6-6.6 6.6-15.3 10.2-24.6 10.2-4.3 0-7.7 3.4-7.7 7.6 0 4.2 3.5 7.7 7.7 7.7 13.4 0 26-5.2 35.4-14.7 9.5-9.4 14.7-22 14.7-35.4l-0.1-82c-0.1-27.7-22.6-50.2-50.3-50.3z"/>
					<path id="&lt;Path&gt;" class="s4" d="m852.7 522.8l0.1 60.7c0 9.3-3.6 18-10.2 24.6-6.5 6.6-15.3 10.2-24.6 10.1-19.2 0-34.8-15.6-34.9-34.8l-0.1-82.1c0-19.2 15.6-34.8 34.8-34.7 4.2 0 7.6-3.4 7.6-7.7 0-4.2-3.4-7.6-7.6-7.7-27.7 0-50.2 22.5-50.1 50.1l0.1 82c0 27.7 22.6 50.2 50.2 50.3 13.4 0 26-5.2 35.5-14.7 9.4-9.4 14.6-22 14.6-35.4l-0.1-60.7c0-4.2-3.4-7.6-7.7-7.6-4.2-0.1-7.6 3.4-7.6 7.6z"/>
				</g>
			</g>
		</g>
	</g>
</svg>