<svg width="25" height="28" viewBox="0 0 25 28" fill="none" xmlns="http://www.w3.org/2000/svg">
<path d="M11.2273 0.4375C11.1671 1.27969 11.4023 2.3625 11.8233 3.18281C12.0858 3.69141 12.6437 4.24922 13.5351 4.89453C15.6733 6.43672 16.3132 6.98906 16.8929 7.80391C17.5273 8.68984 17.7733 9.31875 17.7733 10.0406C17.7733 11.0633 17.2319 12.2227 16.1546 13.5078C15.7827 13.9508 14.8749 14.8367 14.6835 14.9461C14.6398 14.968 14.7109 14.7547 14.8421 14.4758C15.6077 12.8297 16.1273 10.8937 16.0671 9.90391C16.0507 9.57578 16.0069 9.41719 15.8812 9.1875C15.6843 8.82109 14.9898 8.12656 14.0273 7.33906C11.8179 5.52891 11.1288 4.74687 10.7351 3.62031C10.5983 3.24297 10.5874 3.12266 10.5819 2.46094C10.5819 1.59141 10.6585 1.25234 11.0194 0.519531L11.2601 0.0273438L11.2273 0.4375Z" fill="black"/>
<path d="M9.58116 6.26172C11.1124 6.95078 12.3046 7.71094 13.103 8.5039C13.5351 8.93047 13.6991 9.13281 13.8413 9.43359C14.0218 9.8 14.0273 9.84375 14.0218 10.418C14.0163 11.4297 13.7374 12.168 12.9882 13.1523C12.3757 13.9562 12.3374 14.0383 12.3757 14.6016C12.3921 14.9242 12.4523 15.2086 12.5671 15.5312C12.6601 15.7828 12.7257 16.0016 12.7148 16.0125C12.6819 16.0508 11.9054 15.2797 11.6648 14.9734C11.1835 14.3445 10.9538 13.6227 11.0523 13.0211C11.1179 12.6055 11.3038 12.1844 11.6866 11.5883C12.2226 10.7406 12.3593 10.4289 12.3593 10.0352C12.3538 9.65781 12.2116 9.25312 11.9218 8.83203C11.6484 8.42734 10.5765 7.38281 9.70694 6.67734C9.28585 6.33281 8.91945 6.03203 8.88663 6.00469C8.78273 5.91172 8.95773 5.97734 9.58116 6.26172Z" fill="black"/>
<path d="M6.15226 15.0172C6.59523 15.0883 7.54679 15.4055 7.54679 15.482C7.54679 15.5094 7.44835 15.5312 7.33351 15.5312C6.7757 15.5312 5.85695 15.843 5.48507 16.1547C5.25538 16.3516 5.03116 16.8109 5.03116 17.0844C5.0421 17.8664 5.97726 19.0039 7.62335 20.2289C7.83116 20.382 7.98976 20.5078 7.97335 20.5078C7.8421 20.5078 6.69366 20.1195 6.23976 19.9281C5.3921 19.5563 4.94366 19.2719 4.44601 18.7797C3.63663 17.9867 3.49445 17.2703 3.92101 16.2039C4.21085 15.4766 4.79601 15.0609 5.58351 15.0172C5.80773 15.0062 6.05929 15.0062 6.15226 15.0172Z" fill="black"/>
<path d="M18.6593 15.4219C19.5179 15.4766 20.1523 15.5695 20.803 15.7281C21.853 15.9906 22.214 16.3297 22.0007 16.8547C21.7929 17.3742 20.7812 17.7625 19.1132 17.9648C17.5601 18.1563 14.6069 18.1289 13.0429 17.9102C11.2765 17.6586 9.51554 17.1063 8.7171 16.543C8.50382 16.3953 8.50382 16.3953 8.66788 16.4281C10.6421 16.8055 12.1187 16.9367 14.9569 16.9914C17.3577 17.0352 19.4632 16.8984 19.9444 16.6688C20.4585 16.4227 19.7312 15.9414 18.2655 15.5586C17.9483 15.4766 17.6804 15.4 17.6694 15.3891C17.6421 15.3617 17.7843 15.3672 18.6593 15.4219Z" fill="black"/>
<path d="M19.0312 18.807C19.6655 19.0094 20.0702 19.3047 20.0702 19.5562C20.0702 19.9391 19.3155 20.3547 18.1835 20.5898C16.5866 20.918 14.7655 20.9016 12.2773 20.5297C11.621 20.4367 9.58663 20.0375 9.41163 19.9719C9.30226 19.9336 9.33507 19.8953 9.79991 19.5727C10.0788 19.3758 10.3359 19.2008 10.3741 19.1789C10.4069 19.157 10.6038 19.1789 10.8116 19.2281C12.4194 19.6 14.8421 19.8406 16.3241 19.7695C18.6538 19.6602 19.4249 19.3867 18.8616 18.8617C18.7687 18.7742 18.6976 18.7031 18.7085 18.7086C18.7194 18.7086 18.8671 18.7523 19.0312 18.807Z" fill="black"/>
<path d="M18.3913 21.7437C18.9819 21.8859 19.2499 22.1102 19.2499 22.4766C19.2499 23.2914 17.6476 23.8109 14.9296 23.882C13.6608 23.9148 12.8405 23.8547 11.8124 23.6469C11.1726 23.5211 9.81632 23.1109 9.7671 23.0289C9.75069 23.007 10.0624 22.7992 10.4507 22.5641C11.096 22.1703 11.1726 22.1375 11.3585 22.1703C13.3765 22.5148 13.6499 22.5477 14.6288 22.5477C16.0507 22.5422 17.653 22.3453 17.921 22.132C18.0085 22.0664 18.014 21.8094 17.9265 21.7219C17.839 21.6344 17.9702 21.6398 18.3913 21.7437Z" fill="black"/>
<path d="M20.9452 23.718C22.0499 23.7945 23.3952 24.0516 23.8054 24.2594C24.5601 24.6422 24.4671 25.3094 23.5976 25.7414C22.8101 26.1352 21.2515 26.3922 18.8288 26.5289C17.314 26.6109 13.0429 26.5617 11.8671 26.4469C9.00694 26.1734 6.87413 25.7031 5.73663 25.0961C5.14054 24.7789 4.96554 24.4344 5.20069 24.0625L5.32648 23.8711L5.35929 24.0625C5.37569 24.1719 5.41398 24.2867 5.43585 24.325C5.55616 24.5273 6.55148 24.8445 7.84757 25.0961C11.6046 25.8344 16.4663 25.9547 20.371 25.4023C21.6835 25.2164 22.6405 24.9266 22.6843 24.6969C22.7335 24.4398 22.1538 24.1391 21.0819 23.8656C20.4038 23.6906 20.3874 23.6742 20.9452 23.718Z" fill="black"/>
<path d="M4.21085 25.5992C4.48429 25.8344 5.73116 26.4359 6.3546 26.6328C7.54679 27.0102 8.47647 27.1797 10.0351 27.3C11.0194 27.3766 18.0085 27.3984 19.3866 27.3328C20.0648 27.3 20.0812 27.3 19.7968 27.3711C18.5554 27.6828 15.214 28 13.1741 28C10.7296 28 7.73272 27.6828 6.37101 27.2781C5.29913 26.9609 4.36397 26.332 4.05226 25.7195C3.87726 25.3641 3.91007 25.3422 4.21085 25.5992Z" fill="black"/>
<path d="M5.72253 21.0936C5.39699 21.0469 5.14216 21.032 4.88075 21.0477C3.60453 21.1198 2.22894 21.8043 1.34414 22.8063C0.660309 23.5775 0.337408 24.4324 0.446633 25.1718C0.475185 25.3671 0.503587 25.4362 0.58201 25.5057C0.68396 25.5961 0.747862 25.6051 0.945691 25.5611C1.68485 25.3984 2.49662 24.9527 3.06767 24.3972C3.23877 24.2295 3.36546 24.0888 3.56525 23.8382C4.2904 22.9309 5.10838 22.3413 6.17875 21.9568C6.37933 21.8843 6.40914 21.8697 6.46367 21.805C6.54248 21.7161 6.56233 21.6179 6.52644 21.4983C6.49667 21.3981 6.42468 21.3287 6.29039 21.2685C6.18919 21.2235 5.81139 21.1061 5.72253 21.0936Z" fill="black"/>
<path d="M7.02262 22.2783C6.93645 22.2859 6.60823 22.3759 6.37603 22.4577C6.06228 22.5661 5.79491 22.6886 5.48872 22.8653C5.16723 23.051 4.93704 23.2158 4.65966 23.4601C4.39307 23.6944 4.24603 23.8507 3.97004 24.1925C3.56443 24.692 3.25015 24.9896 2.78033 25.3183C2.4605 25.5399 2.10407 25.7291 1.69313 25.8924C1.42678 25.9989 1.38376 26.0327 1.34656 26.1716C1.30825 26.3085 1.36122 26.4489 1.48231 26.5282C1.62059 26.6219 2.01672 26.7313 2.34922 26.7702C3.26198 26.8773 4.42424 26.5724 5.34529 25.9845C6.58855 25.1902 7.36933 24.0632 7.40441 23.0147C7.41006 22.8366 7.39236 22.6491 7.35658 22.5231C7.31258 22.3673 7.17482 22.2657 7.02262 22.2783Z" fill="black"/>
</svg>
