<svg width="34" height="24" viewBox="0 0 34 24" fill="none" xmlns="http://www.w3.org/2000/svg">
<path d="M0.0671387 17.1873L0.959479 16.1966L5.77453 20.5336L10.5096 16.271L11.4017 17.262L5.77428 22.3278L0.0671387 17.1873Z" fill="black"/>
<path d="M6.44179 2.82085V21.4307H5.10846V2.82085H6.44179Z" fill="black"/>
<path d="M15.077 7.74533C14.58 7.74533 14.1567 7.6101 13.8071 7.33962C13.4575 7.06695 13.1903 6.67224 13.0056 6.15549C12.8209 5.63653 12.7285 5.00983 12.7285 4.27538C12.7285 3.54532 12.8209 2.92192 13.0056 2.40516C13.1925 1.88621 13.4608 1.4904 13.8104 1.21772C14.1622 0.942855 14.5844 0.80542 15.077 0.80542C15.5696 0.80542 15.9907 0.942855 16.3403 1.21772C16.6921 1.4904 16.9604 1.88621 17.1451 2.40516C17.332 2.92192 17.4255 3.54532 17.4255 4.27538C17.4255 5.00983 17.3331 5.63653 17.1484 6.15549C16.9637 6.67224 16.6965 7.06695 16.3469 7.33962C15.9973 7.6101 15.574 7.74533 15.077 7.74533ZM15.077 7.01968C15.5696 7.01968 15.9522 6.78219 16.2248 6.30721C16.4975 5.83224 16.6339 5.15496 16.6339 4.27538C16.6339 3.69045 16.5712 3.19239 16.4458 2.78118C16.3227 2.36998 16.1446 2.05663 15.9115 1.84113C15.6806 1.62563 15.4024 1.51788 15.077 1.51788C14.5888 1.51788 14.2073 1.75867 13.9324 2.24024C13.6576 2.71961 13.5201 3.39799 13.5201 4.27538C13.5201 4.8603 13.5817 5.35726 13.7048 5.76627C13.828 6.17528 14.005 6.48643 14.2359 6.69973C14.469 6.91303 14.7493 7.01968 15.077 7.01968Z" fill="black"/>
<path d="M23.6661 0.897776V7.65298H22.8481V1.75537H22.8085L21.1593 2.85045V2.01924L22.8481 0.897776H23.6661Z" fill="black"/>
<path d="M30.4246 7.74533C29.9277 7.74533 29.5044 7.6101 29.1547 7.33962C28.8051 7.06695 28.5379 6.67224 28.3532 6.15549C28.1685 5.63653 28.0761 5.00983 28.0761 4.27538C28.0761 3.54532 28.1685 2.92192 28.3532 2.40516C28.5401 1.88621 28.8084 1.4904 29.158 1.21772C29.5098 0.942855 29.9321 0.80542 30.4246 0.80542C30.9172 0.80542 31.3383 0.942855 31.6879 1.21772C32.0398 1.4904 32.308 1.88621 32.4927 2.40516C32.6796 2.92192 32.7731 3.54532 32.7731 4.27538C32.7731 5.00983 32.6807 5.63653 32.496 6.15549C32.3113 6.67224 32.0441 7.06695 31.6945 7.33962C31.3449 7.6101 30.9216 7.74533 30.4246 7.74533ZM30.4246 7.01968C30.9172 7.01968 31.2998 6.78219 31.5725 6.30721C31.8451 5.83224 31.9815 5.15496 31.9815 4.27538C31.9815 3.69045 31.9188 3.19239 31.7935 2.78118C31.6703 2.36998 31.4922 2.05663 31.2591 1.84113C31.0282 1.62563 30.7501 1.51788 30.4246 1.51788C29.9364 1.51788 29.5549 1.75867 29.2801 2.24024C29.0052 2.71961 28.8678 3.39799 28.8678 4.27538C28.8678 4.8603 28.9293 5.35726 29.0525 5.76627C29.1756 6.17528 29.3526 6.48643 29.5835 6.69973C29.8166 6.91303 30.097 7.01968 30.4246 7.01968Z" fill="black"/>
<path d="M17.0742 9.24505V16.0002H16.2562V10.1026H16.2166L14.5674 11.1977V10.3665L16.2562 9.24505H17.0742Z" fill="black"/>
<path d="M24.0042 9.24505V16.0002H23.1862V10.1026H23.1466L21.4974 11.1977V10.3665L23.1862 9.24505H24.0042Z" fill="black"/>
<path d="M30.7627 16.0926C30.2657 16.0926 29.8424 15.9574 29.4928 15.6869C29.1432 15.4142 28.876 15.0195 28.6913 14.5028C28.5066 13.9838 28.4142 13.3571 28.4142 12.6226C28.4142 11.8926 28.5066 11.2692 28.6913 10.7524C28.8782 10.2335 29.1465 9.83767 29.4961 9.565C29.8479 9.29013 30.2701 9.15269 30.7627 9.15269C31.2553 9.15269 31.6764 9.29013 32.026 9.565C32.3778 9.83767 32.6461 10.2335 32.8308 10.7524C33.0177 11.2692 33.1112 11.8926 33.1112 12.6226C33.1112 13.3571 33.0188 13.9838 32.8341 14.5028C32.6494 15.0195 32.3822 15.4142 32.0326 15.6869C31.683 15.9574 31.2597 16.0926 30.7627 16.0926ZM30.7627 15.3669C31.2553 15.3669 31.6379 15.1295 31.9106 14.6545C32.1832 14.1795 32.3196 13.5022 32.3196 12.6226C32.3196 12.0377 32.2569 11.5397 32.1316 11.1285C32.0084 10.7172 31.8303 10.4039 31.5972 10.1884C31.3663 9.9729 31.0881 9.86515 30.7627 9.86515C30.2745 9.86515 29.893 10.1059 29.6181 10.5875C29.3433 11.0669 29.2058 11.7453 29.2058 12.6226C29.2058 13.2076 29.2674 13.7045 29.3906 14.1135C29.5137 14.5225 29.6907 14.8337 29.9216 15.047C30.1547 15.2603 30.4351 15.3669 30.7627 15.3669Z" fill="black"/>
<path d="M15.4814 23.8595C14.9844 23.8595 14.5611 23.7243 14.2115 23.4538C13.8619 23.1811 13.5947 22.7864 13.41 22.2697C13.2253 21.7507 13.1329 21.124 13.1329 20.3895C13.1329 19.6595 13.2253 19.0361 13.41 18.5193C13.5969 18.0004 13.8652 17.6046 14.2148 17.3319C14.5666 17.057 14.9888 16.9196 15.4814 16.9196C15.974 16.9196 16.3951 17.057 16.7447 17.3319C17.0965 17.6046 17.3648 18.0004 17.5495 18.5193C17.7364 19.0361 17.8299 19.6595 17.8299 20.3895C17.8299 21.124 17.7375 21.7507 17.5528 22.2697C17.3681 22.7864 17.1009 23.1811 16.7513 23.4538C16.4017 23.7243 15.9784 23.8595 15.4814 23.8595ZM15.4814 23.1338C15.974 23.1338 16.3566 22.8964 16.6293 22.4214C16.9019 21.9464 17.0383 21.2691 17.0383 20.3895C17.0383 19.8046 16.9756 19.3066 16.8503 18.8954C16.7271 18.4842 16.549 18.1708 16.3159 17.9553C16.085 17.7398 15.8069 17.6321 15.4814 17.6321C14.9932 17.6321 14.6117 17.8728 14.3368 18.3544C14.062 18.8338 13.9245 19.5122 13.9245 20.3895C13.9245 20.9745 13.9861 21.4714 14.1093 21.8804C14.2324 22.2894 14.4094 22.6006 14.6403 22.8139C14.8734 23.0272 15.1538 23.1338 15.4814 23.1338Z" fill="black"/>
<path d="M24.0705 17.0119V23.7671H23.2525V17.8695H23.2129L21.5637 18.9646V18.1334L23.2525 17.0119H24.0705Z" fill="black"/>
<path d="M31.0006 17.0119V23.7671H30.1825V17.8695H30.143L28.4937 18.9646V18.1334L30.1825 17.0119H31.0006Z" fill="black"/>
</svg>
