<svg width="30" height="28" viewBox="0 0 30 28" fill="none" xmlns="http://www.w3.org/2000/svg">
<path d="M8.59237 24.483H11.5V22.5172H8.64391L5.59096 18.9999L4.38449 20.3899L6.20976 22.4928L0 22.5087L0.00378802 24.4744L0.657641 24.4727V24.483H6.17943L4.3333 26.6099L5.53977 27.9999L8.59237 24.483Z" fill="black"/>
<path d="M12.4951 0L17.1037 4.60856L15.6895 6.02278L12.4953 2.82867L9.36246 5.96265L7.948 4.54869L12.4951 0Z" fill="black"/>
<path d="M27.7074 23.4704L25.1669 20.3899L26.3132 18.9999L30 23.4704L26.2646 27.9999L25.1183 26.6099L27.7074 23.4704Z" fill="black"/>
<path d="M21.0036 24.4733L21 22.5075L28.8517 22.4866L28.8552 24.4523L21.0036 24.4733Z" fill="black"/>
<path d="M15.5294 11.1528L16.9436 9.73861L20.1378 12.9328L23.272 9.79861L24.6862 11.2128L20.1378 15.7613L15.5294 11.1528Z" fill="black"/>
<path d="M19 2H21V24.5H19V2Z" fill="black"/>
<path d="M11.5 1H13.5V24.5H11.5V1Z" fill="black"/>
</svg>
