<?xml version="1.0" standalone="no"?>
<!DOCTYPE svg PUBLIC "-//W3C//DTD SVG 20010904//EN"
 "http://www.w3.org/TR/2001/REC-SVG-20010904/DTD/svg10.dtd">
<svg version="1.0" xmlns="http://www.w3.org/2000/svg"
 width="512.000000pt" height="512.000000pt" viewBox="0 0 512.000000 512.000000"
 preserveAspectRatio="xMidYMid meet">

<g transform="translate(0.000000,512.000000) scale(0.100000,-0.100000)"
fill="#000000" stroke="none">
<path d="M910 5113 c-267 -42 -452 -134 -621 -310 -307 -319 -375 -781 -172
-1175 157 -306 446 -505 793 -548 46 -5 207 -10 357 -10 l273 0 0 -510 0 -510
-273 0 c-150 0 -311 -5 -357 -10 -347 -43 -636 -242 -793 -548 -167 -324 -152
-701 41 -1012 62 -100 197 -239 298 -306 417 -277 970 -213 1314 152 151 160
242 358 270 584 5 46 10 207 10 357 l0 273 510 0 510 0 0 -273 c0 -150 5 -311
10 -357 43 -347 242 -636 548 -793 403 -208 883 -130 1198 195 264 271 356
645 247 1008 -116 390 -452 669 -863 720 -46 5 -207 10 -357 10 l-273 0 0 510
0 510 273 0 c150 0 311 5 357 10 347 43 636 242 793 548 209 406 129 886 -200
1203 -319 307 -781 375 -1175 172 -306 -157 -505 -446 -548 -793 -5 -46 -10
-207 -10 -357 l0 -273 -510 0 -510 0 0 273 c0 150 -5 311 -10 357 -57 462
-400 821 -855 895 -83 14 -216 18 -275 8z m206 -514 c138 -25 286 -132 354
-257 61 -113 65 -137 65 -462 l0 -295 -295 0 c-248 0 -304 3 -350 17 -252 78
-411 322 -371 569 32 204 197 381 394 424 78 17 127 18 203 4z m3087 -4 c259
-55 441 -318 398 -576 -32 -195 -176 -357 -371 -417 -46 -14 -102 -17 -350
-17 l-295 0 0 295 c0 248 3 304 17 350 44 141 144 261 270 323 113 56 209 68
331 42z m-1133 -2035 l0 -510 -510 0 -510 0 0 510 0 510 510 0 510 0 0 -510z
m-1535 -1320 c0 -248 -3 -304 -17 -350 -78 -252 -322 -411 -569 -371 -218 34
-396 212 -430 430 -44 273 156 540 435 581 28 4 170 7 316 6 l265 -1 0 -295z
m2700 277 c192 -62 335 -224 366 -416 45 -270 -153 -538 -430 -582 -245 -40
-487 117 -568 366 -13 40 -17 109 -21 338 -2 158 -1 294 2 303 5 14 39 15 304
12 238 -4 307 -8 347 -21z"/>
</g>
</svg>
