<svg width="24" height="34" viewBox="0 0 24 34" fill="none" xmlns="http://www.w3.org/2000/svg">
<path d="M9.31605 33V29.3636H11.7663V29.9975H10.0849V30.864H11.6403V31.4979H10.0849V32.3661H11.7734V33H9.31605Z" fill="black"/>
<path d="M13.8335 29.3636H14.5935V31.8991C14.5935 32.1335 14.5408 32.3371 14.4355 32.5099C14.3313 32.6828 14.1863 32.8159 14.0004 32.9094C13.8146 33.003 13.5986 33.0497 13.3524 33.0497C13.1334 33.0497 12.9345 33.0112 12.7558 32.9343C12.5782 32.8562 12.4374 32.7378 12.3332 32.5792C12.229 32.4194 12.1775 32.2187 12.1787 31.9773H12.944C12.9463 32.0732 12.9659 32.1554 13.0026 32.2241C13.0405 32.2915 13.0919 32.3436 13.157 32.3803C13.2233 32.4158 13.3015 32.4336 13.3914 32.4336C13.4861 32.4336 13.566 32.4135 13.6311 32.3732C13.6974 32.3318 13.7477 32.2714 13.782 32.1921C13.8164 32.1128 13.8335 32.0152 13.8335 31.8991V29.3636Z" fill="black"/>
<path d="M15.2291 33V29.3636H16.6851C16.9526 29.3636 17.1758 29.4033 17.3545 29.4826C17.5332 29.5619 17.6676 29.672 17.7575 29.8129C17.8475 29.9525 17.8925 30.1135 17.8925 30.2958C17.8925 30.4379 17.8641 30.5627 17.8073 30.6705C17.7504 30.777 17.6723 30.8646 17.5729 30.9332C17.4746 31.0007 17.3622 31.0486 17.2355 31.0771V31.1126C17.374 31.1185 17.5036 31.1576 17.6244 31.2298C17.7463 31.302 17.8451 31.4032 17.9209 31.5334C17.9967 31.6624 18.0345 31.8163 18.0345 31.995C18.0345 32.188 17.9866 32.3602 17.8907 32.5117C17.796 32.6621 17.6557 32.781 17.4699 32.8686C17.2841 32.9562 17.055 33 16.7828 33H15.2291ZM15.998 32.3714H16.6247C16.839 32.3714 16.9952 32.3306 17.0935 32.2489C17.1917 32.1661 17.2409 32.056 17.2409 31.9187C17.2409 31.8181 17.2166 31.7293 17.1681 31.6523C17.1195 31.5754 17.0503 31.515 16.9603 31.4712C16.8715 31.4274 16.7656 31.4055 16.6425 31.4055H15.998V32.3714ZM15.998 30.8853H16.5679C16.6733 30.8853 16.7668 30.867 16.8485 30.8303C16.9313 30.7924 16.9964 30.7391 17.0438 30.6705C17.0923 30.6018 17.1166 30.5195 17.1166 30.4237C17.1166 30.2923 17.0698 30.1863 16.9763 30.1058C16.884 30.0253 16.7526 29.9851 16.5821 29.9851H15.998V30.8853Z" fill="black"/>
<path d="M10.8015 0.410156C10.7413 1.25234 10.9765 2.33516 11.3976 3.15547C11.6601 3.66406 12.2179 4.22188 13.1093 4.86719C15.2476 6.40937 15.8874 6.96172 16.4671 7.77656C17.1015 8.6625 17.3476 9.29141 17.3476 10.0133C17.3476 11.0359 16.8062 12.1953 15.7288 13.4805C15.3569 13.9234 14.4491 14.8094 14.2577 14.9187C14.214 14.9406 14.2851 14.7273 14.4163 14.4484C15.1819 12.8023 15.7015 10.8664 15.6413 9.87656C15.6249 9.54844 15.5812 9.38984 15.4554 9.16016C15.2585 8.79375 14.564 8.09922 13.6015 7.31172C11.3921 5.50156 10.703 4.71953 10.3093 3.59297C10.1726 3.21562 10.1616 3.09531 10.1562 2.43359C10.1562 1.56406 10.2327 1.225 10.5937 0.492188L10.8343 0L10.8015 0.410156Z" fill="black"/>
<path d="M9.15538 6.23437C10.6866 6.92344 11.8788 7.68359 12.6773 8.47656C13.1093 8.90312 13.2734 9.10547 13.4155 9.40625C13.596 9.77265 13.6015 9.8164 13.596 10.3906C13.5905 11.4023 13.3116 12.1406 12.5624 13.125C11.9499 13.9289 11.9116 14.0109 11.9499 14.5742C11.9663 14.8969 12.0265 15.1812 12.1413 15.5039C12.2343 15.7555 12.2999 15.9742 12.289 15.9852C12.2562 16.0234 11.4796 15.2523 11.239 14.9461C10.7577 14.3172 10.528 13.5953 10.6265 12.9937C10.6921 12.5781 10.878 12.157 11.2609 11.5609C11.7968 10.7133 11.9335 10.4016 11.9335 10.0078C11.928 9.63047 11.7859 9.22578 11.496 8.80469C11.2226 8.4 10.1507 7.35547 9.28116 6.65C8.86007 6.30547 8.49366 6.00469 8.46085 5.97734C8.35695 5.88437 8.53194 5.95 9.15538 6.23437Z" fill="black"/>
<path d="M5.72648 14.9898C6.16945 15.0609 7.12101 15.3781 7.12101 15.4547C7.12101 15.482 7.02257 15.5039 6.90773 15.5039C6.34991 15.5039 5.43116 15.8156 5.05929 16.1273C4.8296 16.3242 4.60538 16.7836 4.60538 17.057C4.61632 17.8391 5.55148 18.9766 7.19757 20.2016C7.40538 20.3547 7.56398 20.4805 7.54757 20.4805C7.41632 20.4805 6.26788 20.0922 5.81398 19.9008C4.96632 19.5289 4.51788 19.2445 4.02023 18.7523C3.21085 17.9594 3.06866 17.243 3.49523 16.1766C3.78507 15.4492 4.37023 15.0336 5.15773 14.9898C5.38195 14.9789 5.63351 14.9789 5.72648 14.9898Z" fill="black"/>
<path d="M18.2335 15.3945C19.0921 15.4492 19.7265 15.5422 20.3773 15.7008C21.4273 15.9633 21.7882 16.3023 21.5749 16.8273C21.3671 17.3469 20.3554 17.7352 18.6874 17.9375C17.1343 18.1289 14.1812 18.1016 12.6171 17.8828C10.8507 17.6313 9.08976 17.0789 8.29132 16.5156C8.07804 16.368 8.07804 16.368 8.2421 16.4008C10.2163 16.7781 11.6929 16.9094 14.5312 16.9641C16.9319 17.0078 19.0374 16.8711 19.5187 16.6414C20.0327 16.3953 19.3054 15.9141 17.8398 15.5313C17.5226 15.4492 17.2546 15.3727 17.2437 15.3617C17.2163 15.3344 17.3585 15.3398 18.2335 15.3945Z" fill="black"/>
<path d="M18.6054 18.7797C19.2398 18.982 19.6444 19.2773 19.6444 19.5289C19.6444 19.9117 18.8898 20.3273 17.7577 20.5625C16.1608 20.8906 14.3398 20.8742 11.8515 20.5023C11.1952 20.4094 9.16085 20.0102 8.98585 19.9445C8.87648 19.9062 8.90929 19.868 9.37413 19.5453C9.65304 19.3484 9.91007 19.1734 9.94835 19.1516C9.98116 19.1297 10.178 19.1516 10.3859 19.2008C11.9937 19.5727 14.4163 19.8133 15.8983 19.7422C18.228 19.6328 18.9991 19.3594 18.4359 18.8344C18.3429 18.7469 18.2718 18.6758 18.2827 18.6812C18.2937 18.6812 18.4413 18.725 18.6054 18.7797Z" fill="black"/>
<path d="M17.9655 21.7164C18.5562 21.8586 18.8241 22.0828 18.8241 22.4492C18.8241 23.2641 17.2218 23.7836 14.5038 23.8547C13.2351 23.8875 12.4148 23.8273 11.3866 23.6195C10.7468 23.4937 9.39054 23.0836 9.34132 23.0016C9.32491 22.9797 9.63663 22.7719 10.0249 22.5367C10.6702 22.143 10.7468 22.1102 10.9327 22.143C12.9507 22.4875 13.2241 22.5203 14.203 22.5203C15.6249 22.5148 17.2273 22.318 17.4952 22.1047C17.5827 22.0391 17.5882 21.782 17.5007 21.6945C17.4132 21.607 17.5444 21.6125 17.9655 21.7164Z" fill="black"/>
<path d="M20.5194 23.6906C21.6241 23.7672 22.9694 24.0242 23.3796 24.232C24.1343 24.6148 24.0413 25.282 23.1718 25.7141C22.3843 26.1078 20.8257 26.3648 18.403 26.5016C16.8882 26.5836 12.6171 26.5344 11.4413 26.4195C8.58116 26.1461 6.44835 25.6758 5.31085 25.0688C4.71476 24.7516 4.53976 24.407 4.77491 24.0352L4.90069 23.8438L4.93351 24.0352C4.94991 24.1445 4.98819 24.2594 5.01007 24.2977C5.13038 24.5 6.12569 24.8172 7.42179 25.0688C11.1788 25.807 16.0405 25.9273 19.9452 25.375C21.2577 25.1891 22.2148 24.8992 22.2585 24.6695C22.3077 24.4125 21.728 24.1117 20.6562 23.8383C19.978 23.6633 19.9616 23.6469 20.5194 23.6906Z" fill="black"/>
<path d="M3.78507 25.5719C4.05851 25.807 5.30538 26.4086 5.92882 26.6055C7.12101 26.9828 8.05069 27.1523 9.60929 27.2727C10.5937 27.3492 17.5827 27.3711 18.9608 27.3055C19.639 27.2727 19.6554 27.2727 19.371 27.3438C18.1296 27.6555 14.7882 27.9727 12.7483 27.9727C10.3038 27.9727 7.30694 27.6555 5.94522 27.2508C4.87335 26.9336 3.93819 26.3047 3.62647 25.6922C3.45147 25.3367 3.48429 25.3148 3.78507 25.5719Z" fill="black"/>
<path d="M5.29675 21.0663C4.9712 21.0195 4.71638 21.0046 4.45497 21.0203C3.17875 21.0925 1.80316 21.7769 0.918357 22.7789C0.234527 23.5501 -0.0883734 24.405 0.0208521 25.1444C0.0494041 25.3397 0.0778053 25.4088 0.156229 25.4784C0.258179 25.5688 0.322081 25.5778 0.51991 25.5338C1.25907 25.3711 2.07084 24.9254 2.64189 24.3699C2.81299 24.2022 2.93968 24.0614 3.13946 23.8109C3.86462 22.9036 4.6826 22.3139 5.75297 21.9294C5.95355 21.857 5.98336 21.8423 6.03789 21.7777C6.1167 21.6888 6.13655 21.5906 6.10066 21.471C6.07088 21.3708 5.9989 21.3014 5.86461 21.2411C5.76341 21.1962 5.38561 21.0788 5.29675 21.0663Z" fill="black"/>
<path d="M6.59684 22.2509C6.51067 22.2586 6.18245 22.3486 5.95025 22.4303C5.6365 22.5388 5.36913 22.6612 5.06294 22.838C4.74145 23.0236 4.51126 23.1884 4.23388 23.4328C3.96728 23.6671 3.82025 23.8234 3.54426 24.1652C3.13865 24.6647 2.82437 24.9623 2.35454 25.2909C2.03472 25.5126 1.67829 25.7018 1.26735 25.865C1.001 25.9716 0.957982 26.0054 0.920777 26.1442C0.882467 26.2812 0.935442 26.4215 1.05653 26.5009C1.19481 26.5945 1.59094 26.7039 1.92344 26.7429C2.8362 26.8499 3.99846 26.5451 4.91951 25.9572C6.16277 25.1628 6.94355 24.0359 6.97863 22.9873C6.98427 22.8093 6.96658 22.6218 6.9308 22.4957C6.8868 22.34 6.74903 22.2383 6.59684 22.2509Z" fill="black"/>
</svg>
