<svg width="30" height="24" viewBox="0 0 30 24" fill="none" xmlns="http://www.w3.org/2000/svg">
<path d="M1.36691 0.602667C1.14424 0.602667 0.962911 0.784001 0.962911 1.00667V5.59867C0.962911 5.82133 1.14424 6.00267 1.36691 6.00267H8.37358C8.59624 6.00267 8.77758 5.82133 8.77758 5.59867V1.00667C8.77758 0.784001 8.59624 0.602667 8.37358 0.602667H1.36691ZM8.37358 6.27067H1.36691C0.996245 6.27067 0.693578 5.96933 0.693578 5.59867V1.00667C0.693578 0.634667 0.996245 0.333334 1.36691 0.333334H8.37358C8.74424 0.333334 9.04691 0.634667 9.04691 1.00667V5.59867C9.04691 5.96933 8.74424 6.27067 8.37358 6.27067Z" fill="white"/>
<path fill-rule="evenodd" clip-rule="evenodd" d="M0.360245 1.00667C0.360245 0.450143 0.812579 0 1.36691 0H8.37358C8.92791 0 9.38024 0.450142 9.38024 1.00667V5.59867C9.38024 6.15429 8.92748 6.604 8.37358 6.604H1.36691C0.81301 6.604 0.360245 6.15429 0.360245 5.59867V1.00667ZM1.36691 0.936C1.32834 0.936 1.29624 0.968095 1.29624 1.00667V5.59867C1.29624 5.63724 1.32834 5.66933 1.36691 5.66933H8.37358C8.41215 5.66933 8.44424 5.63724 8.44424 5.59867V1.00667C8.44424 0.968095 8.41215 0.936 8.37358 0.936H1.36691Z" fill="black"/>
<path d="M4.87011 3.97893C4.69144 3.97893 4.51144 3.92027 4.37544 3.80027L0.934111 0.8016C0.878111 0.752267 0.871444 0.666933 0.920777 0.610933C0.970111 0.554933 1.05544 0.5496 1.11144 0.5976L4.55278 3.5976C4.72478 3.74827 5.01544 3.74693 5.18744 3.5976L8.62878 0.5976C8.68478 0.548266 8.77011 0.554933 8.81944 0.610933C8.86878 0.666933 8.86211 0.752267 8.80611 0.8016L5.36478 3.80027C5.22878 3.92027 5.05011 3.97893 4.87011 3.97893Z" fill="white"/>
<path fill-rule="evenodd" clip-rule="evenodd" d="M8.40927 0.346748C8.60768 0.172758 8.90258 0.201045 9.06956 0.39059C9.24436 0.589012 9.21627 0.884504 9.02645 1.05172L9.02509 1.05291L5.58532 4.05021L5.58444 4.05099C5.37986 4.23108 5.11991 4.31227 4.87011 4.31227C4.62196 4.31227 4.36057 4.23126 4.15578 4.05099L0.713764 1.05172C0.523952 0.884509 0.495856 0.589014 0.670658 0.39059C0.841531 0.196626 1.1351 0.178856 1.32837 0.344515L1.33049 0.346329L4.77182 3.34634C4.81686 3.38579 4.92085 3.38743 4.96876 3.34603L8.40843 0.347481L8.40927 0.346748Z" fill="black"/>
<path d="M1.00691 17.1293C0.784244 17.1293 0.602911 17.3107 0.602911 17.5333V22.1253C0.602911 22.348 0.784244 22.5293 1.00691 22.5293H8.01358C8.23624 22.5293 8.41758 22.348 8.41758 22.1253V17.5333C8.41758 17.3107 8.23624 17.1293 8.01358 17.1293H1.00691ZM8.01358 22.7987H1.00691C0.636244 22.7987 0.333577 22.496 0.333577 22.1253V17.5333C0.333577 17.1613 0.636244 16.86 1.00691 16.86H8.01358C8.38424 16.86 8.68691 17.1613 8.68691 17.5333V22.1253C8.68691 22.496 8.38424 22.7987 8.01358 22.7987Z" fill="white"/>
<path fill-rule="evenodd" clip-rule="evenodd" d="M0.000244141 17.5333C0.000244141 16.9768 0.452579 16.5267 1.00691 16.5267H8.01358C8.56791 16.5267 9.02024 16.9768 9.02024 17.5333V22.1253C9.02024 22.6801 8.56834 23.132 8.01358 23.132H1.00691C0.452149 23.132 0.000244141 22.6801 0.000244141 22.1253V17.5333ZM1.00691 17.4627C0.968339 17.4627 0.936244 17.4948 0.936244 17.5333V22.1253C0.936244 22.1639 0.968339 22.196 1.00691 22.196H8.01358C8.05215 22.196 8.08424 22.1639 8.08424 22.1253V17.5333C8.08424 17.4948 8.05215 17.4627 8.01358 17.4627H1.00691Z" fill="black"/>
<path d="M4.51011 20.5056C4.33144 20.5056 4.15144 20.4456 4.01544 20.3269L0.572777 17.3269C0.516777 17.2789 0.511444 17.1936 0.560777 17.1376C0.61011 17.0816 0.695444 17.0763 0.751444 17.1243L4.19278 20.1243C4.36478 20.2736 4.65544 20.2736 4.82744 20.1243L8.26878 17.1256C8.32478 17.0763 8.40878 17.0816 8.45811 17.1389C8.50878 17.1949 8.50211 17.2789 8.44611 17.3269L5.00478 20.3269C4.86878 20.4456 4.68878 20.5056 4.51011 20.5056Z" fill="white"/>
<path fill-rule="evenodd" clip-rule="evenodd" d="M3.79629 20.5781L0.354514 17.5789C0.155331 17.4069 0.141764 17.109 0.310657 16.9173C0.481531 16.7233 0.775105 16.7055 0.968374 16.8712L0.970491 16.873L4.41131 19.8726C4.45797 19.9129 4.56208 19.913 4.60875 19.8727L8.04843 16.8755L8.0493 16.8747C8.24315 16.7048 8.53712 16.7232 8.70803 16.9183C8.88335 17.1155 8.85808 17.4116 8.66437 17.5789L8.66304 17.58L5.22393 20.5781C5.02071 20.7554 4.76021 20.8389 4.51011 20.8389C4.26003 20.8389 3.99951 20.7553 3.79629 20.5781Z" fill="black"/>
<path d="M11.1826 17.1293C10.96 17.1293 10.7786 17.3107 10.7786 17.5333V22.1253C10.7786 22.348 10.96 22.5293 11.1826 22.5293H18.188C18.4106 22.5293 18.5933 22.348 18.5933 22.1253V17.5333C18.5933 17.3107 18.4106 17.1293 18.188 17.1293H11.1826ZM18.188 22.7987H11.1826C10.812 22.7987 10.5093 22.496 10.5093 22.1253V17.5333C10.5093 17.1613 10.812 16.86 11.1826 16.86H18.188C18.56 16.86 18.8626 17.1613 18.8626 17.5333V22.1253C18.8626 22.496 18.56 22.7987 18.188 22.7987Z" fill="white"/>
<path fill-rule="evenodd" clip-rule="evenodd" d="M10.176 17.5333C10.176 16.9768 10.6283 16.5267 11.1826 16.5267H18.188C18.7432 16.5267 19.196 16.9764 19.196 17.5333V22.1253C19.196 22.6805 18.7436 23.132 18.188 23.132H11.1826C10.6279 23.132 10.176 22.6801 10.176 22.1253V17.5333ZM11.1826 17.4627C11.1441 17.4627 11.112 17.4948 11.112 17.5333V22.1253C11.112 22.1639 11.1441 22.196 11.1826 22.196H18.188C18.228 22.196 18.26 22.1625 18.26 22.1253V17.5333C18.26 17.4962 18.228 17.4627 18.188 17.4627H11.1826Z" fill="black"/>
<path d="M14.686 20.5056C14.5073 20.5056 14.3273 20.4456 14.1913 20.3269L10.7486 17.3269C10.6926 17.2789 10.6873 17.1936 10.7366 17.1376C10.786 17.0816 10.87 17.0763 10.926 17.1243L14.3686 20.1243C14.5406 20.2736 14.8313 20.2736 15.0033 20.1243L18.4446 17.1256C18.4993 17.0763 18.5846 17.0816 18.6353 17.1389C18.6833 17.1949 18.678 17.2789 18.622 17.3269L15.1806 20.3269C15.0446 20.4456 14.8646 20.5056 14.686 20.5056Z" fill="white"/>
<path fill-rule="evenodd" clip-rule="evenodd" d="M13.9722 20.5781L10.5304 17.5789C10.3312 17.4069 10.3176 17.109 10.4865 16.9173C10.6571 16.7236 10.9493 16.7053 11.1429 16.8712L11.145 16.873L14.5872 19.8726C14.6338 19.9129 14.738 19.913 14.7846 19.8727L18.2241 16.8756C18.4216 16.7001 18.7171 16.7281 18.8851 16.9182L18.8884 16.922C19.0525 17.1134 19.0387 17.4075 18.8402 17.5789L18.8389 17.58L15.3998 20.5781C15.1966 20.7554 14.9361 20.8389 14.686 20.8389C14.4359 20.8389 14.1754 20.7553 13.9722 20.5781Z" fill="black"/>
<path d="M21.2641 17.1293C21.0414 17.1293 20.8601 17.3107 20.8601 17.5333V22.1253C20.8601 22.348 21.0414 22.5293 21.2641 22.5293H28.2708C28.4948 22.5293 28.6761 22.348 28.6761 22.1253V17.5333C28.6761 17.3107 28.4948 17.1293 28.2708 17.1293H21.2641ZM28.2708 22.7987H21.2641C20.8934 22.7987 20.5908 22.496 20.5908 22.1253V17.5333C20.5908 17.1613 20.8934 16.86 21.2641 16.86H28.2708C28.6414 16.86 28.9454 17.1613 28.9454 17.5333V22.1253C28.9454 22.496 28.6414 22.7987 28.2708 22.7987Z" fill="white"/>
<path fill-rule="evenodd" clip-rule="evenodd" d="M20.2574 17.5333C20.2574 16.9768 20.7098 16.5267 21.2641 16.5267H28.2708C28.8243 16.5267 29.2788 16.9759 29.2788 17.5333V22.1253C29.2788 22.6809 28.8247 23.132 28.2708 23.132H21.2641C20.7093 23.132 20.2574 22.6801 20.2574 22.1253V17.5333ZM21.2641 17.4627C21.2255 17.4627 21.1934 17.4948 21.1934 17.5333V22.1253C21.1934 22.1639 21.2255 22.196 21.2641 22.196H28.2708C28.3114 22.196 28.3428 22.1632 28.3428 22.1253V17.5333C28.3428 17.4955 28.3114 17.4627 28.2708 17.4627H21.2641Z" fill="black"/>
<path d="M24.768 20.5056C24.588 20.5056 24.4093 20.4456 24.2733 20.3269L20.832 17.3269C20.776 17.2789 20.7693 17.1936 20.8186 17.1376C20.8666 17.0816 20.9533 17.0763 21.0093 17.1243L24.4506 20.1243C24.6226 20.2736 24.9133 20.2736 25.0853 20.1243L28.5266 17.1256C28.5813 17.0763 28.668 17.0816 28.7173 17.1389C28.7653 17.1949 28.76 17.2789 28.704 17.3269L25.2626 20.3269C25.1266 20.4456 24.948 20.5056 24.768 20.5056Z" fill="white"/>
<path fill-rule="evenodd" clip-rule="evenodd" d="M20.6137 17.5788C20.4197 17.4113 20.3957 17.1153 20.567 16.919C20.739 16.7203 21.0356 16.7078 21.2262 16.8712L21.2284 16.873L24.6692 19.8726C24.7158 19.9129 24.82 19.913 24.8666 19.8727L28.3061 16.8756C28.5018 16.7019 28.8011 16.7252 28.97 16.9215C29.134 17.1129 29.1207 17.4075 28.9222 17.5789L28.9209 17.58L25.4818 20.5781C25.2788 20.7552 25.0197 20.8389 24.768 20.8389C24.5162 20.8389 24.2573 20.7553 24.0543 20.5782L20.6137 17.5788Z" fill="black"/>
<path fill-rule="evenodd" clip-rule="evenodd" d="M4.2066 13.1449L2.47173 11.41L1.52892 12.3528L4.8951 15.719L8.21584 12.3967L7.27281 11.4541L5.53979 13.188L5.55757 8.0022L4.22425 7.99763L4.2066 13.1449Z" fill="black"/>
</svg>
