<?xml version="1.0" encoding="utf-8"?><!-- Uploaded to: SVG Repo, www.svgrepo.com, Generator: SVG Repo Mixer Tools -->
<svg version="1.1" id="designs" xmlns="http://www.w3.org/2000/svg" xmlns:xlink="http://www.w3.org/1999/xlink" 
	 width="800px" height="800px" viewBox="0 0 32 32" xml:space="preserve">
<style type="text/css">
	.sketchy_een{fill:#111918;}
</style>
<path class="sketchy_een" d="M28.406,23.485c-0.039-0.841-0.061-1.681-0.067-2.522c-0.014-1.744-0.004-3.489-0.02-5.231
	c-0.008-0.86-0.004-1.723-0.014-2.583c-0.004-0.435,0.002-0.872-0.008-1.309c-0.008-0.431-0.039-0.862-0.055-1.296
	c-0.031-0.88-0.043-1.762-0.055-2.642c-0.01-0.854-0.053-1.705-0.069-2.557c-0.016-0.827,0.006-1.654,0.01-2.481
	c0.002-0.451-0.378-0.829-0.827-0.829c-0.166,0-0.314,0.064-0.446,0.151c-0.019-0.001-0.035-0.011-0.054-0.011
	c-0.384,0.008-0.766-0.01-1.15-0.018c-0.396-0.008-0.79-0.006-1.185-0.012c-0.382-0.004-0.766-0.006-1.148-0.026
	c-0.4-0.018-0.799-0.043-1.199-0.055c-1.638-0.049-3.278-0.067-4.916-0.031c-0.683,0.014-1.366,0.045-2.05,0.043
	c-0.687-0.002-1.376-0.01-2.063-0.037c-0.341-0.012-0.681-0.034-1.022-0.037C11.992,2,11.916,2,11.839,2
	c-0.253,0-0.507,0.004-0.761,0.007c-0.805,0.01-1.609,0.027-2.414,0.051c-0.11,0.003-0.215,0.027-0.312,0.068
	C8.267,2.095,8.178,2.071,8.084,2.071c-0.445,0-0.795,0.366-0.803,0.805C7.266,3.694,7.262,4.512,7.258,5.33
	C6.935,5.348,6.612,5.352,6.289,5.348C5.876,5.342,5.462,5.333,5.048,5.327C5.002,5.304,4.962,5.272,4.912,5.258
	c-0.074-0.02-0.15-0.03-0.225-0.03c-0.15,0-0.299,0.039-0.429,0.116c-0.175,0.102-0.352,0.299-0.39,0.506
	C3.774,6.373,3.703,6.898,3.658,7.426C3.623,7.838,3.641,8.255,3.646,8.668c0.014,0.878,0.026,1.756,0.02,2.634
	c-0.006,0.862-0.012,1.725,0.006,2.587c0.018,0.853,0.039,1.705,0.047,2.558c0.012,1.731-0.033,3.457-0.063,5.186
	c-0.016,0.878-0.012,1.756-0.016,2.634c-0.004,0.429-0.006,0.858-0.018,1.288c-0.012,0.402,0,0.805-0.016,1.207
	c-0.023,0.507-0.03,1.018-0.078,1.525c-0.081,0.184-0.098,0.395-0.044,0.59c0.046,0.168,0.169,0.344,0.322,0.454
	c0.095,0.339,0.397,0.597,0.763,0.597c0.827,0,1.652-0.051,2.479-0.085c0.805-0.033,1.611-0.031,2.416-0.033
	c1.579-0.002,3.16-0.012,4.741,0.006c1.575,0.018,3.15,0.004,4.725,0.024c0.789,0.012,1.581,0.03,2.369,0.075
	c0.368,0.02,0.734,0.039,1.103,0.057c0.343,0.016,0.687,0.01,1.03,0.024c0.028,0.002,0.053,0.002,0.079,0.004
	c0.159,0.008,0.3-0.054,0.424-0.141c0.16-0.031,0.312-0.094,0.429-0.21c0.219-0.219,0.268-0.504,0.211-0.797
	c-0.003-0.017-0.006-0.034-0.009-0.052c-0.037-0.429-0.012-0.864-0.001-1.293c0.013-0.445,0.037-0.891,0.059-1.337
	c0.222,0.009,0.445,0.017,0.667,0.026c0.557,0.024,1.112,0.076,1.667,0.122c0.022,0.03,0.03,0.063,0.059,0.091
	c0.167,0.167,0.398,0.264,0.634,0.264s0.465-0.096,0.632-0.264c0.156-0.154,0.284-0.408,0.262-0.632
	C28.475,25.015,28.442,24.249,28.406,23.485z M22.468,28.42c-0.38,0.002-0.76,0.006-1.14,0.004
	c-0.366-0.002-0.734-0.022-1.101-0.028c-0.408-0.006-0.815-0.014-1.223-0.02c-0.457-0.008-0.914,0-1.37,0.006
	c-0.329,0.006-0.658,0.012-0.986,0.01c-0.792-0.004-1.581-0.018-2.372-0.037c-0.803-0.02-1.609-0.01-2.412-0.016
	c-0.782-0.008-1.561-0.006-2.343-0.008c-0.819,0-1.638-0.002-2.457-0.008c-0.35-0.002-0.701,0-1.051,0
	c-0.247,0.001-0.494-0.002-0.741-0.002c0.002-0.157,0.003-0.315,0.005-0.472c0.006-0.404,0.022-0.809,0.03-1.215
	c0.014-0.823,0.012-1.644,0.002-2.467c-0.018-1.731,0.01-3.461,0.026-5.192c0.016-1.77-0.03-3.54-0.041-5.31
	c-0.012-1.729-0.022-3.459-0.03-5.19c0-0.396,0.027-0.79,0.073-1.182c0.018-0.119,0.04-0.236,0.06-0.354
	c0.274-0.003,0.547-0.005,0.821-0.008c0.217-0.002,0.433-0.004,0.648-0.004c0.059,0,0.118,0.002,0.177,0.002
	C7.11,6.931,7.179,6.926,7.247,6.924C7.245,7.426,7.244,7.928,7.238,8.43c-0.022,1.76,0.035,3.518-0.004,5.279
	c-0.02,0.817-0.057,1.634-0.057,2.451c0,0.872,0.016,1.742,0.041,2.615c0.026,0.839,0.071,1.676,0.1,2.512
	c0.031,0.845,0.026,1.689,0.045,2.534c0.01,0.398,0,0.797,0.091,1.185c0.068,0.286,0.296,0.484,0.562,0.576
	c0.149,0.219,0.389,0.371,0.671,0.378c0.914,0.018,1.827,0.004,2.741-0.024c0.847-0.026,1.691-0.031,2.538-0.031
	c0.28,0.002,0.561,0.002,0.843,0.002c1.36,0,2.719,0,4.079,0.037c0.717,0.02,1.431,0.089,2.148,0.112
	c0.657,0.021,1.316,0.028,1.973,0.053c-0.022,0.772-0.028,1.545-0.036,2.318c-0.02,0-0.04,0-0.06,0
	C22.766,28.422,22.616,28.42,22.468,28.42z M24.929,24.55c-0.784-0.02-1.567-0.059-2.351-0.065
	c-0.851-0.008-1.697-0.018-2.548-0.069c-0.825-0.049-1.654-0.073-2.483-0.079c-0.74-0.004-1.481,0.008-2.223,0.008
	c-0.699,0-1.4,0-2.099,0.004c-0.709,0.004-1.42,0.012-2.128,0.012c-0.661,0-1.322-0.023-1.983-0.044
	c-0.042-0.702-0.046-1.403-0.066-2.106c-0.024-0.858-0.075-1.719-0.124-2.577c-0.094-1.705-0.102-3.422-0.073-5.131
	c0.008-0.402,0.031-0.803,0.026-1.205c-0.004-0.445-0.02-0.89-0.031-1.335c-0.022-0.88-0.035-1.76-0.037-2.638
	c0-1.811-0.004-3.621,0.049-5.43C8.86,3.818,8.862,3.743,8.865,3.667c0.862-0.032,1.723-0.073,2.584-0.097
	c0.409-0.012,0.817-0.006,1.225,0.018c0.39,0.024,0.782,0.059,1.173,0.071c0.825,0.026,1.648,0.018,2.473,0.008
	c0.51-0.006,1.02-0.006,1.53-0.006c0.307,0,0.612,0,0.919-0.002c1.357-0.004,2.721,0.002,4.074,0.099
	c0.662,0.047,1.325,0.047,1.989,0.051c0.552,0.003,1.103,0.014,1.655,0.031c0.018,1.46,0.051,2.92,0.054,4.38
	c0,0.415-0.008,0.831-0.012,1.246c-0.004,0.447,0.014,0.892,0.022,1.337c0.016,0.876,0.039,1.75,0.035,2.625
	c-0.006,1.748-0.012,3.499-0.016,5.247c-0.002,1.693-0.018,3.388,0.067,5.078c0.015,0.295,0.035,0.588,0.052,0.883
	C26.102,24.6,25.515,24.564,24.929,24.55z M24.802,13.413c-0.028-1.54-0.1-3.077-0.13-4.615c-0.018-0.896,0.006-1.792,0.033-2.686
	c0.012-0.396-0.339-0.724-0.725-0.724c-0.04,0-0.073,0.016-0.111,0.022c-0.126-0.087-0.271-0.157-0.419-0.157
	c-0.016,0-0.031,0.001-0.047,0.002c-0.514,0.047-1.028,0.045-1.544,0.043c-0.232,0-0.465,0-0.695,0.002
	c-0.463,0.008-0.923,0.004-1.384-0.002c-0.346-0.002-0.693-0.006-1.038-0.006c-0.878,0.004-1.758,0.03-2.636,0.045
	C15.304,5.352,14.503,5.34,13.7,5.332c-0.742-0.008-1.485-0.014-2.227-0.016c-0.259,0-0.483,0.135-0.633,0.329
	c-0.139,0.139-0.226,0.33-0.228,0.54c-0.016,1.62-0.043,3.241-0.037,4.861c0.006,1.542-0.071,3.077-0.169,4.615
	c-0.043,0.709-0.055,1.422-0.132,2.126c-0.022,0.201,0.098,0.433,0.236,0.571c0.082,0.082,0.183,0.14,0.292,0.179
	c0.114,0.063,0.238,0.108,0.376,0.109c0.429,0.004,0.858,0.004,1.288,0.002c0.469-0.002,0.937-0.002,1.406,0.002
	c0.858,0.01,1.717,0.008,2.575,0.008c0.845,0,1.687,0.002,2.532,0.016c0.856,0.014,1.709,0.055,2.563,0.091
	c0.79,0.031,1.585,0.041,2.375,0.114c0.215,0.02,0.455-0.102,0.602-0.25c0.048-0.048,0.076-0.11,0.111-0.168
	c0.185-0.146,0.313-0.36,0.307-0.607c-0.02-0.709-0.075-1.416-0.093-2.125C24.825,14.958,24.815,14.187,24.802,13.413z
	 M14.269,6.901c0.845-0.02,1.689-0.061,2.534-0.083c0.853-0.02,1.707-0.033,2.56,0c0.789,0.03,1.579,0.097,2.37,0.11
	c0.509,0.009,1.019,0.036,1.528,0.021c-0.003,0.612-0.011,1.224,0.011,1.837c0.028,0.75,0.055,1.498,0.073,2.246
	c0.02,0.952,0.018,1.904,0.011,2.856c-0.024-0.028-0.052-0.052-0.076-0.08c-0.262-0.301-0.532-0.595-0.805-0.882
	c-0.135-0.143-0.321-0.212-0.508-0.212c-0.192,0-0.384,0.073-0.523,0.212c-0.083,0.083-0.133,0.182-0.168,0.286
	c-0.201-0.07-0.424-0.067-0.607,0.056c-0.309,0.207-0.616,0.417-0.927,0.622c-0.243,0.159-0.475,0.335-0.728,0.477
	c-0.007-0.005-0.015-0.01-0.022-0.015c-0.09-0.085-0.168-0.177-0.244-0.274c-0.382-0.5-0.771-0.995-1.163-1.488
	c-0.185-0.24-0.37-0.482-0.56-0.717c-0.085-0.106-0.173-0.207-0.262-0.307c-0.083-0.091-0.163-0.181-0.246-0.27
	c-0.152-0.157-0.325-0.266-0.526-0.347c-0.103-0.042-0.207-0.058-0.313-0.058c-0.074,0-0.148,0.008-0.224,0.021
	c-0.187,0.029-0.313,0.144-0.457,0.256c-0.098,0.077-0.185,0.171-0.278,0.254c-0.217,0.203-0.441,0.402-0.664,0.601
	c-0.659,0.585-1.329,1.159-1.995,1.737c0.005-0.127,0.01-0.253,0.015-0.38c0.03-0.801,0.039-1.604,0.028-2.406
	c-0.01-0.756-0.073-1.512-0.049-2.27c0.019-0.59,0.042-1.179,0.062-1.769C12.833,6.927,13.551,6.919,14.269,6.901z M19.069,14.401
	c-0.001,0-0.002,0-0.003,0.001l0,0C19.067,14.401,19.068,14.401,19.069,14.401z M16.937,14.143c0.041,0.054,0.082,0.106,0.122,0.159
	c-0.028-0.037-0.057-0.074-0.086-0.112l0,0C16.961,14.175,16.949,14.159,16.937,14.143z M19.023,17.162
	c-1.695,0.026-3.39,0.014-5.084-0.047c-0.674-0.024-1.347-0.04-2.021-0.056c0.019-0.406,0.038-0.812,0.058-1.219
	c0.07-0.035,0.14-0.072,0.2-0.128c0.65-0.6,1.299-1.201,1.949-1.8c0.494-0.458,0.968-0.937,1.483-1.371
	c0.212,0.213,0.406,0.452,0.591,0.68c0.261,0.325,0.525,0.649,0.781,0.979c0.208,0.278,0.406,0.558,0.599,0.846
	c0.116,0.173,0.24,0.343,0.394,0.484c0.1,0.095,0.213,0.177,0.323,0.26c0.305,0.226,0.695,0.26,1.051,0.163
	c0.244-0.067,0.474-0.228,0.675-0.378c0.157-0.118,0.315-0.236,0.472-0.356c0.303-0.226,0.61-0.451,0.927-0.66
	c0.129-0.084,0.218-0.205,0.282-0.335c0.418,0.427,0.838,0.855,1.225,1.309c0.106,0.124,0.257,0.178,0.413,0.194
	c-0.004,0.485,0.003,0.969,0.008,1.454c-0.579,0.01-1.157,0.025-1.735,0.011C20.75,17.174,19.889,17.148,19.023,17.162z
	 M18.828,11.748c0.238,0.154,0.512,0.264,0.791,0.321c0.347,0.071,0.669,0.045,1.006-0.061c0.23-0.075,0.461-0.161,0.677-0.27
	c0.189-0.097,0.36-0.26,0.5-0.419c0.142-0.161,0.264-0.339,0.35-0.536c0.167-0.388,0.266-0.817,0.232-1.242
	c-0.018-0.215-0.045-0.429-0.114-0.634c-0.045-0.128-0.1-0.254-0.159-0.376c-0.122-0.248-0.323-0.41-0.545-0.563
	c-0.12-0.083-0.26-0.134-0.376-0.22c-0.015-0.011-0.031-0.021-0.047-0.031c-0.14-0.095-0.293-0.127-0.473-0.151
	c-0.213-0.026-0.424-0.043-0.641-0.043c-0.012,0-0.023,0-0.035,0c-0.181,0.004-0.368,0.043-0.539,0.1
	c-0.238,0.075-0.41,0.209-0.601,0.36c-0.26,0.207-0.443,0.516-0.601,0.801C18.011,9.23,17.863,9.74,17.92,10.25
	C17.987,10.842,18.318,11.425,18.828,11.748z M19.637,9.904c0.018-0.08,0.041-0.157,0.069-0.234
	c0.075-0.156,0.162-0.306,0.259-0.448c0.016-0.018,0.032-0.035,0.048-0.052c0.006-0.002,0.013-0.003,0.019-0.005
	c0.047-0.002,0.093-0.002,0.14,0c0.04,0.037,0.084,0.07,0.13,0.101c0.093,0.061,0.19,0.114,0.284,0.17
	c0.022,0.067,0.041,0.135,0.057,0.205c0.004,0.079,0.004,0.157-0.002,0.235c-0.013,0.063-0.029,0.125-0.049,0.187
	c-0.018,0.032-0.036,0.064-0.056,0.095c-0.025,0.027-0.05,0.053-0.077,0.079c-0.016,0.01-0.033,0.02-0.05,0.029
	c-0.124,0.042-0.252,0.078-0.381,0.107c-0.053-0.013-0.104-0.028-0.156-0.045c-0.037-0.019-0.072-0.038-0.108-0.059
	c-0.016-0.015-0.032-0.03-0.048-0.046c-0.021-0.035-0.041-0.07-0.06-0.106c-0.008-0.025-0.016-0.05-0.023-0.075
	C19.635,9.996,19.635,9.95,19.637,9.904z"/>
</svg>