<?xml version="1.0" encoding="iso-8859-1"?>
<!-- Uploaded to: SVG Repo, www.svgrepo.com, Generator: SVG Repo Mixer Tools -->
<svg fill="#000000" height="800px" width="800px" version="1.1" id="Layer_1" xmlns="http://www.w3.org/2000/svg" xmlns:xlink="http://www.w3.org/1999/xlink" 
	 viewBox="0 0 512 512" xml:space="preserve">
<g>
	<g>
		<polygon points="278.165,292.465 311.815,258.815 289.65,236.65 256,270.299 220.685,234.984 198.519,257.149 233.835,292.465 
			200.185,326.116 222.35,348.28 256,314.63 291.315,349.946 313.481,327.78 		"/>
	</g>
</g>
<g>
	<g>
		<path d="M256,154.119c-74.93,0-135.889,60.959-135.889,135.889S181.07,425.897,256,425.897s135.889-60.959,135.889-135.889
			S330.93,154.119,256,154.119z M256,394.55c-57.645,0-104.542-46.897-104.542-104.542c0-57.645,46.897-104.542,104.542-104.542
			c57.645,0,104.542,46.897,104.542,104.542C360.542,347.653,313.644,394.55,256,394.55z"/>
	</g>
</g>
<g>
	<g>
		<path d="M0,23.6v464.8h512V23.6H0z M31.347,54.947h370.939v40.748H31.347V54.947z M480.653,457.053H31.347V127.042h449.306
			V457.053z M480.653,95.695h-47.02V54.947h47.02V95.695z"/>
	</g>
</g>
</svg>