<svg width="30" height="26" viewBox="0 0 30 26" fill="none" xmlns="http://www.w3.org/2000/svg">
<path d="M18.5204 25.2961H28.4391V23.9627H18.5204V25.2961Z" fill="black"/>
<path d="M0.000244141 6.552H6.55224V0H0.000244141V6.552ZM1.33358 5.21867V1.33333H5.21891V5.21867H1.33358Z" fill="black"/>
<path d="M0.000244141 24.4373H6.55224V17.8853H0.000244141V24.4373ZM1.33358 23.104V19.2187H5.21891V23.104H1.33358Z" fill="black"/>
<path d="M0.000244141 15.4947H6.55224V8.94267H0.000244141V15.4947ZM1.33358 14.1613V10.276H5.21891V14.1613H1.33358Z" fill="black"/>
<path d="M18.52 19.9055L25.8481 12.5759L18.52 5.24784L11.1905 12.5759L18.52 19.9055ZM13.0762 12.576L18.5199 7.13336L23.9626 12.576L18.5199 18.0197L13.0762 12.576Z" fill="black"/>
<path d="M10.016 2.60979H7.40532V3.94313H10.016V2.60979Z" fill="black"/>
<path d="M10.0883 21.1618V3.27646H8.75492V21.1618H10.0883Z" fill="black"/>
<path d="M10.0131 20.4951H7.08372V21.8285H10.0131V20.4951Z" fill="black"/>
<path d="M12.3369 11.9099H7.36892V13.2433H12.3369V11.9099Z" fill="black"/>
<path d="M29.0388 11.9099H24.9054V13.2432H29.0388V11.9099Z" fill="black"/>
<path d="M29.1059 25.2273V12.5766H27.7725V25.2273H29.1059Z" fill="black"/>
<path d="M18.5011 20.7433L20.5017 22.7439L21.4445 21.8011L18.5011 18.8577L15.595 21.7637L16.5378 22.7065L18.5011 20.7433Z" fill="black"/>
<path d="M19.17 25.2254L19.158 20.1094L17.8247 20.1126L17.8367 25.2286L19.17 25.2254Z" fill="black"/>
</svg>
