<svg width="31" height="29" viewBox="0 0 31 29" fill="none" xmlns="http://www.w3.org/2000/svg">
<path d="M13.9768 0.0697583C10.833 0.401008 7.90177 1.73851 5.60177 3.88851C5.33302 4.14476 5.23927 4.26976 5.23927 4.40101C5.23927 4.60101 5.48927 4.87601 5.67052 4.87601C5.73927 4.87601 6.05177 4.65101 6.36427 4.36976C9.38927 1.70726 13.0955 0.519758 16.983 0.976008C20.0268 1.32601 22.8893 2.74476 25.0518 4.97601C27.033 7.01976 28.2518 9.46976 28.7143 12.376C28.8643 13.301 28.8643 15.2823 28.7143 16.251C28.5268 17.4635 27.933 19.5073 27.8393 19.251C27.8268 19.201 27.7205 18.8635 27.6143 18.501C27.3393 17.5698 27.308 17.5073 27.1205 17.4573C26.8018 17.3698 26.5518 17.5323 26.5518 17.826C26.5518 18.1073 27.3643 20.7698 27.4955 20.901C27.558 20.9698 27.683 21.0198 27.7893 21.0135C27.8955 21.0135 28.5893 20.701 29.3705 20.301C30.5643 19.701 30.7768 19.5698 30.833 19.4198C30.9268 19.151 30.7643 18.9135 30.4768 18.8885C30.3018 18.876 30.083 18.9573 29.4955 19.251C29.0768 19.4573 28.7393 19.6135 28.7393 19.5885C28.7393 19.5698 28.8268 19.3073 28.933 19.0135C29.1893 18.2823 29.4643 17.1323 29.5955 16.2573C29.7393 15.2573 29.7393 13.3448 29.5893 12.3448C28.8393 7.21351 25.4893 2.94476 20.7268 1.02601C18.6393 0.188508 16.1643 -0.161492 13.9768 0.0697583Z" fill="black"/>
<path d="M1.48927 8.26976C0.283019 8.86976 0.0767691 8.99476 0.0205191 9.14476C-0.0544809 9.37601 0.0830191 9.63226 0.320519 9.69476C0.458019 9.73226 0.645519 9.66351 1.30177 9.33851C1.75177 9.11976 2.11427 8.95101 2.11427 8.95726C2.11427 8.96351 2.01427 9.26351 1.88927 9.62601C1.35177 11.2198 1.11427 12.6573 1.11427 14.3135C1.11427 16.9385 1.77677 19.3698 3.10177 21.6073C4.96427 24.751 8.00177 27.0948 11.5205 28.0885C13.4205 28.626 15.6393 28.7635 17.5518 28.4698C20.3768 28.0323 23.0643 26.7385 25.1018 24.8448C25.5393 24.4323 25.6143 24.3385 25.6143 24.1635C25.6143 23.9073 25.4518 23.751 25.1893 23.751C25.0268 23.751 24.8893 23.8448 24.4768 24.226C20.7518 27.6573 15.2955 28.6823 10.5768 26.8448C5.95177 25.0448 2.74552 20.951 2.07677 16.001C1.97677 15.226 1.96427 13.5635 2.05177 12.8135C2.08927 12.5198 2.17677 11.9885 2.24552 11.626C2.39552 10.8635 2.92052 9.21976 2.98927 9.29476C3.01427 9.31976 3.12677 9.66976 3.23927 10.0635C3.50177 10.976 3.53302 11.0385 3.73927 11.126C4.03302 11.2448 4.30177 11.0573 4.30177 10.7323C4.30177 10.4885 3.49552 7.80726 3.37677 7.66976C3.19552 7.46351 2.93302 7.55101 1.48927 8.26976Z" fill="black"/>
<path d="M21.7063 12.3632V15.9996H21.0422L19.4602 13.7109H19.4335V15.9996H18.6647V12.3632H19.3394L20.909 14.6502H20.941V12.3632H21.7063Z" fill="black"/>
<path d="M18.0952 14.1814C18.0952 14.5779 18.02 14.9153 17.8697 15.1935C17.7206 15.4717 17.517 15.6841 17.2589 15.8309C17.002 15.9765 16.7132 16.0493 16.3924 16.0493C16.0693 16.0493 15.7793 15.9759 15.5224 15.8291C15.2655 15.6824 15.0625 15.4699 14.9134 15.1917C14.7642 14.9135 14.6897 14.5768 14.6897 14.1814C14.6897 13.7849 14.7642 13.4475 14.9134 13.1693C15.0625 12.8912 15.2655 12.6793 15.5224 12.5337C15.7793 12.3869 16.0693 12.3135 16.3924 12.3135C16.7132 12.3135 17.002 12.3869 17.2589 12.5337C17.517 12.6793 17.7206 12.8912 17.8697 13.1693C18.02 13.4475 18.0952 13.7849 18.0952 14.1814ZM17.3157 14.1814C17.3157 13.9245 17.2773 13.7079 17.2003 13.5315C17.1246 13.3552 17.0174 13.2214 16.8789 13.1303C16.7404 13.0391 16.5783 12.9935 16.3924 12.9935C16.2066 12.9935 16.0444 13.0391 15.9059 13.1303C15.7674 13.2214 15.6597 13.3552 15.5828 13.5315C15.507 13.7079 15.4691 13.9245 15.4691 14.1814C15.4691 14.4383 15.507 14.6549 15.5828 14.8313C15.6597 15.0076 15.7674 15.1414 15.9059 15.2325C16.0444 15.3237 16.2066 15.3693 16.3924 15.3693C16.5783 15.3693 16.7404 15.3237 16.8789 15.2325C17.0174 15.1414 17.1246 15.0076 17.2003 14.8313C17.2773 14.6549 17.3157 14.4383 17.3157 14.1814Z" fill="black"/>
<path d="M13.4499 13.409C13.4357 13.2658 13.3747 13.1545 13.267 13.0752C13.1593 12.9959 13.0131 12.9563 12.8284 12.9563C12.7029 12.9563 12.597 12.974 12.5106 13.0095C12.4242 13.0439 12.3579 13.0918 12.3117 13.1534C12.2668 13.2149 12.2443 13.2847 12.2443 13.3629C12.2419 13.428 12.2555 13.4848 12.2851 13.5333C12.3159 13.5819 12.3579 13.6239 12.4112 13.6594C12.4644 13.6937 12.526 13.7239 12.5958 13.7499C12.6657 13.7748 12.7402 13.7961 12.8195 13.8139L13.1462 13.892C13.3049 13.9275 13.4505 13.9748 13.583 14.034C13.7156 14.0932 13.8304 14.166 13.9275 14.2524C14.0246 14.3388 14.0997 14.4406 14.153 14.5578C14.2074 14.675 14.2353 14.8094 14.2364 14.9609C14.2353 15.1834 14.1784 15.3764 14.066 15.5397C13.9547 15.7019 13.7937 15.8279 13.583 15.9179C13.3735 16.0067 13.1208 16.0511 12.8249 16.0511C12.5313 16.0511 12.2756 16.0061 12.0578 15.9161C11.8412 15.8262 11.6719 15.693 11.55 15.5166C11.4293 15.3391 11.3659 15.1195 11.36 14.8579H12.104C12.1123 14.9798 12.1472 15.0816 12.2087 15.1633C12.2715 15.2438 12.3549 15.3047 12.4591 15.3462C12.5645 15.3864 12.6834 15.4065 12.816 15.4065C12.9462 15.4065 13.0592 15.3876 13.1551 15.3497C13.2522 15.3118 13.3274 15.2592 13.3806 15.1917C13.4339 15.1242 13.4605 15.0467 13.4605 14.9591C13.4605 14.8774 13.4363 14.8088 13.3877 14.7531C13.3404 14.6975 13.2705 14.6502 13.1782 14.6111C13.0871 14.572 12.9752 14.5365 12.8426 14.5046L12.4467 14.4051C12.1401 14.3306 11.898 14.214 11.7205 14.0553C11.5429 13.8967 11.4547 13.6831 11.4559 13.4144C11.4547 13.1942 11.5133 13.0018 11.6317 12.8373C11.7512 12.6728 11.9152 12.5443 12.1235 12.452C12.3319 12.3597 12.5686 12.3135 12.8337 12.3135C13.1036 12.3135 13.3392 12.3597 13.5404 12.452C13.7428 12.5443 13.9003 12.6728 14.0127 12.8373C14.1252 13.0018 14.1832 13.1924 14.1867 13.409H13.4499Z" fill="black"/>
<path d="M10.0816 12.3632H10.8416V14.8987C10.8416 15.1331 10.7889 15.3367 10.6835 15.5095C10.5794 15.6824 10.4344 15.8155 10.2485 15.909C10.0627 16.0025 9.84665 16.0493 9.60044 16.0493C9.38145 16.0493 9.18259 16.0108 9.00385 15.9339C8.82629 15.8558 8.68543 15.7374 8.58126 15.5788C8.4771 15.419 8.42561 15.2183 8.42679 14.9769H9.19206C9.19443 15.0727 9.21396 15.155 9.25065 15.2237C9.28853 15.2911 9.34002 15.3432 9.40513 15.3799C9.47142 15.4154 9.54954 15.4332 9.6395 15.4332C9.7342 15.4332 9.8141 15.4131 9.8792 15.3728C9.94549 15.3314 9.9958 15.271 10.0301 15.1917C10.0645 15.1124 10.0816 15.0147 10.0816 14.8987V12.3632Z" fill="black"/>
</svg>
