<?xml version="1.0" standalone="no"?>
<!DOCTYPE svg PUBLIC "-//W3C//DTD SVG 20010904//EN"
 "http://www.w3.org/TR/2001/REC-SVG-20010904/DTD/svg10.dtd">
<svg version="1.0" xmlns="http://www.w3.org/2000/svg"
 width="512.000000pt" height="512.000000pt" viewBox="0 0 512.000000 512.000000"
 preserveAspectRatio="xMidYMid meet">

<g transform="translate(0.000000,512.000000) scale(0.100000,-0.100000)"
fill="#000000" stroke="none">
<path d="M1935 5071 c-48 -30 -862 -853 -870 -879 -19 -63 -13 -69 443 -525
436 -435 438 -437 479 -437 76 0 134 80 103 141 -7 13 -159 171 -338 352
l-327 327 1700 0 c1339 0 1705 -3 1725 -13 14 -7 33 -28 42 -47 17 -33 18
-132 18 -1643 0 -1734 2 -1653 -51 -1691 -22 -15 -211 -16 -2299 -16 -2088 0
-2277 1 -2299 16 -53 37 -51 -9 -51 1279 l0 1195 -29 32 c-25 28 -36 33 -75
33 -36 0 -51 -6 -73 -28 l-28 -27 0 -1238 0 -1237 24 -53 c31 -68 113 -144
183 -169 51 -17 148 -18 2348 -18 2200 0 2297 1 2348 18 70 25 152 101 183
169 l24 53 0 1680 0 1680 -28 57 c-30 62 -83 115 -149 150 l-43 23 -1732 3
c-953 1 -1733 6 -1733 10 0 4 149 156 330 337 354 354 359 360 326 423 -32 62
-93 79 -151 43z"/>
</g>
</svg>
