<svg width="30" height="24" viewBox="0 0 30 24" fill="none" xmlns="http://www.w3.org/2000/svg">
<path d="M21.3853 22.5606H4.20933C2.476 22.5606 1.06667 21.1513 1.06667 19.4193C1.06667 17.686 2.476 16.2766 4.20933 16.2766H21.3853C23.1187 16.2766 24.528 17.686 24.528 19.4193C24.528 21.15 23.1187 22.5606 21.3853 22.5606ZM21.3853 15.21H4.20933C1.888 15.21 0 17.098 0 19.4193C0 21.7393 1.888 23.6273 4.20933 23.6273H21.3853C23.7067 23.6273 25.5947 21.7393 25.5947 19.4193C25.5947 17.098 23.7067 15.21 21.3853 15.21Z" fill="black"/>
<path d="M21.5351 20.4136C20.9871 20.4136 20.5404 19.9682 20.5404 19.4189C20.5404 18.8709 20.9871 18.4242 21.5351 18.4242C22.0844 18.4242 22.5297 18.8709 22.5297 19.4189C22.5297 19.9682 22.0844 20.4136 21.5351 20.4136ZM21.5351 17.3576C20.3977 17.3576 19.4737 18.2816 19.4737 19.4189C19.4737 20.5549 20.3977 21.4802 21.5351 21.4802C22.6724 21.4802 23.5964 20.5549 23.5964 19.4189C23.5964 18.2816 22.6724 17.3576 21.5351 17.3576Z" fill="black"/>
<path d="M15.7095 20.4136C15.1615 20.4136 14.7148 19.9682 14.7148 19.4189C14.7148 18.8709 15.1615 18.4242 15.7095 18.4242C16.2588 18.4242 16.7055 18.8709 16.7055 19.4189C16.7055 19.9682 16.2588 20.4136 15.7095 20.4136ZM15.7095 17.3576C14.5735 17.3576 13.6481 18.2816 13.6481 19.4189C13.6481 20.5549 14.5735 21.4802 15.7095 21.4802C16.8481 21.4802 17.7721 20.5549 17.7721 19.4189C17.7721 18.2816 16.8481 17.3576 15.7095 17.3576Z" fill="black"/>
<path d="M9.88467 20.4136C9.33533 20.4136 8.89 19.9682 8.89 19.4189C8.89 18.8709 9.33533 18.4242 9.88467 18.4242C10.434 18.4242 10.8807 18.8709 10.8807 19.4189C10.8807 19.9682 10.434 20.4136 9.88467 20.4136ZM9.88467 17.3576C8.74733 17.3576 7.82333 18.2816 7.82333 19.4189C7.82333 20.5549 8.74733 21.4802 9.88467 21.4802C11.022 21.4802 11.946 20.5549 11.946 19.4189C11.946 18.2816 11.022 17.3576 9.88467 17.3576Z" fill="black"/>
<path d="M4.05973 20.4136C3.5104 20.4136 3.06373 19.9682 3.06373 19.4189C3.06373 18.8709 3.5104 18.4242 4.05973 18.4242C4.60906 18.4242 5.05573 18.8709 5.05573 19.4189C5.05573 19.9682 4.60906 20.4136 4.05973 20.4136ZM4.05973 17.3576C2.9224 17.3576 1.9984 18.2816 1.9984 19.4189C1.9984 20.5549 2.9224 21.4802 4.05973 21.4802C5.19706 21.4802 6.12106 20.5549 6.12106 19.4189C6.12106 18.2816 5.19706 17.3576 4.05973 17.3576Z" fill="black"/>
<path d="M10.5721 5.50211V9.30344H11.6388V5.50211L12.1521 6.12611L12.9761 5.45011L11.1055 3.17011L9.23613 5.45011L10.0601 6.12611L10.5721 5.50211Z" fill="black"/>
<path d="M6.45946 5.50211V9.30344H7.52613V5.50211L8.03946 6.12744L8.86346 5.45011L6.9928 3.17011L5.12213 5.45011L5.94746 6.12611L6.45946 5.50211Z" fill="black"/>
<path d="M5.534 9.95891H12.5633V11.0256H5.534V9.95891Z" fill="black"/>
<path d="M14.8207 12.0282H3.278V1.06691H14.8207V12.0282ZM15.886 0.000244141H2.21133V13.0949H15.886V0.000244141Z" fill="black"/>
<path d="M24.2503 1.78057L29.3951 6.92531L24.1757 12.1447L23.2329 11.2019L27.5095 6.92531L23.3075 2.72338L24.2503 1.78057Z" fill="black"/>
<path d="M18.7409 6.28051L28.4503 6.25918L28.4532 7.59251L18.7439 7.61384L18.7409 6.28051Z" fill="black"/>
</svg>
