<svg width="33" height="26" viewBox="0 0 33 26" fill="none" xmlns="http://www.w3.org/2000/svg">
<path d="M3.50534 25.705C3.27067 25.705 3.04534 25.6117 2.88 25.445L1.256 23.8117C0.913337 23.465 0.914671 22.9063 1.26 22.565C1.60534 22.221 2.164 22.2223 2.50667 22.5677L3.44534 23.5103L6.17334 20.2037C6.48267 19.8277 7.04 19.7743 7.41467 20.0837C7.79067 20.3943 7.844 20.9503 7.53334 21.3263L4.18534 25.385C4.028 25.5757 3.79467 25.6917 3.54667 25.7037C3.532 25.705 3.51867 25.705 3.50534 25.705Z" fill="black"/>
<path d="M31.3139 23.6763H12.1245C11.6379 23.6763 11.2432 23.2803 11.2432 22.7937C11.2432 22.307 11.6379 21.9123 12.1245 21.9123H31.3139C31.8005 21.9123 32.1952 22.307 32.1952 22.7937C32.1952 23.2803 31.8005 23.6763 31.3139 23.6763Z" fill="black"/>
<path d="M3.50534 16.2635C3.27067 16.2635 3.04534 16.1702 2.88 16.0035L1.256 14.3702C0.913337 14.0235 0.914671 13.4662 1.26 13.1222C1.60534 12.7795 2.164 12.7809 2.50667 13.1262L3.44534 14.0689L6.17334 10.7622C6.48267 10.3862 7.03867 10.3329 7.41467 10.6422C7.79067 10.9529 7.84267 11.5089 7.53334 11.8835L4.18534 15.9435C4.02667 16.1342 3.79467 16.2515 3.54667 16.2622C3.532 16.2635 3.51867 16.2635 3.50534 16.2635Z" fill="black"/>
<path d="M31.3139 14.2337H12.1245C11.6379 14.2337 11.2432 13.8403 11.2432 13.3523C11.2432 12.8657 11.6379 12.471 12.1245 12.471H31.3139C31.8005 12.471 32.1952 12.8657 32.1952 13.3523C32.1952 13.8403 31.8005 14.2337 31.3139 14.2337Z" fill="black"/>
<path d="M3.50534 6.8222C3.27067 6.8222 3.04534 6.72886 2.88 6.5622L1.256 4.92886C0.913337 4.5822 0.914671 4.02486 1.26 3.68086C1.60534 3.3382 2.164 3.33953 2.50667 3.68486L3.44534 4.62753L6.17334 1.32086C6.48267 0.944862 7.03867 0.891529 7.41467 1.2022C7.79067 1.51153 7.84267 2.06753 7.53334 2.44353L4.18534 6.5022C4.02667 6.69286 3.79467 6.8102 3.54667 6.8222C3.532 6.8222 3.51867 6.8222 3.50534 6.8222Z" fill="black"/>
<path d="M31.3139 4.7922H12.1245C11.6379 4.7922 11.2432 4.39753 11.2432 3.91086C11.2432 3.4242 11.6379 3.0282 12.1245 3.0282H31.3139C31.8005 3.0282 32.1952 3.4242 32.1952 3.91086C32.1952 4.39753 31.8005 4.7922 31.3139 4.7922Z" fill="black"/>
<path d="M3.50534 25.705C3.27067 25.705 3.04534 25.6117 2.88 25.445L1.256 23.8117C0.913337 23.465 0.914671 22.9063 1.26 22.565C1.60534 22.221 2.164 22.2223 2.50667 22.5677L3.44534 23.5103L6.17334 20.2037C6.48267 19.8277 7.04 19.7743 7.41467 20.0837C7.79067 20.3943 7.844 20.9503 7.53334 21.3263L4.18534 25.385C4.028 25.5757 3.79467 25.6917 3.54667 25.7037C3.532 25.705 3.51867 25.705 3.50534 25.705Z" stroke="white" stroke-width="0.333333" stroke-miterlimit="10"/>
<path d="M31.3139 23.6763H12.1245C11.6379 23.6763 11.2432 23.2803 11.2432 22.7937C11.2432 22.307 11.6379 21.9123 12.1245 21.9123H31.3139C31.8005 21.9123 32.1952 22.307 32.1952 22.7937C32.1952 23.2803 31.8005 23.6763 31.3139 23.6763Z" stroke="white" stroke-width="0.333333" stroke-miterlimit="10"/>
<path d="M3.50534 16.2635C3.27067 16.2635 3.04534 16.1702 2.88 16.0035L1.256 14.3702C0.913337 14.0235 0.914671 13.4662 1.26 13.1222C1.60534 12.7795 2.164 12.7809 2.50667 13.1262L3.44534 14.0689L6.17334 10.7622C6.48267 10.3862 7.03867 10.3329 7.41467 10.6422C7.79067 10.9529 7.84267 11.5089 7.53334 11.8835L4.18534 15.9435C4.02667 16.1342 3.79467 16.2515 3.54667 16.2622C3.532 16.2635 3.51867 16.2635 3.50534 16.2635Z" stroke="white" stroke-width="0.333333" stroke-miterlimit="10"/>
<path d="M31.3139 14.2337H12.1245C11.6379 14.2337 11.2432 13.8403 11.2432 13.3523C11.2432 12.8657 11.6379 12.471 12.1245 12.471H31.3139C31.8005 12.471 32.1952 12.8657 32.1952 13.3523C32.1952 13.8403 31.8005 14.2337 31.3139 14.2337Z" stroke="white" stroke-width="0.333333" stroke-miterlimit="10"/>
<path d="M3.50534 6.8222C3.27067 6.8222 3.04534 6.72886 2.88 6.5622L1.256 4.92886C0.913337 4.5822 0.914671 4.02486 1.26 3.68086C1.60534 3.3382 2.164 3.33953 2.50667 3.68486L3.44534 4.62753L6.17334 1.32086C6.48267 0.944862 7.03867 0.891529 7.41467 1.2022C7.79067 1.51153 7.84267 2.06753 7.53334 2.44353L4.18534 6.5022C4.02667 6.69286 3.79467 6.8102 3.54667 6.8222C3.532 6.8222 3.51867 6.8222 3.50534 6.8222Z" stroke="white" stroke-width="0.333333" stroke-miterlimit="10"/>
<path d="M31.3139 4.7922H12.1245C11.6379 4.7922 11.2432 4.39753 11.2432 3.91086C11.2432 3.4242 11.6379 3.0282 12.1245 3.0282H31.3139C31.8005 3.0282 32.1952 3.4242 32.1952 3.91086C32.1952 4.39753 31.8005 4.7922 31.3139 4.7922Z" stroke="white" stroke-width="0.333333" stroke-miterlimit="10"/>
</svg>
