<svg width="23" height="32" viewBox="0 0 23 32" fill="none" xmlns="http://www.w3.org/2000/svg">
<path d="M21.7899 30.7696H1.21152V29.5378H4.23669C4.57185 29.5378 4.84317 29.2634 4.84317 28.9226C4.84317 28.5833 4.57185 28.3074 4.23669 28.3074H1.21152V2.76908H6.05324V3.69259C6.05324 4.0319 6.32456 4.30778 6.65828 4.30778H16.3417C16.6769 4.30778 16.9468 4.0319 16.9468 3.69259V2.76908H21.7899V30.7696ZM7.26331 1.23037H15.7367V3.07593H7.26331V1.23037ZM22.395 1.53871H16.9468V0.615187C16.9468 0.275875 16.6769 0 16.3417 0H6.65828C6.32456 0 6.05324 0.275875 6.05324 0.615187V1.53871H0.605034C0.271322 1.53871 0 1.8131 0 2.15389V31.3848C0 31.7241 0.271322 32 0.605034 32H22.395C22.7287 32 23 31.7241 23 31.3848V2.15389C23 1.8131 22.7287 1.53871 22.395 1.53871Z" fill="black"/>
<path d="M6.92931 8.06439C6.63042 7.91244 6.26624 8.03489 6.11679 8.34027L5.28251 10.0368L4.66442 9.41131C4.42937 9.17084 4.04633 9.17084 3.80983 9.41131C3.57333 9.65178 3.57333 10.0412 3.80983 10.2802L5.01989 11.5121C5.13452 11.6286 5.28831 11.6921 5.44792 11.6921C5.47984 11.6921 5.51176 11.6906 5.54513 11.6847C5.73665 11.6522 5.90205 11.5298 5.98911 11.3528L7.20063 8.89054C7.35007 8.58664 7.2282 8.21634 6.92931 8.06439Z" fill="black"/>
<path d="M18.7635 9.23059H9.08001C8.74484 9.23059 8.47352 9.50647 8.47352 9.84578C8.47352 10.1851 8.74484 10.461 9.08001 10.461H18.7635C19.0972 10.461 19.3685 10.1851 19.3685 9.84578C19.3685 9.50647 19.0972 9.23059 18.7635 9.23059Z" fill="black"/>
<path d="M18.7635 15.3845H9.08001C8.74484 15.3845 8.47352 15.6604 8.47352 15.9997C8.47352 16.339 8.74484 16.6149 9.08001 16.6149H18.7635C19.0972 16.6149 19.3685 16.339 19.3685 15.9997C19.3685 15.6604 19.0972 15.3845 18.7635 15.3845Z" fill="black"/>
<path d="M6.92931 20.3722C6.63042 20.2203 6.26624 20.3427 6.11679 20.6481L5.28251 22.3462L4.66442 21.7192C4.42937 21.4787 4.04633 21.4787 3.80983 21.7192C3.57333 21.9582 3.57333 22.3491 3.80983 22.5896L5.01989 23.8199C5.13452 23.9365 5.28831 23.9999 5.44792 23.9999C5.47984 23.9999 5.51176 23.997 5.54513 23.9925C5.73665 23.9616 5.90205 23.8376 5.98911 23.6606L7.20063 21.1984C7.35007 20.8945 7.2282 20.5257 6.92931 20.3722Z" fill="black"/>
<path d="M18.7635 21.5377H9.08001C8.74484 21.5377 8.47352 21.8136 8.47352 22.1544C8.47352 22.4922 8.74484 22.7696 9.08001 22.7696H18.7635C19.0972 22.7696 19.3685 22.4922 19.3685 22.1544C19.3685 21.8136 19.0972 21.5377 18.7635 21.5377Z" fill="black"/>
<path d="M7.15318 16.7676L4.56619 14.329C4.47623 14.2449 4.21942 14.3776 3.99308 14.627C3.76528 14.8763 3.65356 15.1463 3.74207 15.2304L6.33051 17.6704C6.41902 17.7545 6.67583 17.6203 6.90363 17.371C7.12997 17.1216 7.24314 16.8531 7.15318 16.7676Z" fill="black"/>
<path d="M4.69199 17.7328L7.09181 15.1024C7.17451 15.0125 7.04248 14.7513 6.79727 14.5197C6.55207 14.2896 6.28655 14.1745 6.20385 14.266L3.80402 16.8978C3.72132 16.9878 3.85335 17.249 4.09856 17.4791C4.34377 17.7107 4.60928 17.8243 4.69199 17.7328Z" fill="black"/>
</svg>
