<svg width="31" height="32" viewBox="0 0 31 32" fill="none" xmlns="http://www.w3.org/2000/svg">
<path d="M3.18258 31.876C1.73225 31.496 0.563884 30.3501 0.14473 28.8964L0 28.3944V16.0318C0 5.8823 0.0150853 3.6075 0.0844796 3.32414C0.130971 3.1343 0.296776 2.71072 0.453027 2.38283C0.695862 1.87319 0.815634 1.70913 1.27845 1.25244C1.89774 0.641395 2.44873 0.327002 3.25755 0.123231C3.74354 0.000798576 3.97042 -0.00177389 14.0826 0.000392968L24.4113 0.00268091L30.8504 6.36779L30.812 28.5199L30.6637 28.9592C30.1525 30.4729 29.0692 31.5045 27.5948 31.8816C27.1344 31.9993 26.7834 32.0027 15.3802 31.9993C4.0347 31.9961 3.62432 31.9918 3.18258 31.876ZM27.2865 29.2192C27.7038 29.0143 28.0345 28.6178 28.1415 28.194C28.1867 28.0143 28.2079 24.7554 28.2079 17.9187V7.90659L23.0935 7.87382L23.0606 2.63385L3.8906 2.63477L3.57682 2.7812C3.40425 2.86173 3.15876 3.04332 3.03127 3.18474C2.57289 3.69324 2.60416 2.75513 2.60416 16.0016C2.60416 28.8593 2.5877 28.2091 2.929 28.7139C3.12027 28.9968 3.47945 29.2427 3.84617 29.3419C4.08119 29.4055 6.47195 29.4194 15.5315 29.41L26.9213 29.3981L27.2865 29.2192ZM11.8682 24.1082C11.8499 24.0786 12.8079 20.7264 13.9971 16.6589C15.1862 12.5913 16.1591 9.25429 16.1591 9.24319C16.1591 9.23209 16.5686 9.22303 17.0691 9.22303C17.5696 9.22303 17.9784 9.23008 17.9776 9.23872C17.9776 9.24736 16.9938 12.6008 15.7929 16.6908L13.6095 24.1271L12.7555 24.1445C12.2858 24.1541 11.8865 24.1378 11.8682 24.1082ZM7.69042 19.6047C6.12165 18.5857 4.80146 17.7215 4.75666 17.6843C4.69874 17.6363 4.67515 17.4139 4.67515 16.9154V16.2141L7.56818 14.2404C9.15936 13.1548 10.4866 12.2572 10.5176 12.2457C10.5496 12.2338 10.574 12.6845 10.574 13.2861V14.3476L8.47479 15.6268C7.32023 16.3303 6.38126 16.9113 6.38825 16.9179C6.39511 16.9245 7.31868 17.4568 8.44041 18.1007C9.56215 18.7447 10.5018 19.293 10.5285 19.3194C10.5551 19.3457 10.5692 19.8375 10.5601 20.4123L10.5427 21.4574L7.69042 19.6047ZM19.4535 19.1833L23.5759 16.8277L23.2404 16.6153C23.0559 16.4985 22.1213 15.9263 21.1636 15.3439L19.4221 14.2849V13.2287C19.4221 12.6478 19.4368 12.1724 19.4541 12.1724C19.4715 12.1724 20.7849 13.053 22.3722 14.1291L25.2582 16.0858V17.5442L22.5163 19.3295C21.0082 20.3115 19.6944 21.1643 19.5968 21.2247L19.4191 21.3345L19.4535 19.1833Z" fill="black"/>
</svg>
