<svg width="32" height="24" viewBox="0 0 32 24" fill="none" xmlns="http://www.w3.org/2000/svg">
<path d="M0 1.27467L4.36133 3.23467C4.36133 3.23467 5.31467 2.42667 6.49067 2.18133C7.66667 1.936 9.21333 1.96133 9.21333 1.96133L9.65333 0L15.584 3.62667L14.604 4.656C14.604 4.656 15.5413 5.37467 15.8747 5.97067C16.3653 6.852 16.3667 7.69333 16.3667 7.69333H19.4547L19.9933 12.7907L15.3067 11.076C15.3067 11.076 14.4187 11.6067 12.592 11.9093C11.3813 12.1093 9.99733 12.0067 9.99733 12.0067L9.70267 15.1427L3.77333 11.7493L6.07733 9.556C6.07733 9.556 4.80267 9.11467 4.21467 8.184C3.62667 7.25333 3.724 6.616 3.724 6.616L0 6.42V1.27467Z" fill="black"/>
<path d="M15.5834 4.41066H18.6207C18.6207 4.41066 18.8674 3.96932 19.5527 3.28399C20.2381 2.59732 21.2194 2.25466 21.2194 2.25466V0.833323H25.5314V2.10799C25.5314 2.10799 26.1674 2.40132 26.4127 2.62266C26.6581 2.84266 26.9514 3.33332 26.9514 3.33332L29.1087 2.62266L31.1167 5.53866L27.4434 5.78266C27.4434 5.78266 26.7367 6.59199 26.3647 6.91066C25.7594 7.42532 24.7474 7.57199 24.7474 7.57199L25.4341 9.85066L20.6794 9.55599L21.6114 7.57199C21.6114 7.57199 21.2634 7.76932 20.2381 7.25332C19.7434 7.00399 19.4061 6.46932 19.4061 6.46932L17.2007 7.25332L15.5834 4.41066Z" fill="black"/>
<path d="M10.7819 13.1243L16.3379 12.1216L16.1659 13.4389C16.1659 13.4389 17.0245 13.4109 17.7405 13.7816C18.4565 14.1536 18.7152 14.3549 18.7152 14.3549L21.0912 12.9816L23.7819 15.7869L19.7152 17.0469C19.7152 17.0469 19.5992 17.7736 18.9605 18.5896C18.4459 19.2483 17.0819 20.0829 17.0819 20.0829L18.4285 22.5163L12.9872 23.4896L13.0725 21.1429C13.0725 21.1429 12.4019 21.1229 11.8699 20.9989C11.0805 20.8149 10.6392 20.4549 10.6392 20.4549L8.3192 21.7709L5.48453 18.9363L9.26453 17.8056C9.26453 17.8056 9.2352 16.9896 9.83253 16.1056C10.2819 15.4403 11.2979 14.9563 11.2979 14.9563L10.7819 13.1243Z" fill="black"/>
</svg>
