<svg width="32" height="32" viewBox="0 0 32 32" fill="none" xmlns="http://www.w3.org/2000/svg">
<path d="M2.5813 0.0875163C1.38755 0.375016 0.375048 1.39377 0.093798 2.56877C0.012548 2.91877 4.80427e-05 4.59377 4.80427e-05 16C4.80427e-05 30.3625 -0.0249519 29.425 0.387548 30.2125C0.687548 30.775 1.3063 31.3688 1.87505 31.6375C2.1313 31.7625 2.4938 31.8938 2.67505 31.9313C2.9063 31.9813 6.8188 32 16.0188 32C30.3188 32 29.4 32.025 30.2 31.6188C31.0125 31.2063 31.7438 30.2438 31.9313 29.325C31.9813 29.0938 32 25.1813 32 15.9813C32 1.64376 32.025 2.57502 31.6125 1.78752C31.3438 1.27502 30.6938 0.631266 30.2 0.381266C29.4 -0.0249837 30.3313 1.62746e-05 15.9688 0.00626627C5.65005 0.0125163 2.83755 0.0250163 2.5813 0.0875163ZM29.4375 1.50627C29.9375 1.73752 30.2188 2.01252 30.45 2.48752L30.6563 2.90627V29.0938L30.4938 29.4375C30.2625 29.9375 29.9875 30.2188 29.5125 30.45L29.0938 30.6563H2.9063L2.48755 30.45C2.01255 30.2188 1.73755 29.9375 1.5063 29.4375L1.3438 29.0938V2.90627L1.5063 2.56252C1.80005 1.94377 2.2313 1.56877 2.8688 1.40002C3.0938 1.33752 5.9813 1.32502 16.125 1.33127L29.0938 1.34377L29.4375 1.50627Z" fill="black"/>
<path d="M11.9688 6.79377C11.7438 6.86877 11.55 7.00627 11.275 7.28127C10.6313 7.92502 10.6813 7.15627 10.7 16.125L10.7188 23.9063L10.8688 24.1875C11.0688 24.5688 11.4063 24.9125 11.7813 25.1125L12.0938 25.2813H19.9063L20.2188 25.1125C20.5938 24.9125 20.9313 24.5688 21.1313 24.1875L21.2813 23.9063V8.09377L21.1125 7.78127C20.9125 7.40627 20.5688 7.06877 20.1875 6.86877L19.9063 6.71877L16.0938 6.70627C12.6938 6.69377 12.25 6.70627 11.9688 6.79377ZM19.7938 8.20627L19.9688 8.37502V23.625L19.7938 23.7938L19.625 23.9688H12.375L12.2063 23.7938L12.0313 23.625V16.0063C12.0313 8.47502 12.0313 8.38752 12.1563 8.25002C12.225 8.17502 12.3375 8.08752 12.4063 8.05627C12.475 8.03127 14.125 8.01252 16.075 8.01877L19.625 8.03127L19.7938 8.20627Z" fill="black"/>
<path d="M13.65 20.1188C13.375 20.2876 13.275 20.6001 13.3937 20.8938C13.575 21.3188 13.5312 21.3126 16.0062 21.3126C18.1437 21.3126 18.2375 21.3063 18.3937 21.1876C18.6312 21.0001 18.7187 20.6876 18.6 20.4188C18.4312 20.0063 18.3812 20.0001 15.9875 20.0001C13.9812 20.0001 13.8312 20.0063 13.65 20.1188Z" fill="black"/>
</svg>
