<svg width="33" height="28" viewBox="0 0 33 28" fill="none" xmlns="http://www.w3.org/2000/svg">
<path d="M19.954 3.35868C19.9555 1.51762 18.4678 0.0216582 16.6384 0.0247394L12.5245 0.0324427C12.2441 0.0324427 12.0173 0.261997 12.0158 0.542393C12.0158 0.82433 12.2425 1.05234 12.5229 1.05234L16.6368 1.04464C17.907 1.0431 18.9397 2.08149 18.9397 3.36022C18.9366 4.63895 17.9009 5.68042 16.6292 5.6835L11.1976 5.6912C10.5817 5.69274 10.0025 5.4524 9.56737 5.01486C9.13376 4.57732 8.89474 3.99496 8.89474 3.37562C8.89474 3.09369 8.66798 2.86567 8.38759 2.86721C8.10874 2.86721 7.88044 3.09677 7.88044 3.37717C7.87891 4.26919 8.22212 5.1073 8.84878 5.73742C9.47544 6.36754 10.3089 6.71264 11.1961 6.7111L16.6292 6.7034C18.4586 6.70032 19.9509 5.19974 19.954 3.35868Z" fill="black"/>
<path d="M7.33606 5.66054L3.31716 5.66671C2.70276 5.66825 2.1236 5.42791 1.68846 4.99037C1.25332 4.55283 1.01431 3.97047 1.01584 3.35113C1.01737 2.07394 2.05465 1.03247 3.32483 1.02939L8.75639 1.02015C10.0281 1.02015 11.0623 2.05854 11.0592 3.33572C11.0592 3.61766 11.286 3.84567 11.5664 3.84567C11.8468 3.84567 12.0735 3.61612 12.0735 3.33418C12.0766 1.49312 10.5904 -0.00129531 8.75792 0.000245331L3.32636 0.0094893C1.49541 0.0110299 0.00306944 1.51161 5.08535e-06 3.35267C-0.00152709 4.24624 0.343212 5.08281 0.969872 5.71293C1.595 6.34305 2.4285 6.68815 3.31563 6.68815L7.33453 6.68045C7.61492 6.68045 7.84168 6.45243 7.84321 6.1705C7.84321 5.88856 7.61645 5.66054 7.33606 5.66054Z" fill="black"/>
<path d="M33 23.4846C33.0031 21.0058 30.999 18.9906 28.5352 18.9937L22.9964 19.0045C22.618 19.0045 22.3115 19.3126 22.31 19.6916C22.31 20.0721 22.6164 20.3787 22.9934 20.3772L28.5322 20.3679C30.2436 20.3664 31.6348 21.7637 31.6333 23.4862C31.6302 25.2071 30.2344 26.6106 28.523 26.6137L21.2084 26.6245C20.3795 26.6275 19.5996 26.3025 19.0128 25.7139C18.4275 25.1254 18.1057 24.3412 18.1057 23.5077C18.1073 23.1288 17.8023 22.8206 17.4239 22.8206C17.047 22.8222 16.7405 23.1303 16.7405 23.5093C16.739 24.711 17.2017 25.8387 18.0444 26.6876C18.8887 27.5365 20.0102 28.0018 21.2053 28.0002L28.5214 27.9895C30.9867 27.9848 32.9954 25.9635 33 23.4846Z" fill="black"/>
<path d="M16.0076 26.5841L10.5959 26.5933C9.76701 26.5949 8.98713 26.2698 8.40184 25.6813C7.81655 25.0928 7.49326 24.307 7.49633 23.4751C7.49939 21.7527 8.89367 20.3507 10.6066 20.3476L17.9212 20.3353C19.6342 20.3337 21.0239 21.7342 21.0224 23.4535C21.0208 23.8341 21.3257 24.1406 21.7042 24.1391C22.0811 24.1391 22.3875 23.8325 22.3891 23.452C22.3921 20.9731 20.3896 18.9579 17.9228 18.9626L10.6082 18.9733C8.1429 18.978 6.13269 20.9977 6.12963 23.4766C6.12656 24.6783 6.59081 25.8061 7.43351 26.655C8.27773 27.5023 9.39929 27.9691 10.5944 27.966L16.0045 27.9583C16.3829 27.9583 16.6894 27.6487 16.6894 27.2697C16.6894 26.8907 16.3845 26.5841 16.0076 26.5841Z" fill="black"/>
<path d="M16.3898 15.6911H11.2787V17.0245H17.7232V10.6405H16.3898V15.6911Z" fill="black"/>
<path d="M9.68089 9.94913L16.26 16.5384L17.2036 15.5964L10.6244 9.00705L9.68089 9.94913Z" fill="black"/>
</svg>
